<mxfile host="app.diagrams.net" modified="2023-12-06T08:45:14.189Z" agent="Mozilla/5.0 (Windows NT 10.0; Win64; x64) AppleWebKit/537.36 (KHTML, like Gecko) Chrome/119.0.0.0 Safari/537.36" etag="9HRiYuH7IFyWdqfPj1XU" version="22.1.5" type="github">
  <diagram id="C5RBs43oDa-KdzZeNtuy" name="Page-1">
    <mxGraphModel dx="4734" dy="750" grid="1" gridSize="10" guides="1" tooltips="1" connect="1" arrows="1" fold="1" page="1" pageScale="1" pageWidth="3300" pageHeight="4681" math="0" shadow="0">
      <root>
        <mxCell id="WIyWlLk6GJQsqaUBKTNV-0" />
        <mxCell id="WIyWlLk6GJQsqaUBKTNV-1" parent="WIyWlLk6GJQsqaUBKTNV-0" />
        <mxCell id="4WCQqq4v4iScheRFZ_jF-19" value="&lt;p style=&quot;margin-top: 0pt; margin-bottom: 0pt; margin-left: 0in; direction: ltr; unicode-bidi: embed; font-size: 14px;&quot;&gt;class&amp;nbsp;QxLibraryManager&lt;/p&gt;" style="rounded=0;whiteSpace=wrap;html=1;verticalAlign=top;align=left;fillColor=#d0cee2;strokeColor=#56517e;fontSize=14;" parent="WIyWlLk6GJQsqaUBKTNV-1" vertex="1">
          <mxGeometry x="1630" y="925" width="285" height="85" as="geometry" />
        </mxCell>
        <mxCell id="4WCQqq4v4iScheRFZ_jF-12" value="&lt;p style=&quot;margin-top: 0pt; margin-bottom: 0pt; margin-left: 0in; direction: ltr; unicode-bidi: embed; font-size: 14px;&quot;&gt;QxTclCmd.cpp&lt;/p&gt;" style="rounded=0;whiteSpace=wrap;html=1;verticalAlign=top;align=left;fillColor=#6d8764;strokeColor=#3A5431;fontSize=14;fontColor=#ffffff;" parent="WIyWlLk6GJQsqaUBKTNV-1" vertex="1">
          <mxGeometry x="-2100" y="1795" width="220" height="80" as="geometry" />
        </mxCell>
        <mxCell id="4WCQqq4v4iScheRFZ_jF-6" value="&lt;p style=&quot;margin-top: 0pt; margin-bottom: 0pt; margin-left: 0in; direction: ltr; unicode-bidi: embed; font-size: 14px;&quot;&gt;QxTclBase&lt;/p&gt;" style="rounded=0;whiteSpace=wrap;html=1;verticalAlign=top;align=left;fillColor=#6d8764;strokeColor=#3A5431;fontSize=14;fontColor=#ffffff;" parent="WIyWlLk6GJQsqaUBKTNV-1" vertex="1">
          <mxGeometry x="-2100" y="1700" width="220" height="80" as="geometry" />
        </mxCell>
        <mxCell id="4WCQqq4v4iScheRFZ_jF-5" value="&lt;p style=&quot;margin-top: 0pt; margin-bottom: 0pt; margin-left: 0in; direction: ltr; unicode-bidi: embed; font-size: 14px;&quot;&gt;QxTclRead.cpp&lt;/p&gt;" style="rounded=0;whiteSpace=wrap;html=1;verticalAlign=top;align=left;fillColor=#f8cecc;strokeColor=#b85450;fontSize=14;" parent="WIyWlLk6GJQsqaUBKTNV-1" vertex="1">
          <mxGeometry x="-2100" y="1600" width="220" height="70" as="geometry" />
        </mxCell>
        <mxCell id="sTVolGUjrKoJvCUlZHto-298" value="&lt;p style=&quot;margin-top: 0pt; margin-bottom: 0pt; margin-left: 0in; direction: ltr; unicode-bidi: embed; font-size: 14px;&quot;&gt;class QxIntegrationPage&lt;/p&gt;" style="rounded=0;whiteSpace=wrap;html=1;align=left;verticalAlign=top;fillColor=#fff2cc;strokeColor=#d6b656;fontSize=14;" parent="WIyWlLk6GJQsqaUBKTNV-1" vertex="1">
          <mxGeometry x="1100" y="1580" width="390" height="560" as="geometry" />
        </mxCell>
        <mxCell id="sTVolGUjrKoJvCUlZHto-371" value="class QxConstructionFlowWidget" style="rounded=0;whiteSpace=wrap;html=1;verticalAlign=top;align=left;fillColor=#bac8d3;strokeColor=#23445d;fontSize=14;" parent="WIyWlLk6GJQsqaUBKTNV-1" vertex="1">
          <mxGeometry x="950" y="2130" width="220" height="190" as="geometry" />
        </mxCell>
        <mxCell id="sTVolGUjrKoJvCUlZHto-206" value="class&amp;nbsp;QxStepTemplateBase" style="rounded=0;whiteSpace=wrap;html=1;verticalAlign=top;align=left;fillColor=#ffff88;strokeColor=#36393d;fontSize=14;" parent="WIyWlLk6GJQsqaUBKTNV-1" vertex="1">
          <mxGeometry x="-1417.5" y="2470" width="190" height="280" as="geometry" />
        </mxCell>
        <mxCell id="sTVolGUjrKoJvCUlZHto-131" value="class QxConstructionFlowWidget" style="rounded=0;whiteSpace=wrap;html=1;verticalAlign=top;align=left;fillColor=#bac8d3;strokeColor=#23445d;fontSize=14;" parent="WIyWlLk6GJQsqaUBKTNV-1" vertex="1">
          <mxGeometry x="-2195" y="1970" width="560" height="810" as="geometry" />
        </mxCell>
        <mxCell id="sTVolGUjrKoJvCUlZHto-146" value="class&amp;nbsp;QxConstruction" style="rounded=0;whiteSpace=wrap;html=1;verticalAlign=top;align=left;fillColor=#eeeeee;strokeColor=#36393d;fontSize=14;" parent="WIyWlLk6GJQsqaUBKTNV-1" vertex="1">
          <mxGeometry x="-1735" y="2120" width="270" height="140" as="geometry" />
        </mxCell>
        <mxCell id="sTVolGUjrKoJvCUlZHto-122" value="&lt;p style=&quot;margin-top: 0pt; margin-bottom: 0pt; margin-left: 0in; direction: ltr; unicode-bidi: embed; font-size: 14px;&quot;&gt;class&amp;nbsp;QxLibraryManager&lt;/p&gt;" style="rounded=0;whiteSpace=wrap;html=1;verticalAlign=top;align=left;fillColor=#d0cee2;strokeColor=#56517e;fontSize=14;" parent="WIyWlLk6GJQsqaUBKTNV-1" vertex="1">
          <mxGeometry x="-2960" y="1830" width="590" height="360" as="geometry" />
        </mxCell>
        <mxCell id="sTVolGUjrKoJvCUlZHto-108" value="&lt;p style=&quot;margin-top: 0pt; margin-bottom: 0pt; margin-left: 0in; direction: ltr; unicode-bidi: embed; font-size: 14px;&quot;&gt;class&amp;nbsp;QxFlowPage&lt;/p&gt;" style="rounded=0;whiteSpace=wrap;html=1;verticalAlign=top;align=left;fillColor=#dae8fc;strokeColor=#6c8ebf;fontSize=14;" parent="WIyWlLk6GJQsqaUBKTNV-1" vertex="1">
          <mxGeometry x="-2960" y="1620" width="590" height="160" as="geometry" />
        </mxCell>
        <mxCell id="sTVolGUjrKoJvCUlZHto-40" value="&lt;p style=&quot;margin-top: 0pt; margin-bottom: 0pt; margin-left: 0in; direction: ltr; unicode-bidi: embed; font-size: 14px;&quot;&gt;class QxIntegrationPage&lt;/p&gt;" style="rounded=0;whiteSpace=wrap;html=1;align=left;verticalAlign=top;fillColor=#fff2cc;strokeColor=#d6b656;fontSize=14;" parent="WIyWlLk6GJQsqaUBKTNV-1" vertex="1">
          <mxGeometry x="-2960" y="1030" width="1330" height="560" as="geometry" />
        </mxCell>
        <mxCell id="sTVolGUjrKoJvCUlZHto-1" value="&lt;p style=&quot;margin-top: 0pt; margin-bottom: 0pt; margin-left: 0in; direction: ltr; unicode-bidi: embed; font-size: 14px;&quot;&gt;class&amp;nbsp;QxNavigationPage&lt;/p&gt;" style="rounded=0;whiteSpace=wrap;html=1;verticalAlign=top;align=left;fillColor=#dae8fc;strokeColor=#6c8ebf;fontSize=14;" parent="WIyWlLk6GJQsqaUBKTNV-1" vertex="1">
          <mxGeometry x="-2530" y="210" width="660" height="80" as="geometry" />
        </mxCell>
        <mxCell id="sTVolGUjrKoJvCUlZHto-0" value="&lt;p style=&quot;margin-top: 0pt; margin-bottom: 0pt; margin-left: 0in; direction: ltr; unicode-bidi: embed; font-size: 14px;&quot;&gt;class MainPageWindow&lt;/p&gt;" style="rounded=0;whiteSpace=wrap;html=1;align=left;verticalAlign=top;labelBackgroundColor=none;fillColor=#d5e8d4;strokeColor=#82b366;fontSize=14;" parent="WIyWlLk6GJQsqaUBKTNV-1" vertex="1">
          <mxGeometry x="-2530" y="290" width="1730" height="210" as="geometry" />
        </mxCell>
        <mxCell id="sTVolGUjrKoJvCUlZHto-8" style="edgeStyle=orthogonalEdgeStyle;rounded=0;orthogonalLoop=1;jettySize=auto;html=1;exitX=0.5;exitY=1;exitDx=0;exitDy=0;fontFamily=Helvetica;fontSize=14;fontColor=default;" parent="WIyWlLk6GJQsqaUBKTNV-1" source="WIyWlLk6GJQsqaUBKTNV-3" target="sTVolGUjrKoJvCUlZHto-6" edge="1">
          <mxGeometry relative="1" as="geometry" />
        </mxCell>
        <mxCell id="WIyWlLk6GJQsqaUBKTNV-3" value="itemDoubleClickedSignal" style="rounded=1;whiteSpace=wrap;html=1;fontSize=14;glass=0;strokeWidth=1;shadow=0;fillColor=#60a917;strokeColor=#2D7600;fontColor=#ffffff;" parent="WIyWlLk6GJQsqaUBKTNV-1" vertex="1">
          <mxGeometry x="-2375" y="240" width="160" height="40" as="geometry" />
        </mxCell>
        <mxCell id="sTVolGUjrKoJvCUlZHto-2" value="&lt;p style=&quot;margin-top: 0pt; margin-bottom: 0pt; margin-left: 0in; direction: ltr; unicode-bidi: embed; font-size: 14px;&quot;&gt;class QxPiLayoutManager&lt;/p&gt;" style="rounded=0;whiteSpace=wrap;html=1;align=left;verticalAlign=top;fillColor=#ffe6cc;strokeColor=#d79b00;fontSize=14;gradientColor=none;" parent="WIyWlLk6GJQsqaUBKTNV-1" vertex="1">
          <mxGeometry x="-1810" y="520" width="440" height="400" as="geometry" />
        </mxCell>
        <mxCell id="sTVolGUjrKoJvCUlZHto-9" style="edgeStyle=orthogonalEdgeStyle;rounded=0;orthogonalLoop=1;jettySize=auto;html=1;exitX=0.5;exitY=1;exitDx=0;exitDy=0;fontFamily=Helvetica;fontSize=14;fontColor=default;" parent="WIyWlLk6GJQsqaUBKTNV-1" source="sTVolGUjrKoJvCUlZHto-4" target="sTVolGUjrKoJvCUlZHto-5" edge="1">
          <mxGeometry relative="1" as="geometry" />
        </mxCell>
        <mxCell id="sTVolGUjrKoJvCUlZHto-4" value="openBtnClickedSignal" style="rounded=1;whiteSpace=wrap;html=1;fontSize=14;glass=0;strokeWidth=1;shadow=0;fillColor=#60a917;strokeColor=#2D7600;fontColor=#ffffff;" parent="WIyWlLk6GJQsqaUBKTNV-1" vertex="1">
          <mxGeometry x="-2045" y="240" width="160" height="40" as="geometry" />
        </mxCell>
        <mxCell id="sTVolGUjrKoJvCUlZHto-33" style="edgeStyle=orthogonalEdgeStyle;rounded=0;orthogonalLoop=1;jettySize=auto;html=1;exitX=0.5;exitY=1;exitDx=0;exitDy=0;fontFamily=Helvetica;fontSize=14;fontColor=default;" parent="WIyWlLk6GJQsqaUBKTNV-1" source="sTVolGUjrKoJvCUlZHto-5" target="sTVolGUjrKoJvCUlZHto-32" edge="1">
          <mxGeometry relative="1" as="geometry" />
        </mxCell>
        <mxCell id="sTVolGUjrKoJvCUlZHto-5" value="openBtnClicked" style="rounded=1;whiteSpace=wrap;html=1;fontSize=14;glass=0;strokeWidth=1;shadow=0;fillColor=#60a917;strokeColor=#2D7600;fontColor=#ffffff;" parent="WIyWlLk6GJQsqaUBKTNV-1" vertex="1">
          <mxGeometry x="-2045" y="310" width="160" height="40" as="geometry" />
        </mxCell>
        <mxCell id="sTVolGUjrKoJvCUlZHto-62" style="edgeStyle=orthogonalEdgeStyle;rounded=0;orthogonalLoop=1;jettySize=auto;html=1;fontFamily=Helvetica;fontSize=14;fontColor=default;" parent="WIyWlLk6GJQsqaUBKTNV-1" source="sTVolGUjrKoJvCUlZHto-6" target="sTVolGUjrKoJvCUlZHto-61" edge="1">
          <mxGeometry relative="1" as="geometry" />
        </mxCell>
        <mxCell id="sTVolGUjrKoJvCUlZHto-6" value="navigationClicked" style="rounded=1;whiteSpace=wrap;html=1;fontSize=14;glass=0;strokeWidth=1;shadow=0;fillColor=#60a917;strokeColor=#2D7600;fontColor=#ffffff;" parent="WIyWlLk6GJQsqaUBKTNV-1" vertex="1">
          <mxGeometry x="-2375" y="310" width="160" height="40" as="geometry" />
        </mxCell>
        <mxCell id="sTVolGUjrKoJvCUlZHto-12" style="edgeStyle=orthogonalEdgeStyle;rounded=0;orthogonalLoop=1;jettySize=auto;html=1;exitX=0.5;exitY=1;exitDx=0;exitDy=0;entryX=0.5;entryY=0;entryDx=0;entryDy=0;fontFamily=Helvetica;fontSize=14;fontColor=default;" parent="WIyWlLk6GJQsqaUBKTNV-1" source="sTVolGUjrKoJvCUlZHto-7" target="sTVolGUjrKoJvCUlZHto-11" edge="1">
          <mxGeometry relative="1" as="geometry" />
        </mxCell>
        <mxCell id="sTVolGUjrKoJvCUlZHto-7" value="loadLayoutGdsSlot" style="rounded=1;whiteSpace=wrap;html=1;fontSize=14;glass=0;strokeWidth=1;shadow=0;fillColor=#60a917;strokeColor=#2D7600;fontColor=#ffffff;" parent="WIyWlLk6GJQsqaUBKTNV-1" vertex="1">
          <mxGeometry x="-1705" y="550" width="160" height="40" as="geometry" />
        </mxCell>
        <mxCell id="sTVolGUjrKoJvCUlZHto-16" style="edgeStyle=orthogonalEdgeStyle;rounded=0;orthogonalLoop=1;jettySize=auto;html=1;exitX=0.5;exitY=1;exitDx=0;exitDy=0;fontFamily=Helvetica;fontSize=14;fontColor=default;" parent="WIyWlLk6GJQsqaUBKTNV-1" source="sTVolGUjrKoJvCUlZHto-11" target="sTVolGUjrKoJvCUlZHto-13" edge="1">
          <mxGeometry relative="1" as="geometry" />
        </mxCell>
        <mxCell id="sTVolGUjrKoJvCUlZHto-11" value="//清理界面的clip，point&amp;amp;gauge表格；" style="rounded=1;whiteSpace=wrap;html=1;fontSize=14;glass=0;strokeWidth=1;shadow=0;fillColor=#60a917;strokeColor=#2D7600;fontColor=#ffffff;" parent="WIyWlLk6GJQsqaUBKTNV-1" vertex="1">
          <mxGeometry x="-1705" y="620" width="160" height="40" as="geometry" />
        </mxCell>
        <mxCell id="sTVolGUjrKoJvCUlZHto-17" style="edgeStyle=orthogonalEdgeStyle;rounded=0;orthogonalLoop=1;jettySize=auto;html=1;exitX=0.5;exitY=1;exitDx=0;exitDy=0;entryX=0.5;entryY=0;entryDx=0;entryDy=0;fontFamily=Helvetica;fontSize=14;fontColor=default;" parent="WIyWlLk6GJQsqaUBKTNV-1" source="sTVolGUjrKoJvCUlZHto-13" target="sTVolGUjrKoJvCUlZHto-15" edge="1">
          <mxGeometry relative="1" as="geometry" />
        </mxCell>
        <mxCell id="sTVolGUjrKoJvCUlZHto-13" value="new LayoutView(gds_path);" style="rounded=1;whiteSpace=wrap;html=1;fontSize=14;glass=0;strokeWidth=1;shadow=0;fillColor=#60a917;strokeColor=#2D7600;fontColor=#ffffff;" parent="WIyWlLk6GJQsqaUBKTNV-1" vertex="1">
          <mxGeometry x="-1705" y="700" width="160" height="40" as="geometry" />
        </mxCell>
        <mxCell id="sTVolGUjrKoJvCUlZHto-22" style="edgeStyle=orthogonalEdgeStyle;rounded=0;orthogonalLoop=1;jettySize=auto;html=1;exitX=0.5;exitY=1;exitDx=0;exitDy=0;fontFamily=Helvetica;fontSize=14;fontColor=default;" parent="WIyWlLk6GJQsqaUBKTNV-1" source="sTVolGUjrKoJvCUlZHto-15" target="sTVolGUjrKoJvCUlZHto-20" edge="1">
          <mxGeometry relative="1" as="geometry" />
        </mxCell>
        <mxCell id="sTVolGUjrKoJvCUlZHto-15" value="new QxLoadLayoutThread(this);" style="rounded=1;whiteSpace=wrap;html=1;fontSize=14;glass=0;strokeWidth=1;shadow=0;fillColor=#60a917;strokeColor=#2D7600;fontColor=#ffffff;" parent="WIyWlLk6GJQsqaUBKTNV-1" vertex="1">
          <mxGeometry x="-1720" y="770" width="190" height="40" as="geometry" />
        </mxCell>
        <mxCell id="sTVolGUjrKoJvCUlZHto-18" value="new thread for load" style="shape=callout;whiteSpace=wrap;html=1;perimeter=calloutPerimeter;rounded=0;strokeColor=default;align=center;verticalAlign=middle;fontFamily=Helvetica;fontSize=14;fontColor=default;fillColor=default;position2=0;" parent="WIyWlLk6GJQsqaUBKTNV-1" vertex="1">
          <mxGeometry x="-1530" y="740" width="120" height="60" as="geometry" />
        </mxCell>
        <mxCell id="sTVolGUjrKoJvCUlZHto-19" value="重新加载LayoutView界面" style="shape=callout;whiteSpace=wrap;html=1;perimeter=calloutPerimeter;rounded=0;strokeColor=default;align=center;verticalAlign=middle;fontFamily=Helvetica;fontSize=14;fontColor=default;fillColor=default;position2=0;" parent="WIyWlLk6GJQsqaUBKTNV-1" vertex="1">
          <mxGeometry x="-1545" y="660" width="165" height="60" as="geometry" />
        </mxCell>
        <mxCell id="sTVolGUjrKoJvCUlZHto-24" style="edgeStyle=orthogonalEdgeStyle;rounded=0;orthogonalLoop=1;jettySize=auto;html=1;exitX=0.5;exitY=1;exitDx=0;exitDy=0;fontFamily=Helvetica;fontSize=14;fontColor=default;" parent="WIyWlLk6GJQsqaUBKTNV-1" source="sTVolGUjrKoJvCUlZHto-20" target="sTVolGUjrKoJvCUlZHto-23" edge="1">
          <mxGeometry relative="1" as="geometry" />
        </mxCell>
        <mxCell id="sTVolGUjrKoJvCUlZHto-20" value="m_load_layout_thread-&amp;gt;startJob(true);" style="rounded=1;whiteSpace=wrap;html=1;fontSize=14;glass=0;strokeWidth=1;shadow=0;fillColor=#60a917;strokeColor=#2D7600;fontColor=#ffffff;" parent="WIyWlLk6GJQsqaUBKTNV-1" vertex="1">
          <mxGeometry x="-1755" y="860" width="260" height="40" as="geometry" />
        </mxCell>
        <mxCell id="sTVolGUjrKoJvCUlZHto-21" value="实际执行加载layout线程" style="shape=callout;whiteSpace=wrap;html=1;perimeter=calloutPerimeter;rounded=0;strokeColor=default;align=center;verticalAlign=middle;fontFamily=Helvetica;fontSize=14;fontColor=default;fillColor=default;position2=0;" parent="WIyWlLk6GJQsqaUBKTNV-1" vertex="1">
          <mxGeometry x="-1495" y="830" width="120" height="60" as="geometry" />
        </mxCell>
        <mxCell id="sTVolGUjrKoJvCUlZHto-27" style="edgeStyle=orthogonalEdgeStyle;rounded=0;orthogonalLoop=1;jettySize=auto;html=1;exitX=0.5;exitY=1;exitDx=0;exitDy=0;fontFamily=Helvetica;fontSize=14;fontColor=default;entryX=0;entryY=1;entryDx=0;entryDy=0;" parent="WIyWlLk6GJQsqaUBKTNV-1" source="sTVolGUjrKoJvCUlZHto-23" target="sTVolGUjrKoJvCUlZHto-26" edge="1">
          <mxGeometry relative="1" as="geometry">
            <mxPoint x="-1635" y="365" as="targetPoint" />
          </mxGeometry>
        </mxCell>
        <mxCell id="sTVolGUjrKoJvCUlZHto-23" value="QxLoadLayoutThread::run" style="rounded=1;whiteSpace=wrap;html=1;fontSize=14;glass=0;strokeWidth=1;shadow=0;fillColor=#fa6800;strokeColor=#C73500;fontColor=#000000;" parent="WIyWlLk6GJQsqaUBKTNV-1" vertex="1">
          <mxGeometry x="-1435" y="955" width="260" height="40" as="geometry" />
        </mxCell>
        <mxCell id="sTVolGUjrKoJvCUlZHto-31" style="edgeStyle=orthogonalEdgeStyle;rounded=0;orthogonalLoop=1;jettySize=auto;html=1;exitX=1;exitY=1;exitDx=0;exitDy=0;fontFamily=Helvetica;fontSize=14;fontColor=default;" parent="WIyWlLk6GJQsqaUBKTNV-1" source="sTVolGUjrKoJvCUlZHto-26" target="sTVolGUjrKoJvCUlZHto-30" edge="1">
          <mxGeometry relative="1" as="geometry" />
        </mxCell>
        <mxCell id="sTVolGUjrKoJvCUlZHto-26" value="MainPageWindow::mainWindow-&amp;gt;loadLayout" style="rounded=1;whiteSpace=wrap;html=1;fontSize=14;glass=0;strokeWidth=1;shadow=0;fillColor=#fa6800;strokeColor=#C73500;fontColor=#000000;" parent="WIyWlLk6GJQsqaUBKTNV-1" vertex="1">
          <mxGeometry x="-1335" y="305" width="470" height="40" as="geometry" />
        </mxCell>
        <mxCell id="sTVolGUjrKoJvCUlZHto-28" value="&lt;p style=&quot;margin-top: 0pt; margin-bottom: 0pt; margin-left: 0in; direction: ltr; unicode-bidi: embed; font-size: 14px;&quot;&gt;main thread&lt;/p&gt;" style="rounded=0;whiteSpace=wrap;html=1;fillColor=#60a917;fontColor=#ffffff;strokeColor=#2D7600;fontSize=14;" parent="WIyWlLk6GJQsqaUBKTNV-1" vertex="1">
          <mxGeometry x="-920" y="200" width="120" height="30" as="geometry" />
        </mxCell>
        <mxCell id="sTVolGUjrKoJvCUlZHto-29" value="&lt;p style=&quot;margin-top: 0pt; margin-bottom: 0pt; margin-left: 0in; direction: ltr; unicode-bidi: embed; font-size: 14px;&quot;&gt;load layout thread&lt;/p&gt;" style="rounded=0;whiteSpace=wrap;html=1;fillColor=#fa6800;fontColor=#000000;strokeColor=#C73500;fontSize=14;" parent="WIyWlLk6GJQsqaUBKTNV-1" vertex="1">
          <mxGeometry x="-920" y="250" width="120" height="30" as="geometry" />
        </mxCell>
        <mxCell id="sTVolGUjrKoJvCUlZHto-42" style="edgeStyle=orthogonalEdgeStyle;rounded=0;orthogonalLoop=1;jettySize=auto;html=1;exitX=0.5;exitY=1;exitDx=0;exitDy=0;fontFamily=Helvetica;fontSize=14;fontColor=default;" parent="WIyWlLk6GJQsqaUBKTNV-1" source="sTVolGUjrKoJvCUlZHto-30" target="sTVolGUjrKoJvCUlZHto-41" edge="1">
          <mxGeometry relative="1" as="geometry" />
        </mxCell>
        <mxCell id="sTVolGUjrKoJvCUlZHto-30" value="view-&amp;gt;load_layout" style="rounded=1;whiteSpace=wrap;html=1;fontSize=14;glass=0;strokeWidth=1;shadow=0;fillColor=#fa6800;strokeColor=#C73500;fontColor=#000000;" parent="WIyWlLk6GJQsqaUBKTNV-1" vertex="1">
          <mxGeometry x="-1075" y="390" width="210" height="40" as="geometry" />
        </mxCell>
        <mxCell id="sTVolGUjrKoJvCUlZHto-34" style="edgeStyle=orthogonalEdgeStyle;rounded=0;orthogonalLoop=1;jettySize=auto;html=1;exitX=1;exitY=0.5;exitDx=0;exitDy=0;fontFamily=Helvetica;fontSize=14;fontColor=default;" parent="WIyWlLk6GJQsqaUBKTNV-1" source="sTVolGUjrKoJvCUlZHto-32" target="sTVolGUjrKoJvCUlZHto-7" edge="1">
          <mxGeometry relative="1" as="geometry" />
        </mxCell>
        <mxCell id="sTVolGUjrKoJvCUlZHto-39" value="layout" style="edgeLabel;html=1;align=center;verticalAlign=middle;resizable=0;points=[];fontSize=14;fontFamily=Helvetica;fontColor=default;" parent="sTVolGUjrKoJvCUlZHto-34" vertex="1" connectable="0">
          <mxGeometry x="-0.2531" y="-4" relative="1" as="geometry">
            <mxPoint as="offset" />
          </mxGeometry>
        </mxCell>
        <mxCell id="sTVolGUjrKoJvCUlZHto-37" style="edgeStyle=orthogonalEdgeStyle;rounded=0;orthogonalLoop=1;jettySize=auto;html=1;exitX=0.5;exitY=1;exitDx=0;exitDy=0;fontFamily=Helvetica;fontSize=14;fontColor=default;" parent="WIyWlLk6GJQsqaUBKTNV-1" source="sTVolGUjrKoJvCUlZHto-32" target="sTVolGUjrKoJvCUlZHto-36" edge="1">
          <mxGeometry relative="1" as="geometry" />
        </mxCell>
        <mxCell id="sTVolGUjrKoJvCUlZHto-38" value="flow/construction" style="edgeLabel;html=1;align=center;verticalAlign=middle;resizable=0;points=[];fontSize=14;fontFamily=Helvetica;fontColor=default;" parent="sTVolGUjrKoJvCUlZHto-37" vertex="1" connectable="0">
          <mxGeometry x="0.3182" y="3" relative="1" as="geometry">
            <mxPoint y="-1" as="offset" />
          </mxGeometry>
        </mxCell>
        <mxCell id="sTVolGUjrKoJvCUlZHto-32" value="switch type" style="rhombus;whiteSpace=wrap;html=1;rounded=0;strokeColor=#2D7600;align=center;verticalAlign=middle;fontFamily=Helvetica;fontSize=14;fillColor=#60a917;fontColor=#ffffff;" parent="WIyWlLk6GJQsqaUBKTNV-1" vertex="1">
          <mxGeometry x="-2005" y="375" width="80" height="50" as="geometry" />
        </mxCell>
        <mxCell id="sTVolGUjrKoJvCUlZHto-44" style="edgeStyle=orthogonalEdgeStyle;rounded=0;orthogonalLoop=1;jettySize=auto;html=1;exitX=0.5;exitY=1;exitDx=0;exitDy=0;fontFamily=Helvetica;fontSize=14;fontColor=default;" parent="WIyWlLk6GJQsqaUBKTNV-1" source="sTVolGUjrKoJvCUlZHto-36" target="sTVolGUjrKoJvCUlZHto-43" edge="1">
          <mxGeometry relative="1" as="geometry" />
        </mxCell>
        <mxCell id="sTVolGUjrKoJvCUlZHto-36" value="openLibrary" style="rounded=1;whiteSpace=wrap;html=1;fontSize=14;glass=0;strokeWidth=1;shadow=0;fillColor=#60a917;strokeColor=#2D7600;fontColor=#ffffff;" parent="WIyWlLk6GJQsqaUBKTNV-1" vertex="1">
          <mxGeometry x="-2045" y="1045" width="160" height="40" as="geometry" />
        </mxCell>
        <mxCell id="sTVolGUjrKoJvCUlZHto-41" value="??" style="rounded=1;whiteSpace=wrap;html=1;fontSize=14;glass=0;strokeWidth=1;shadow=0;fillColor=#fa6800;strokeColor=#C73500;fontColor=#000000;" parent="WIyWlLk6GJQsqaUBKTNV-1" vertex="1">
          <mxGeometry x="-1075" y="455" width="210" height="40" as="geometry" />
        </mxCell>
        <mxCell id="sTVolGUjrKoJvCUlZHto-47" style="edgeStyle=orthogonalEdgeStyle;rounded=0;orthogonalLoop=1;jettySize=auto;html=1;exitX=0.5;exitY=1;exitDx=0;exitDy=0;fontFamily=Helvetica;fontSize=14;fontColor=default;" parent="WIyWlLk6GJQsqaUBKTNV-1" source="sTVolGUjrKoJvCUlZHto-43" target="sTVolGUjrKoJvCUlZHto-46" edge="1">
          <mxGeometry relative="1" as="geometry" />
        </mxCell>
        <mxCell id="sTVolGUjrKoJvCUlZHto-52" value="LibraryType_Flow" style="edgeLabel;html=1;align=center;verticalAlign=middle;resizable=0;points=[];fontSize=14;fontFamily=Helvetica;fontColor=default;" parent="sTVolGUjrKoJvCUlZHto-47" vertex="1" connectable="0">
          <mxGeometry x="-0.1668" y="-3" relative="1" as="geometry">
            <mxPoint as="offset" />
          </mxGeometry>
        </mxCell>
        <mxCell id="sTVolGUjrKoJvCUlZHto-50" style="edgeStyle=orthogonalEdgeStyle;rounded=0;orthogonalLoop=1;jettySize=auto;html=1;exitX=1;exitY=0.5;exitDx=0;exitDy=0;fontFamily=Helvetica;fontSize=14;fontColor=default;" parent="WIyWlLk6GJQsqaUBKTNV-1" source="sTVolGUjrKoJvCUlZHto-43" target="sTVolGUjrKoJvCUlZHto-49" edge="1">
          <mxGeometry relative="1" as="geometry" />
        </mxCell>
        <mxCell id="sTVolGUjrKoJvCUlZHto-51" value="LibraryType_Construction" style="edgeLabel;html=1;align=center;verticalAlign=middle;resizable=0;points=[];fontSize=14;fontFamily=Helvetica;fontColor=default;" parent="sTVolGUjrKoJvCUlZHto-50" vertex="1" connectable="0">
          <mxGeometry x="-0.3792" y="1" relative="1" as="geometry">
            <mxPoint as="offset" />
          </mxGeometry>
        </mxCell>
        <mxCell id="sTVolGUjrKoJvCUlZHto-43" value="switch library_type" style="rhombus;whiteSpace=wrap;html=1;rounded=0;strokeColor=#2D7600;align=center;verticalAlign=middle;fontFamily=Helvetica;fontSize=14;fillColor=#60a917;fontColor=#ffffff;" parent="WIyWlLk6GJQsqaUBKTNV-1" vertex="1">
          <mxGeometry x="-2015" y="1155" width="100" height="70" as="geometry" />
        </mxCell>
        <mxCell id="4WCQqq4v4iScheRFZ_jF-3" style="edgeStyle=orthogonalEdgeStyle;rounded=0;orthogonalLoop=1;jettySize=auto;html=1;" parent="WIyWlLk6GJQsqaUBKTNV-1" source="sTVolGUjrKoJvCUlZHto-46" target="4WCQqq4v4iScheRFZ_jF-2" edge="1">
          <mxGeometry relative="1" as="geometry" />
        </mxCell>
        <mxCell id="sTVolGUjrKoJvCUlZHto-46" value="m_flowLibrary-&amp;gt;importTclItemSlot();" style="rounded=1;whiteSpace=wrap;html=1;fontSize=14;glass=0;strokeWidth=1;shadow=0;fillColor=#60a917;strokeColor=#2D7600;fontColor=#ffffff;" parent="WIyWlLk6GJQsqaUBKTNV-1" vertex="1">
          <mxGeometry x="-2045" y="1345" width="160" height="40" as="geometry" />
        </mxCell>
        <mxCell id="sTVolGUjrKoJvCUlZHto-49" value="m_constructionLibrary-&amp;gt;importTBItemSlot();" style="rounded=1;whiteSpace=wrap;html=1;fontSize=14;glass=0;strokeWidth=1;shadow=0;fillColor=#60a917;strokeColor=#2D7600;fontColor=#ffffff;" parent="WIyWlLk6GJQsqaUBKTNV-1" vertex="1">
          <mxGeometry x="-1805" y="1345" width="160" height="40" as="geometry" />
        </mxCell>
        <mxCell id="sTVolGUjrKoJvCUlZHto-53" value="&lt;span style=&quot;font-size: 22px;&quot;&gt;外部读取layout/flow/...&lt;/span&gt;" style="text;html=1;strokeColor=none;fillColor=none;align=center;verticalAlign=middle;whiteSpace=wrap;rounded=0;fontSize=22;fontFamily=Helvetica;fontColor=default;" parent="WIyWlLk6GJQsqaUBKTNV-1" vertex="1">
          <mxGeometry x="-2100" y="150" width="285" height="70" as="geometry" />
        </mxCell>
        <mxCell id="sTVolGUjrKoJvCUlZHto-64" style="edgeStyle=orthogonalEdgeStyle;rounded=0;orthogonalLoop=1;jettySize=auto;html=1;exitX=0.5;exitY=1;exitDx=0;exitDy=0;entryX=0.5;entryY=0;entryDx=0;entryDy=0;fontFamily=Helvetica;fontSize=14;fontColor=default;" parent="WIyWlLk6GJQsqaUBKTNV-1" source="sTVolGUjrKoJvCUlZHto-61" target="sTVolGUjrKoJvCUlZHto-63" edge="1">
          <mxGeometry relative="1" as="geometry" />
        </mxCell>
        <mxCell id="sTVolGUjrKoJvCUlZHto-61" value="navigator-&amp;gt;close();" style="rounded=1;whiteSpace=wrap;html=1;fontSize=14;glass=0;strokeWidth=1;shadow=0;fillColor=#60a917;strokeColor=#2D7600;fontColor=#ffffff;" parent="WIyWlLk6GJQsqaUBKTNV-1" vertex="1">
          <mxGeometry x="-2375" y="380" width="160" height="40" as="geometry" />
        </mxCell>
        <mxCell id="sTVolGUjrKoJvCUlZHto-69" style="edgeStyle=orthogonalEdgeStyle;rounded=0;orthogonalLoop=1;jettySize=auto;html=1;exitX=1;exitY=0.5;exitDx=0;exitDy=0;fontFamily=Helvetica;fontSize=14;fontColor=default;" parent="WIyWlLk6GJQsqaUBKTNV-1" source="sTVolGUjrKoJvCUlZHto-63" target="sTVolGUjrKoJvCUlZHto-7" edge="1">
          <mxGeometry relative="1" as="geometry" />
        </mxCell>
        <mxCell id="sTVolGUjrKoJvCUlZHto-70" value="layout" style="edgeLabel;html=1;align=center;verticalAlign=middle;resizable=0;points=[];fontSize=14;fontFamily=Helvetica;fontColor=default;" parent="sTVolGUjrKoJvCUlZHto-69" vertex="1" connectable="0">
          <mxGeometry x="-0.4166" y="1" relative="1" as="geometry">
            <mxPoint as="offset" />
          </mxGeometry>
        </mxCell>
        <mxCell id="sTVolGUjrKoJvCUlZHto-83" style="edgeStyle=orthogonalEdgeStyle;rounded=0;orthogonalLoop=1;jettySize=auto;html=1;exitX=0.5;exitY=1;exitDx=0;exitDy=0;entryX=0.5;entryY=0;entryDx=0;entryDy=0;fontFamily=Helvetica;fontSize=14;fontColor=default;" parent="WIyWlLk6GJQsqaUBKTNV-1" source="sTVolGUjrKoJvCUlZHto-63" target="sTVolGUjrKoJvCUlZHto-82" edge="1">
          <mxGeometry relative="1" as="geometry" />
        </mxCell>
        <mxCell id="sTVolGUjrKoJvCUlZHto-84" value="flow/construction" style="edgeLabel;html=1;align=center;verticalAlign=middle;resizable=0;points=[];fontSize=14;fontFamily=Helvetica;fontColor=default;" parent="sTVolGUjrKoJvCUlZHto-83" vertex="1" connectable="0">
          <mxGeometry x="0.1593" relative="1" as="geometry">
            <mxPoint as="offset" />
          </mxGeometry>
        </mxCell>
        <mxCell id="sTVolGUjrKoJvCUlZHto-63" value="switch type" style="rhombus;whiteSpace=wrap;html=1;rounded=0;strokeColor=#2D7600;align=center;verticalAlign=middle;fontFamily=Helvetica;fontSize=14;fillColor=#60a917;fontColor=#ffffff;" parent="WIyWlLk6GJQsqaUBKTNV-1" vertex="1">
          <mxGeometry x="-2335" y="440" width="80" height="50" as="geometry" />
        </mxCell>
        <mxCell id="sTVolGUjrKoJvCUlZHto-72" value="&lt;span style=&quot;font-size: 22px;&quot;&gt;加载layout/flow/...&lt;/span&gt;" style="text;html=1;strokeColor=none;fillColor=none;align=center;verticalAlign=middle;whiteSpace=wrap;rounded=0;fontSize=22;fontFamily=Helvetica;fontColor=default;" parent="WIyWlLk6GJQsqaUBKTNV-1" vertex="1">
          <mxGeometry x="-2385" y="160" width="190" height="70" as="geometry" />
        </mxCell>
        <mxCell id="sTVolGUjrKoJvCUlZHto-74" value="关闭导航页，进入主菜单" style="shape=callout;whiteSpace=wrap;html=1;perimeter=calloutPerimeter;rounded=0;strokeColor=default;align=center;verticalAlign=middle;fontFamily=Helvetica;fontSize=14;fontColor=default;fillColor=default;position2=0;" parent="WIyWlLk6GJQsqaUBKTNV-1" vertex="1">
          <mxGeometry x="-2210" y="340" width="90" height="70" as="geometry" />
        </mxCell>
        <mxCell id="sTVolGUjrKoJvCUlZHto-82" value="clickedLibrary" style="rounded=1;whiteSpace=wrap;html=1;fontSize=14;glass=0;strokeWidth=1;shadow=0;fillColor=#60a917;strokeColor=#2D7600;fontColor=#ffffff;" parent="WIyWlLk6GJQsqaUBKTNV-1" vertex="1">
          <mxGeometry x="-2375" y="1050" width="160" height="40" as="geometry" />
        </mxCell>
        <mxCell id="sTVolGUjrKoJvCUlZHto-88" style="edgeStyle=orthogonalEdgeStyle;rounded=0;orthogonalLoop=1;jettySize=auto;html=1;exitX=0.5;exitY=1;exitDx=0;exitDy=0;fontFamily=Helvetica;fontSize=12;fontColor=default;" parent="WIyWlLk6GJQsqaUBKTNV-1" source="sTVolGUjrKoJvCUlZHto-85" edge="1">
          <mxGeometry relative="1" as="geometry">
            <mxPoint x="-2715" y="1192.5" as="targetPoint" />
          </mxGeometry>
        </mxCell>
        <mxCell id="sTVolGUjrKoJvCUlZHto-85" value="&lt;div&gt;QxLibraryList&lt;br&gt;&lt;/div&gt;&lt;div&gt;m_flowLibrary;&lt;/div&gt;&lt;div&gt;&amp;nbsp; &amp;nbsp; m_constructionLibrary;&lt;/div&gt;&lt;div&gt;&amp;nbsp; &amp;nbsp; m_processStepLibrary;&lt;/div&gt;&lt;div&gt;&amp;nbsp; &amp;nbsp; m_userStepLibrary;&lt;/div&gt;&lt;div&gt;&amp;nbsp; &amp;nbsp; m_moduleLibrary;&amp;nbsp;&amp;nbsp;&lt;/div&gt;" style="rounded=1;whiteSpace=wrap;html=1;fontSize=14;glass=0;strokeWidth=1;shadow=0;fillColor=#60a917;strokeColor=#2D7600;fontColor=#ffffff;" parent="WIyWlLk6GJQsqaUBKTNV-1" vertex="1">
          <mxGeometry x="-2800" y="1050" width="170" height="110" as="geometry" />
        </mxCell>
        <mxCell id="sTVolGUjrKoJvCUlZHto-105" style="edgeStyle=orthogonalEdgeStyle;rounded=0;orthogonalLoop=1;jettySize=auto;html=1;entryX=0.5;entryY=0;entryDx=0;entryDy=0;fontFamily=Helvetica;fontSize=12;fontColor=default;" parent="WIyWlLk6GJQsqaUBKTNV-1" source="sTVolGUjrKoJvCUlZHto-107" target="sTVolGUjrKoJvCUlZHto-104" edge="1">
          <mxGeometry relative="1" as="geometry">
            <mxPoint x="-2715" y="1232.5" as="sourcePoint" />
          </mxGeometry>
        </mxCell>
        <mxCell id="sTVolGUjrKoJvCUlZHto-94" value="各QxLibraryList: public QWidget 类统一增删改查的接口，控制m_flowPage或者m_constructionFlowWidget" style="shape=callout;whiteSpace=wrap;html=1;perimeter=calloutPerimeter;rounded=0;strokeColor=default;align=center;verticalAlign=middle;fontFamily=Helvetica;fontSize=14;fontColor=default;fillColor=default;position2=0;" parent="WIyWlLk6GJQsqaUBKTNV-1" vertex="1">
          <mxGeometry x="-2627.5" y="1180" width="190" height="105" as="geometry" />
        </mxCell>
        <mxCell id="sTVolGUjrKoJvCUlZHto-95" value="交互类" style="shape=callout;whiteSpace=wrap;html=1;perimeter=calloutPerimeter;rounded=0;strokeColor=default;align=center;verticalAlign=middle;fontFamily=Helvetica;fontSize=14;fontColor=default;fillColor=default;position2=1;" parent="WIyWlLk6GJQsqaUBKTNV-1" vertex="1">
          <mxGeometry x="-3030" y="970" width="70" height="70" as="geometry" />
        </mxCell>
        <mxCell id="sTVolGUjrKoJvCUlZHto-96" value="&lt;span style=&quot;font-size: 22px;&quot;&gt;增删改查flow/construction/...&lt;/span&gt;" style="text;html=1;strokeColor=none;fillColor=none;align=center;verticalAlign=middle;whiteSpace=wrap;rounded=0;fontSize=22;fontFamily=Helvetica;fontColor=default;" parent="WIyWlLk6GJQsqaUBKTNV-1" vertex="1">
          <mxGeometry x="-2810" y="960" width="190" height="70" as="geometry" />
        </mxCell>
        <mxCell id="sTVolGUjrKoJvCUlZHto-138" style="edgeStyle=orthogonalEdgeStyle;rounded=0;orthogonalLoop=1;jettySize=auto;html=1;fontFamily=Helvetica;fontSize=12;fontColor=default;" parent="WIyWlLk6GJQsqaUBKTNV-1" source="sTVolGUjrKoJvCUlZHto-100" target="sTVolGUjrKoJvCUlZHto-137" edge="1">
          <mxGeometry relative="1" as="geometry" />
        </mxCell>
        <mxCell id="sTVolGUjrKoJvCUlZHto-100" value="m_constructionFlowWidget-&amp;gt;addNewItem" style="rounded=1;whiteSpace=wrap;html=1;fontSize=14;glass=0;strokeWidth=1;shadow=0;fillColor=#60a917;strokeColor=#2D7600;fontColor=#ffffff;" parent="WIyWlLk6GJQsqaUBKTNV-1" vertex="1">
          <mxGeometry x="-2602.5" y="1515" width="205" height="45" as="geometry" />
        </mxCell>
        <mxCell id="sTVolGUjrKoJvCUlZHto-101" style="edgeStyle=orthogonalEdgeStyle;rounded=0;orthogonalLoop=1;jettySize=auto;html=1;fontFamily=Helvetica;fontSize=12;fontColor=default;" parent="WIyWlLk6GJQsqaUBKTNV-1" source="sTVolGUjrKoJvCUlZHto-102" target="sTVolGUjrKoJvCUlZHto-103" edge="1">
          <mxGeometry relative="1" as="geometry" />
        </mxCell>
        <mxCell id="sTVolGUjrKoJvCUlZHto-102" value="m_flowPage-&amp;gt;addNewItem" style="rounded=1;whiteSpace=wrap;html=1;fontSize=14;glass=0;strokeWidth=1;shadow=0;fillColor=#60a917;strokeColor=#2D7600;fontColor=#ffffff;" parent="WIyWlLk6GJQsqaUBKTNV-1" vertex="1">
          <mxGeometry x="-2795" y="1515" width="160" height="40" as="geometry" />
        </mxCell>
        <mxCell id="sTVolGUjrKoJvCUlZHto-117" value="" style="edgeStyle=orthogonalEdgeStyle;rounded=0;orthogonalLoop=1;jettySize=auto;html=1;fontFamily=Helvetica;fontSize=12;fontColor=default;" parent="WIyWlLk6GJQsqaUBKTNV-1" source="sTVolGUjrKoJvCUlZHto-103" target="sTVolGUjrKoJvCUlZHto-116" edge="1">
          <mxGeometry relative="1" as="geometry" />
        </mxCell>
        <mxCell id="sTVolGUjrKoJvCUlZHto-103" value="addNewItem" style="rounded=1;whiteSpace=wrap;html=1;fontSize=14;glass=0;strokeWidth=1;shadow=0;fillColor=#60a917;strokeColor=#2D7600;fontColor=#ffffff;" parent="WIyWlLk6GJQsqaUBKTNV-1" vertex="1">
          <mxGeometry x="-2780" y="1640" width="130" height="40" as="geometry" />
        </mxCell>
        <mxCell id="sTVolGUjrKoJvCUlZHto-113" style="edgeStyle=orthogonalEdgeStyle;rounded=0;orthogonalLoop=1;jettySize=auto;html=1;entryX=0.5;entryY=0;entryDx=0;entryDy=0;fontFamily=Helvetica;fontSize=12;fontColor=default;" parent="WIyWlLk6GJQsqaUBKTNV-1" source="sTVolGUjrKoJvCUlZHto-104" target="sTVolGUjrKoJvCUlZHto-110" edge="1">
          <mxGeometry relative="1" as="geometry" />
        </mxCell>
        <mxCell id="sTVolGUjrKoJvCUlZHto-104" value="addNewItemSlot;&lt;div&gt;updateDragItemInfoSlot;&lt;/div&gt;deleteLibraryItemSlot;&lt;br&gt;addDragItemSlot;" style="rounded=1;whiteSpace=wrap;html=1;fontSize=14;glass=0;strokeWidth=1;shadow=0;fillColor=#60a917;strokeColor=#2D7600;fontColor=#ffffff;" parent="WIyWlLk6GJQsqaUBKTNV-1" vertex="1">
          <mxGeometry x="-2800" y="1255" width="170" height="90" as="geometry" />
        </mxCell>
        <mxCell id="sTVolGUjrKoJvCUlZHto-107" value="connect" style="rounded=0;whiteSpace=wrap;html=1;strokeColor=default;align=center;verticalAlign=middle;fontFamily=Helvetica;fontSize=12;fontColor=default;fillColor=default;" parent="WIyWlLk6GJQsqaUBKTNV-1" vertex="1">
          <mxGeometry x="-2775" y="1192.5" width="120" height="40" as="geometry" />
        </mxCell>
        <mxCell id="sTVolGUjrKoJvCUlZHto-114" style="edgeStyle=orthogonalEdgeStyle;rounded=0;orthogonalLoop=1;jettySize=auto;html=1;exitX=0.5;exitY=1;exitDx=0;exitDy=0;fontFamily=Helvetica;fontSize=12;fontColor=default;" parent="WIyWlLk6GJQsqaUBKTNV-1" source="sTVolGUjrKoJvCUlZHto-110" target="sTVolGUjrKoJvCUlZHto-102" edge="1">
          <mxGeometry relative="1" as="geometry" />
        </mxCell>
        <mxCell id="sTVolGUjrKoJvCUlZHto-115" style="edgeStyle=orthogonalEdgeStyle;rounded=0;orthogonalLoop=1;jettySize=auto;html=1;exitX=0.5;exitY=1;exitDx=0;exitDy=0;fontFamily=Helvetica;fontSize=12;fontColor=default;" parent="WIyWlLk6GJQsqaUBKTNV-1" source="sTVolGUjrKoJvCUlZHto-110" target="sTVolGUjrKoJvCUlZHto-100" edge="1">
          <mxGeometry relative="1" as="geometry" />
        </mxCell>
        <mxCell id="sTVolGUjrKoJvCUlZHto-110" value="ui-&amp;gt;mainTabWidget-&amp;gt;currentIndex()" style="rhombus;whiteSpace=wrap;html=1;rounded=0;strokeColor=#2D7600;align=center;verticalAlign=middle;fontFamily=Helvetica;fontSize=14;fillColor=#60a917;fontColor=#ffffff;" parent="WIyWlLk6GJQsqaUBKTNV-1" vertex="1">
          <mxGeometry x="-2802.5" y="1390" width="175" height="80" as="geometry" />
        </mxCell>
        <mxCell id="sTVolGUjrKoJvCUlZHto-123" style="edgeStyle=orthogonalEdgeStyle;rounded=0;orthogonalLoop=1;jettySize=auto;html=1;exitX=0.5;exitY=1;exitDx=0;exitDy=0;fontFamily=Helvetica;fontSize=12;fontColor=default;" parent="WIyWlLk6GJQsqaUBKTNV-1" source="sTVolGUjrKoJvCUlZHto-116" target="sTVolGUjrKoJvCUlZHto-119" edge="1">
          <mxGeometry relative="1" as="geometry" />
        </mxCell>
        <mxCell id="sTVolGUjrKoJvCUlZHto-116" value="updateCurrentFlow" style="rounded=1;whiteSpace=wrap;html=1;fontSize=14;glass=0;strokeWidth=1;shadow=0;fillColor=#60a917;strokeColor=#2D7600;fontColor=#ffffff;" parent="WIyWlLk6GJQsqaUBKTNV-1" vertex="1">
          <mxGeometry x="-2785" y="1715" width="140" height="40" as="geometry" />
        </mxCell>
        <mxCell id="sTVolGUjrKoJvCUlZHto-125" style="edgeStyle=orthogonalEdgeStyle;rounded=0;orthogonalLoop=1;jettySize=auto;html=1;exitX=0.5;exitY=1;exitDx=0;exitDy=0;fontFamily=Helvetica;fontSize=12;fontColor=default;" parent="WIyWlLk6GJQsqaUBKTNV-1" source="sTVolGUjrKoJvCUlZHto-119" target="sTVolGUjrKoJvCUlZHto-124" edge="1">
          <mxGeometry relative="1" as="geometry" />
        </mxCell>
        <mxCell id="sTVolGUjrKoJvCUlZHto-119" value="QxLibraryManager::getInstance()-&amp;gt;addNewFlow" style="rounded=1;whiteSpace=wrap;html=1;fontSize=14;glass=0;strokeWidth=1;shadow=0;fillColor=#60a917;strokeColor=#2D7600;fontColor=#ffffff;" parent="WIyWlLk6GJQsqaUBKTNV-1" vertex="1">
          <mxGeometry x="-2827.5" y="1860" width="225" height="40" as="geometry" />
        </mxCell>
        <mxCell id="sTVolGUjrKoJvCUlZHto-120" value="单例，控制layout数据结构与文件io" style="shape=callout;whiteSpace=wrap;html=1;perimeter=calloutPerimeter;rounded=0;strokeColor=default;align=center;verticalAlign=middle;fontFamily=Helvetica;fontSize=14;fontColor=default;fillColor=default;position2=1;" parent="WIyWlLk6GJQsqaUBKTNV-1" vertex="1">
          <mxGeometry x="-1925" y="500" width="110" height="80" as="geometry" />
        </mxCell>
        <mxCell id="sTVolGUjrKoJvCUlZHto-121" value="单例，控制Flow/construction/...数据结构与文件io" style="shape=callout;whiteSpace=wrap;html=1;perimeter=calloutPerimeter;rounded=0;strokeColor=default;align=center;verticalAlign=middle;fontFamily=Helvetica;fontSize=14;fontColor=default;fillColor=default;position2=0;" parent="WIyWlLk6GJQsqaUBKTNV-1" vertex="1">
          <mxGeometry x="-2370" y="2065" width="150" height="90" as="geometry" />
        </mxCell>
        <mxCell id="sTVolGUjrKoJvCUlZHto-127" style="edgeStyle=orthogonalEdgeStyle;rounded=0;orthogonalLoop=1;jettySize=auto;html=1;exitX=0.5;exitY=1;exitDx=0;exitDy=0;fontFamily=Helvetica;fontSize=12;fontColor=default;" parent="WIyWlLk6GJQsqaUBKTNV-1" source="sTVolGUjrKoJvCUlZHto-124" target="sTVolGUjrKoJvCUlZHto-126" edge="1">
          <mxGeometry relative="1" as="geometry" />
        </mxCell>
        <mxCell id="sTVolGUjrKoJvCUlZHto-124" value="&lt;div&gt;&lt;span style=&quot;background-color: initial;&quot;&gt;QList&amp;lt;QxFlow*&amp;gt; m_flowList;&lt;/span&gt;&lt;br&gt;&lt;/div&gt;&lt;div&gt;QList&amp;lt;QString&amp;gt; m_flowNameList;&lt;/div&gt;&lt;div&gt;QList&amp;lt;QString&amp;gt; m_constructionList;&lt;/div&gt;&lt;div&gt;QList&amp;lt;QxStepTemplateBase*&amp;gt; m_processStepList;&lt;/div&gt;&lt;div&gt;QList&amp;lt;QxStepTemplateBase*&amp;gt; m_userStepList;&lt;/div&gt;&lt;div&gt;QList&amp;lt;QxModule*&amp;gt;&amp;nbsp; m_moduleList;&lt;/div&gt;" style="rounded=1;whiteSpace=wrap;html=1;fontSize=14;glass=0;strokeWidth=1;shadow=0;fillColor=#60a917;strokeColor=#2D7600;fontColor=#ffffff;" parent="WIyWlLk6GJQsqaUBKTNV-1" vertex="1">
          <mxGeometry x="-2730" y="1950" width="335" height="120" as="geometry" />
        </mxCell>
        <mxCell id="sTVolGUjrKoJvCUlZHto-126" value="saveNewFlow" style="rounded=1;whiteSpace=wrap;html=1;fontSize=14;glass=0;strokeWidth=1;shadow=0;fillColor=#60a917;strokeColor=#2D7600;fontColor=#ffffff;" parent="WIyWlLk6GJQsqaUBKTNV-1" vertex="1">
          <mxGeometry x="-2778.75" y="2140" width="127.5" height="40" as="geometry" />
        </mxCell>
        <mxCell id="sTVolGUjrKoJvCUlZHto-128" value="写数据结构" style="shape=callout;whiteSpace=wrap;html=1;perimeter=calloutPerimeter;rounded=0;strokeColor=default;align=center;verticalAlign=middle;fontFamily=Helvetica;fontSize=14;fontColor=default;fillColor=default;position2=0;" parent="WIyWlLk6GJQsqaUBKTNV-1" vertex="1">
          <mxGeometry x="-2395" y="1950" width="105" height="70" as="geometry" />
        </mxCell>
        <mxCell id="sTVolGUjrKoJvCUlZHto-129" value="写文件&lt;br&gt;&quot;/meda_home/tcad0668/.process/flowlibrary&quot;" style="shape=callout;whiteSpace=wrap;html=1;perimeter=calloutPerimeter;rounded=0;strokeColor=default;align=center;verticalAlign=middle;fontFamily=Helvetica;fontSize=14;fontColor=default;fillColor=default;position2=1;" parent="WIyWlLk6GJQsqaUBKTNV-1" vertex="1">
          <mxGeometry x="-3070" y="2090" width="290" height="70" as="geometry" />
        </mxCell>
        <mxCell id="sTVolGUjrKoJvCUlZHto-130" value="与pe区别：pi每次修改都会自动与文件同步，而pe则是以用户可知的save/load方式控制文件io" style="shape=callout;whiteSpace=wrap;html=1;perimeter=calloutPerimeter;rounded=0;strokeColor=default;align=center;verticalAlign=middle;fontFamily=Helvetica;fontSize=14;fontColor=default;fillColor=default;position2=1;" parent="WIyWlLk6GJQsqaUBKTNV-1" vertex="1">
          <mxGeometry x="-3150" y="1850" width="190" height="100" as="geometry" />
        </mxCell>
        <mxCell id="sTVolGUjrKoJvCUlZHto-132" value="Construction widget控件：&lt;br&gt;1. 控制flow/layout/...的widget同步&lt;br&gt;2. run step/flow" style="shape=callout;whiteSpace=wrap;html=1;perimeter=calloutPerimeter;rounded=0;strokeColor=default;align=center;verticalAlign=middle;fontFamily=Helvetica;fontSize=14;fontColor=default;fillColor=default;position2=0;base=10;" parent="WIyWlLk6GJQsqaUBKTNV-1" vertex="1">
          <mxGeometry x="-1635" y="1950" width="220" height="90" as="geometry" />
        </mxCell>
        <mxCell id="sTVolGUjrKoJvCUlZHto-134" value="读取tcl，加载flow" style="shape=callout;whiteSpace=wrap;html=1;perimeter=calloutPerimeter;rounded=0;strokeColor=default;align=center;verticalAlign=middle;fontFamily=Helvetica;fontSize=14;fontColor=default;fillColor=default;position2=0;direction=north;" parent="WIyWlLk6GJQsqaUBKTNV-1" vertex="1">
          <mxGeometry x="-2210" y="1340" width="165" height="30" as="geometry" />
        </mxCell>
        <mxCell id="sTVolGUjrKoJvCUlZHto-135" value="加载已有flow到widget" style="shape=callout;whiteSpace=wrap;html=1;perimeter=calloutPerimeter;rounded=0;strokeColor=default;align=center;verticalAlign=middle;fontFamily=Helvetica;fontSize=14;fontColor=default;fillColor=default;position2=0.4;direction=west;" parent="WIyWlLk6GJQsqaUBKTNV-1" vertex="1">
          <mxGeometry x="-2385" y="1090" width="150" height="90" as="geometry" />
        </mxCell>
        <mxCell id="sTVolGUjrKoJvCUlZHto-140" style="edgeStyle=orthogonalEdgeStyle;rounded=0;orthogonalLoop=1;jettySize=auto;html=1;exitX=0.5;exitY=1;exitDx=0;exitDy=0;entryX=0.5;entryY=0;entryDx=0;entryDy=0;fontFamily=Helvetica;fontSize=12;fontColor=default;" parent="WIyWlLk6GJQsqaUBKTNV-1" source="sTVolGUjrKoJvCUlZHto-137" target="sTVolGUjrKoJvCUlZHto-139" edge="1">
          <mxGeometry relative="1" as="geometry" />
        </mxCell>
        <mxCell id="sTVolGUjrKoJvCUlZHto-137" value="addNewItem" style="rounded=1;whiteSpace=wrap;html=1;fontSize=14;glass=0;strokeWidth=1;shadow=0;fillColor=#60a917;strokeColor=#2D7600;fontColor=#ffffff;" parent="WIyWlLk6GJQsqaUBKTNV-1" vertex="1">
          <mxGeometry x="-2175" y="2000" width="130" height="40" as="geometry" />
        </mxCell>
        <mxCell id="sTVolGUjrKoJvCUlZHto-139" value="dragNewFlow" style="rounded=1;whiteSpace=wrap;html=1;fontSize=14;glass=0;strokeWidth=1;shadow=0;fillColor=#60a917;strokeColor=#2D7600;fontColor=#ffffff;" parent="WIyWlLk6GJQsqaUBKTNV-1" vertex="1">
          <mxGeometry x="-2175" y="2065" width="130" height="40" as="geometry" />
        </mxCell>
        <mxCell id="sTVolGUjrKoJvCUlZHto-143" style="edgeStyle=orthogonalEdgeStyle;rounded=0;orthogonalLoop=1;jettySize=auto;html=1;entryX=0.5;entryY=0;entryDx=0;entryDy=0;fontFamily=Helvetica;fontSize=12;fontColor=default;" parent="WIyWlLk6GJQsqaUBKTNV-1" source="sTVolGUjrKoJvCUlZHto-141" target="sTVolGUjrKoJvCUlZHto-142" edge="1">
          <mxGeometry relative="1" as="geometry" />
        </mxCell>
        <mxCell id="sTVolGUjrKoJvCUlZHto-141" value="runConStep/runConFlow clicked" style="rounded=1;whiteSpace=wrap;html=1;fontSize=14;glass=0;strokeWidth=1;shadow=0;" parent="WIyWlLk6GJQsqaUBKTNV-1" vertex="1">
          <mxGeometry x="-1945" y="2000" width="180" height="40" as="geometry" />
        </mxCell>
        <mxCell id="sTVolGUjrKoJvCUlZHto-149" style="edgeStyle=orthogonalEdgeStyle;rounded=0;orthogonalLoop=1;jettySize=auto;html=1;entryX=0.5;entryY=0;entryDx=0;entryDy=0;fontFamily=Helvetica;fontSize=12;fontColor=default;" parent="WIyWlLk6GJQsqaUBKTNV-1" source="sTVolGUjrKoJvCUlZHto-142" target="sTVolGUjrKoJvCUlZHto-145" edge="1">
          <mxGeometry relative="1" as="geometry" />
        </mxCell>
        <mxCell id="sTVolGUjrKoJvCUlZHto-142" value="on_runConFlow_clicked" style="rounded=1;whiteSpace=wrap;html=1;fontSize=14;glass=0;strokeWidth=1;shadow=0;fillColor=#60a917;strokeColor=#2D7600;fontColor=#ffffff;" parent="WIyWlLk6GJQsqaUBKTNV-1" vertex="1">
          <mxGeometry x="-1945" y="2065" width="180" height="40" as="geometry" />
        </mxCell>
        <mxCell id="sTVolGUjrKoJvCUlZHto-152" style="edgeStyle=orthogonalEdgeStyle;rounded=0;orthogonalLoop=1;jettySize=auto;html=1;entryX=0.5;entryY=0;entryDx=0;entryDy=0;fontFamily=Helvetica;fontSize=12;fontColor=default;" parent="WIyWlLk6GJQsqaUBKTNV-1" source="sTVolGUjrKoJvCUlZHto-145" target="sTVolGUjrKoJvCUlZHto-147" edge="1">
          <mxGeometry relative="1" as="geometry" />
        </mxCell>
        <mxCell id="sTVolGUjrKoJvCUlZHto-153" style="edgeStyle=orthogonalEdgeStyle;rounded=0;orthogonalLoop=1;jettySize=auto;html=1;exitX=0.5;exitY=1;exitDx=0;exitDy=0;fontFamily=Helvetica;fontSize=12;fontColor=default;" parent="WIyWlLk6GJQsqaUBKTNV-1" source="sTVolGUjrKoJvCUlZHto-145" target="sTVolGUjrKoJvCUlZHto-154" edge="1">
          <mxGeometry relative="1" as="geometry">
            <mxPoint x="-1855.1428571428569" y="2250" as="targetPoint" />
          </mxGeometry>
        </mxCell>
        <mxCell id="sTVolGUjrKoJvCUlZHto-145" value="initRunStepInfo" style="rounded=1;whiteSpace=wrap;html=1;fontSize=14;glass=0;strokeWidth=1;shadow=0;fillColor=#60a917;strokeColor=#2D7600;fontColor=#ffffff;" parent="WIyWlLk6GJQsqaUBKTNV-1" vertex="1">
          <mxGeometry x="-1945" y="2140" width="180" height="40" as="geometry" />
        </mxCell>
        <mxCell id="sTVolGUjrKoJvCUlZHto-158" style="edgeStyle=orthogonalEdgeStyle;rounded=0;orthogonalLoop=1;jettySize=auto;html=1;entryX=1;entryY=0.5;entryDx=0;entryDy=0;fontFamily=Helvetica;fontSize=12;fontColor=default;exitX=0.5;exitY=1;exitDx=0;exitDy=0;" parent="WIyWlLk6GJQsqaUBKTNV-1" source="sTVolGUjrKoJvCUlZHto-147" target="sTVolGUjrKoJvCUlZHto-154" edge="1">
          <mxGeometry relative="1" as="geometry" />
        </mxCell>
        <mxCell id="sTVolGUjrKoJvCUlZHto-147" value="getConstructionFlow" style="rounded=1;whiteSpace=wrap;html=1;fontSize=14;glass=0;strokeWidth=1;shadow=0;fillColor=#60a917;strokeColor=#2D7600;fontColor=#ffffff;" parent="WIyWlLk6GJQsqaUBKTNV-1" vertex="1">
          <mxGeometry x="-1715" y="2180" width="180" height="40" as="geometry" />
        </mxCell>
        <mxCell id="sTVolGUjrKoJvCUlZHto-150" value="Construction object类&lt;br&gt;维护construction实际存储" style="shape=callout;whiteSpace=wrap;html=1;perimeter=calloutPerimeter;rounded=0;strokeColor=default;align=center;verticalAlign=middle;fontFamily=Helvetica;fontSize=14;fontColor=default;fillColor=default;position2=0;base=10;" parent="WIyWlLk6GJQsqaUBKTNV-1" vertex="1">
          <mxGeometry x="-1465" y="2080" width="220" height="90" as="geometry" />
        </mxCell>
        <mxCell id="sTVolGUjrKoJvCUlZHto-160" style="edgeStyle=orthogonalEdgeStyle;rounded=0;orthogonalLoop=1;jettySize=auto;html=1;exitX=0.5;exitY=1;exitDx=0;exitDy=0;entryX=0.5;entryY=0;entryDx=0;entryDy=0;fontFamily=Helvetica;fontSize=12;fontColor=default;" parent="WIyWlLk6GJQsqaUBKTNV-1" source="sTVolGUjrKoJvCUlZHto-154" target="sTVolGUjrKoJvCUlZHto-159" edge="1">
          <mxGeometry relative="1" as="geometry" />
        </mxCell>
        <mxCell id="sTVolGUjrKoJvCUlZHto-154" value="StepTemplateType_Meas_Save_3D&lt;br&gt;特殊处理" style="rounded=1;whiteSpace=wrap;html=1;fontSize=14;glass=0;strokeWidth=1;shadow=0;fillColor=#60a917;strokeColor=#2D7600;fontColor=#ffffff;" parent="WIyWlLk6GJQsqaUBKTNV-1" vertex="1">
          <mxGeometry x="-1985" y="2220" width="260" height="50" as="geometry" />
        </mxCell>
        <mxCell id="sTVolGUjrKoJvCUlZHto-163" style="edgeStyle=orthogonalEdgeStyle;rounded=0;orthogonalLoop=1;jettySize=auto;html=1;exitX=0.5;exitY=1;exitDx=0;exitDy=0;entryX=0.5;entryY=0;entryDx=0;entryDy=0;fontFamily=Helvetica;fontSize=12;fontColor=default;" parent="WIyWlLk6GJQsqaUBKTNV-1" source="sTVolGUjrKoJvCUlZHto-159" target="sTVolGUjrKoJvCUlZHto-161" edge="1">
          <mxGeometry relative="1" as="geometry" />
        </mxCell>
        <mxCell id="sTVolGUjrKoJvCUlZHto-159" value="运行前检查" style="rounded=1;whiteSpace=wrap;html=1;fontSize=14;glass=0;strokeWidth=1;shadow=0;fillColor=#60a917;strokeColor=#2D7600;fontColor=#ffffff;" parent="WIyWlLk6GJQsqaUBKTNV-1" vertex="1">
          <mxGeometry x="-1920" y="2300" width="130" height="40" as="geometry" />
        </mxCell>
        <mxCell id="sTVolGUjrKoJvCUlZHto-170" style="edgeStyle=orthogonalEdgeStyle;rounded=0;orthogonalLoop=1;jettySize=auto;html=1;fontFamily=Helvetica;fontSize=12;fontColor=default;" parent="WIyWlLk6GJQsqaUBKTNV-1" source="sTVolGUjrKoJvCUlZHto-161" target="sTVolGUjrKoJvCUlZHto-169" edge="1">
          <mxGeometry relative="1" as="geometry" />
        </mxCell>
        <mxCell id="sTVolGUjrKoJvCUlZHto-161" value="m_stepWork-&amp;gt;setFlow(current_flow);" style="rounded=1;whiteSpace=wrap;html=1;fontSize=14;glass=0;strokeWidth=1;shadow=0;fillColor=#60a917;strokeColor=#2D7600;fontColor=#ffffff;" parent="WIyWlLk6GJQsqaUBKTNV-1" vertex="1">
          <mxGeometry x="-1932.5" y="2360" width="155" height="40" as="geometry" />
        </mxCell>
        <mxCell id="sTVolGUjrKoJvCUlZHto-164" value="class QxStepWork" style="rounded=0;whiteSpace=wrap;html=1;verticalAlign=top;align=left;fillColor=#ffcccc;strokeColor=#36393d;fontSize=14;" parent="WIyWlLk6GJQsqaUBKTNV-1" vertex="1">
          <mxGeometry x="-1735" y="2310" width="270" height="450" as="geometry" />
        </mxCell>
        <mxCell id="sTVolGUjrKoJvCUlZHto-172" style="edgeStyle=orthogonalEdgeStyle;rounded=0;orthogonalLoop=1;jettySize=auto;html=1;fontFamily=Helvetica;fontSize=12;fontColor=default;" parent="WIyWlLk6GJQsqaUBKTNV-1" source="sTVolGUjrKoJvCUlZHto-167" target="sTVolGUjrKoJvCUlZHto-168" edge="1">
          <mxGeometry relative="1" as="geometry" />
        </mxCell>
        <mxCell id="sTVolGUjrKoJvCUlZHto-191" style="edgeStyle=orthogonalEdgeStyle;rounded=0;orthogonalLoop=1;jettySize=auto;html=1;fontFamily=Helvetica;fontSize=12;fontColor=default;" parent="WIyWlLk6GJQsqaUBKTNV-1" source="sTVolGUjrKoJvCUlZHto-167" target="sTVolGUjrKoJvCUlZHto-188" edge="1">
          <mxGeometry relative="1" as="geometry" />
        </mxCell>
        <mxCell id="sTVolGUjrKoJvCUlZHto-167" value="m_stepWork-&amp;gt;setStartStep(m_startStep);" style="rounded=1;whiteSpace=wrap;html=1;fontSize=14;glass=0;strokeWidth=1;shadow=0;fillColor=#60a917;strokeColor=#2D7600;fontColor=#ffffff;" parent="WIyWlLk6GJQsqaUBKTNV-1" vertex="1">
          <mxGeometry x="-1948.75" y="2570" width="187.5" height="40" as="geometry" />
        </mxCell>
        <mxCell id="sTVolGUjrKoJvCUlZHto-186" style="edgeStyle=orthogonalEdgeStyle;rounded=0;orthogonalLoop=1;jettySize=auto;html=1;entryX=0.5;entryY=0;entryDx=0;entryDy=0;fontFamily=Helvetica;fontSize=12;fontColor=default;" parent="WIyWlLk6GJQsqaUBKTNV-1" source="sTVolGUjrKoJvCUlZHto-168" target="sTVolGUjrKoJvCUlZHto-185" edge="1">
          <mxGeometry relative="1" as="geometry" />
        </mxCell>
        <mxCell id="sTVolGUjrKoJvCUlZHto-192" style="edgeStyle=orthogonalEdgeStyle;rounded=0;orthogonalLoop=1;jettySize=auto;html=1;entryX=0;entryY=0.75;entryDx=0;entryDy=0;fontFamily=Helvetica;fontSize=12;fontColor=default;" parent="WIyWlLk6GJQsqaUBKTNV-1" source="sTVolGUjrKoJvCUlZHto-168" target="sTVolGUjrKoJvCUlZHto-188" edge="1">
          <mxGeometry relative="1" as="geometry" />
        </mxCell>
        <mxCell id="sTVolGUjrKoJvCUlZHto-168" value="m_stepWork-&amp;gt;setBreakSteps(m_breakList);" style="rounded=1;whiteSpace=wrap;html=1;fontSize=14;glass=0;strokeWidth=1;shadow=0;fillColor=#60a917;strokeColor=#2D7600;fontColor=#ffffff;" parent="WIyWlLk6GJQsqaUBKTNV-1" vertex="1">
          <mxGeometry x="-1953.75" y="2640" width="197.5" height="40" as="geometry" />
        </mxCell>
        <mxCell id="sTVolGUjrKoJvCUlZHto-179" style="edgeStyle=orthogonalEdgeStyle;rounded=0;orthogonalLoop=1;jettySize=auto;html=1;fontFamily=Helvetica;fontSize=12;fontColor=default;" parent="WIyWlLk6GJQsqaUBKTNV-1" source="sTVolGUjrKoJvCUlZHto-169" target="sTVolGUjrKoJvCUlZHto-177" edge="1">
          <mxGeometry relative="1" as="geometry" />
        </mxCell>
        <mxCell id="sTVolGUjrKoJvCUlZHto-169" value="参数合法性检测;" style="rounded=1;whiteSpace=wrap;html=1;fontSize=14;glass=0;strokeWidth=1;shadow=0;fillColor=#60a917;strokeColor=#2D7600;fontColor=#ffffff;" parent="WIyWlLk6GJQsqaUBKTNV-1" vertex="1">
          <mxGeometry x="-1920" y="2430" width="130" height="40" as="geometry" />
        </mxCell>
        <mxCell id="sTVolGUjrKoJvCUlZHto-180" style="edgeStyle=orthogonalEdgeStyle;rounded=0;orthogonalLoop=1;jettySize=auto;html=1;fontFamily=Helvetica;fontSize=12;fontColor=default;" parent="WIyWlLk6GJQsqaUBKTNV-1" source="sTVolGUjrKoJvCUlZHto-177" target="sTVolGUjrKoJvCUlZHto-167" edge="1">
          <mxGeometry relative="1" as="geometry" />
        </mxCell>
        <mxCell id="sTVolGUjrKoJvCUlZHto-177" value="ui更新（treeWidget）" style="rounded=1;whiteSpace=wrap;html=1;fontSize=14;glass=0;strokeWidth=1;shadow=0;fillColor=#60a917;strokeColor=#2D7600;fontColor=#ffffff;" parent="WIyWlLk6GJQsqaUBKTNV-1" vertex="1">
          <mxGeometry x="-1920" y="2500" width="130" height="40" as="geometry" />
        </mxCell>
        <mxCell id="sTVolGUjrKoJvCUlZHto-184" value="Step运行类，用来：&lt;br&gt;1. 生成step线程执行时参数（类似pe AppThread类）&lt;br&gt;2. step thread执行" style="shape=callout;whiteSpace=wrap;html=1;perimeter=calloutPerimeter;rounded=0;strokeColor=default;align=center;verticalAlign=middle;fontFamily=Helvetica;fontSize=14;fontColor=default;fillColor=default;position2=0;base=10;" parent="WIyWlLk6GJQsqaUBKTNV-1" vertex="1">
          <mxGeometry x="-1465" y="2270" width="220" height="110" as="geometry" />
        </mxCell>
        <mxCell id="sTVolGUjrKoJvCUlZHto-197" style="edgeStyle=orthogonalEdgeStyle;rounded=0;orthogonalLoop=1;jettySize=auto;html=1;entryX=0.5;entryY=0;entryDx=0;entryDy=0;fontFamily=Helvetica;fontSize=12;fontColor=default;" parent="WIyWlLk6GJQsqaUBKTNV-1" source="sTVolGUjrKoJvCUlZHto-185" target="sTVolGUjrKoJvCUlZHto-194" edge="1">
          <mxGeometry relative="1" as="geometry">
            <Array as="points">
              <mxPoint x="-1625" y="2745" />
              <mxPoint x="-1625" y="2500" />
              <mxPoint x="-1540" y="2500" />
            </Array>
          </mxGeometry>
        </mxCell>
        <mxCell id="sTVolGUjrKoJvCUlZHto-185" value="runConstructionFlowSignal/&lt;br&gt;runConstructionStepSignal" style="rounded=1;whiteSpace=wrap;html=1;fontSize=14;glass=0;strokeWidth=1;shadow=0;" parent="WIyWlLk6GJQsqaUBKTNV-1" vertex="1">
          <mxGeometry x="-1945" y="2720" width="180" height="50" as="geometry" />
        </mxCell>
        <mxCell id="sTVolGUjrKoJvCUlZHto-187" value="Run Step/Flow" style="text;html=1;strokeColor=none;fillColor=none;align=center;verticalAlign=middle;whiteSpace=wrap;rounded=0;fontSize=22;fontFamily=Helvetica;fontColor=default;" parent="WIyWlLk6GJQsqaUBKTNV-1" vertex="1">
          <mxGeometry x="-1950" y="1925" width="190" height="50" as="geometry" />
        </mxCell>
        <mxCell id="sTVolGUjrKoJvCUlZHto-188" value="&lt;br&gt;flow/&lt;br&gt;start/&lt;br&gt;break/&lt;br&gt;...&lt;br&gt;参数更新" style="rounded=1;whiteSpace=wrap;html=1;fontSize=14;glass=0;strokeWidth=1;shadow=0;fillColor=#0050ef;strokeColor=#001DBC;fontColor=#ffffff;verticalAlign=middle;horizontal=1;" parent="WIyWlLk6GJQsqaUBKTNV-1" vertex="1">
          <mxGeometry x="-1702.5" y="2355" width="37.5" height="330" as="geometry" />
        </mxCell>
        <mxCell id="sTVolGUjrKoJvCUlZHto-190" style="edgeStyle=orthogonalEdgeStyle;rounded=0;orthogonalLoop=1;jettySize=auto;html=1;entryX=0.025;entryY=0.16;entryDx=0;entryDy=0;entryPerimeter=0;fontFamily=Helvetica;fontSize=12;fontColor=default;" parent="WIyWlLk6GJQsqaUBKTNV-1" source="sTVolGUjrKoJvCUlZHto-161" target="sTVolGUjrKoJvCUlZHto-188" edge="1">
          <mxGeometry relative="1" as="geometry" />
        </mxCell>
        <mxCell id="sTVolGUjrKoJvCUlZHto-203" style="edgeStyle=orthogonalEdgeStyle;rounded=0;orthogonalLoop=1;jettySize=auto;html=1;fontFamily=Helvetica;fontSize=12;fontColor=default;" parent="WIyWlLk6GJQsqaUBKTNV-1" source="sTVolGUjrKoJvCUlZHto-194" target="sTVolGUjrKoJvCUlZHto-200" edge="1">
          <mxGeometry relative="1" as="geometry" />
        </mxCell>
        <mxCell id="sTVolGUjrKoJvCUlZHto-194" value="doFlowWorkSlot/&lt;br&gt;doStepWorkSlot" style="rounded=1;whiteSpace=wrap;html=1;fontSize=14;glass=0;strokeWidth=1;shadow=0;fillColor=#0050ef;strokeColor=#001DBC;fontColor=#ffffff;" parent="WIyWlLk6GJQsqaUBKTNV-1" vertex="1">
          <mxGeometry x="-1601.25" y="2520" width="122.5" height="50" as="geometry" />
        </mxCell>
        <mxCell id="sTVolGUjrKoJvCUlZHto-195" value="&lt;p style=&quot;margin-top: 0pt; margin-bottom: 0pt; margin-left: 0in; direction: ltr; unicode-bidi: embed; font-size: 14px;&quot;&gt;main thread&lt;/p&gt;" style="rounded=0;whiteSpace=wrap;html=1;fillColor=#60a917;fontColor=#ffffff;strokeColor=#2D7600;fontSize=14;" parent="WIyWlLk6GJQsqaUBKTNV-1" vertex="1">
          <mxGeometry x="-1367.5" y="1950" width="120" height="30" as="geometry" />
        </mxCell>
        <mxCell id="sTVolGUjrKoJvCUlZHto-196" value="&lt;p style=&quot;margin-top: 0pt; margin-bottom: 0pt; margin-left: 0in; direction: ltr; unicode-bidi: embed; font-size: 14px;&quot;&gt;Step Work thread&lt;/p&gt;" style="rounded=0;whiteSpace=wrap;html=1;fillColor=#0050ef;fontColor=#ffffff;strokeColor=#001DBC;fontSize=14;" parent="WIyWlLk6GJQsqaUBKTNV-1" vertex="1">
          <mxGeometry x="-1367.5" y="2010" width="120" height="30" as="geometry" />
        </mxCell>
        <mxCell id="sTVolGUjrKoJvCUlZHto-204" style="edgeStyle=orthogonalEdgeStyle;rounded=0;orthogonalLoop=1;jettySize=auto;html=1;entryX=0.5;entryY=0;entryDx=0;entryDy=0;fontFamily=Helvetica;fontSize=12;fontColor=default;" parent="WIyWlLk6GJQsqaUBKTNV-1" source="sTVolGUjrKoJvCUlZHto-200" target="sTVolGUjrKoJvCUlZHto-201" edge="1">
          <mxGeometry relative="1" as="geometry" />
        </mxCell>
        <mxCell id="sTVolGUjrKoJvCUlZHto-200" value="step嵌套循环" style="rounded=1;whiteSpace=wrap;html=1;fontSize=14;glass=0;strokeWidth=1;shadow=0;fillColor=#0050ef;strokeColor=#001DBC;fontColor=#ffffff;" parent="WIyWlLk6GJQsqaUBKTNV-1" vertex="1">
          <mxGeometry x="-1601.25" y="2600" width="122.5" height="30" as="geometry" />
        </mxCell>
        <mxCell id="sTVolGUjrKoJvCUlZHto-208" style="edgeStyle=orthogonalEdgeStyle;rounded=0;orthogonalLoop=1;jettySize=auto;html=1;exitX=1;exitY=0.5;exitDx=0;exitDy=0;entryX=0.5;entryY=0;entryDx=0;entryDy=0;fontFamily=Helvetica;fontSize=12;fontColor=default;" parent="WIyWlLk6GJQsqaUBKTNV-1" source="sTVolGUjrKoJvCUlZHto-201" target="sTVolGUjrKoJvCUlZHto-207" edge="1">
          <mxGeometry relative="1" as="geometry" />
        </mxCell>
        <mxCell id="sTVolGUjrKoJvCUlZHto-201" value="m_curStep-&amp;gt;Apply();" style="rounded=1;whiteSpace=wrap;html=1;fontSize=14;glass=0;strokeWidth=1;shadow=0;fillColor=#0050ef;strokeColor=#001DBC;fontColor=#ffffff;" parent="WIyWlLk6GJQsqaUBKTNV-1" vertex="1">
          <mxGeometry x="-1615" y="2660" width="150" height="30" as="geometry" />
        </mxCell>
        <mxCell id="sTVolGUjrKoJvCUlZHto-205" value="" style="shape=image;verticalLabelPosition=bottom;labelBackgroundColor=default;verticalAlign=top;aspect=fixed;imageAspect=0;image=data:image/png,iVBORw0KGgoAAAANSUhEUgAAAgAAAAdQCAYAAACqzvOqAAAgAElEQVR4AeydTbbkqLKs96RrHPWGdFeNphrZzXa+Rd1rmbY9HIQipAgJ/xpaOP6HBIZjwc5T5+vr6+sXD3MABsAAGAADYKAcBr5+/c///A8PcwAGFsYAhb1cYeeHHT9uZzAAAYAAQQBXxwAEAAIABsBAggEIwOrFn++D4CQbf+bXAT78igQDa2MAAsAByQG5OgYgAPz6AwNgIMEABGD14s/3QXCSjc8vu7V/2bG+rO8MBiAAVz8gY/Huve+WX7OPYnu2Wf0o/2wO/M4hKxEb9Pk1CAbAwBdF+5yCe9RBlq3Ps7os7qj3bHnOzn/ku1bL1daGhzkAA2AgYKD/q7Bakbza97aF6r2T21yO/m6T3FrJ8s/6mV/zl95jMp1y036eZPr6IHMIgAEw8H8Y6B8yFO7PFu62QL01cJvL0d9tTY59+ff0zf6sTblpP4sjraHWn5biDwbAwP9hoH/IULg/W7jbAvXWwG0uR3+3uaxDQf5uc3nkp1i1MU562s/iqM1/Wxse5gAMgIGAgf4hQ+H+bOFuC+Vr4P2e7P4q/NJ5zMjW/OLTyyF9zOd65M/iSGsT15T+I86ZE+akGAa+HzIU688Xa61BA6JktdKpbXqX5afWbS7HOLe5rDxqn7UpnvYz+GrrxsMcgAEwEDDweMhQpD9TpLN5b4sV9c/qtPDK53l6cvN91qZxaD+PJ609LQcAGAADhoHHA4aC/fmC7Wtgi/X7MG4692ly5uc+ipFfZpNOPoqRvrU9m/Tui3wNLGltaCn+YAAMGAYeDxKK9jWK9jvXoQHineMx1nsxZhv+G4FDz2EABkpjgMLPYfT9mp/5eO/h/I75psiXLvKQPv4NTA8DEIB3FOArj9EOhyu/H+/2OiGBAEAAwAAYSDBA8eeAef2AYQ6vPYfJxu/9IkDPr0UwUAcDEAAOr2sfXqzP6+sDAeDXHxgAAwkGIAAcMK8fMMzhtecw2fj8yqvzK4+1Zq17GIAAcHhd+/BifV5fHwgAv/7AABhIMAAB4IB5/YBhDq89h8nG7/0iQM+vRTBQBwOwIoojGAADYAAMgIGCGGDR6y36/4Ph12H4rDVrDQbAQA8DEAAIABiohwHWnDUHA2AAZtRjRovq269/PRQACgAYAANgoDAGWPxai6/Dnz8D1Fp39jnrDQbAwAMGHhSL/vLlO//88ocEUAjYD2AADIAB/gRQiPD4wS+ZIkARAANgAAwUxQALX2/huf6vt+bsc9YcDICBBww8KAr9Iq767RAACkFV7PPdYB8MGAaYDJuMIuQHAlBvzdnnrDkYAAMPGHhQFDkEK383BIBCUBn/fDv4BwP/hwEmot5mgADUW3P2OWsOBsDAAwYeFNwALP+/jIAAUAjY92AADICB5Q87QP4IcgjA45yAE+YEDICBchgo98HccPz3nwJm3Sl2YAAMgIHiGAAA9QDADUC9NWefs+ZgAAw8YOBBwS/k5f8sAgGgELDvwQAYAAPLH3aA/BHkEIDHOQEnzAkYAAPlMFDug7nh4N8AgAGIPxgAA2AAxleRAHEDAO4r4p5vBvdgIGCACQkTUoAVQgDqrTn7nDUHA2DgAQMPigIHYPVvhgBQCKrvAb6fPQAGvgBBRRBAAMB9RdzzzeAeDAQMMCFhQgrcgEAA6q05+5w1BwNg4AEDD4oCB2D1b4YAUAiq7wG+nz0ABvgTQMn/KQwEgOJH8QMDYAAMlDwAqwMfAsDGr74H+H72ABjgBqAkAYIAUPwofmAADICBkgdgdeBDANj41fcA388eAAPcAJQkQBAAih/FDwyAATBQ8gCsDnwIABu/+h7g+9kDYIAbgJIECAJA8aP4gQEwAAZKHoDVgQ8BYONX3wN8P3sADHADAAHiP/wEBsAAGAADNTEAC4IJgwEwAAbAABgoiAEWveCiw/Zrsn3WnXUHA2DAMQABgACAATAABsAAGCiIARa94KI7A0TmFwEYAANgoCYGIAAQADAABsAAGAADBTHAohdcdNh+TbbPurPuYAAMOAYgABAAMAAGwAAYAAMFMcCiF1x0Z4DI/CIAA2AADNTEAAQAAgAGwAAYAANgoCAGWPSCiw7br8n2WXfWHQyAAccABAACAAbAABgAA2CgIAZY9IKL7gwQmV8EYAAMgIGaGIAAQADAABgAA2AADBTEAItecNFh+zXZPuvOuoMBMOAYgABAAMAAGAADYAAMFMQAi15w0Z0BIvOLAAyAATBQEwMQAAgAGAADYAAMgIGCGGDRCy46bL8m22fdWXcwAAYcAxAACAAYAANgAAyAgYIYYNELLrozQGR+EYABMAAGamIAAgABAANgAAyAATBQEAMsesFFh+3XZPusO+sOBsCAYwACAAEAA2AADIABMFAQAyx6vUX/f84AkflFAAbAABioiQEIAAQADNTDAGvOmoMBMFCT9RRmu+3Xvx4KAAUADIABMFAYAyx+rcXX4c+fAWqtO/uc9QYDYOABAw+Kwr+OV58LP/wlr/7NfB9FDwyAATDQwQAT05mYBYmQDn1vWf86689as9ZgAAx8w8C3zoKHHt/3CPhGAJgX5gAMgAEwUBwDAKAeACAA9dacfc6agwEw8ICBBwW/Dpf/dQwBoBCw78EAGAADyx92gPwR5BCAxzkBJ8wJGAAD5TBQ7oO54fjvvwPAulPswAAYAAPFMQAA6gGAG4B6a84+Z83BABh4wMCDgl/Iy/9ZBAJAIWDfgwEwAAaWP+wA+SPIIQCPcwJOmBMwAAbKYaDcB3PDwb8BAAMQfzAABsAAjK8iAeIGANxXxD3fDO7BQMAAExImpAArhADUW3P2OWsOBsDAAwYeFAUOwOrfDAGgEFTfA3w/ewAMfAGCiiCAAID7irjnm8E9GAgYYELChBS4AYEA1Ftz9jlrDgbAwAMGHhQFDsDq3wwBoBBU3wN8P3sADPAngJL/UxgIAMWP4gcGwAAYKHkAVgc+BICNX30P8P3sATDADUBJAgQBoPhR/MAAGAADJQ/A6sCHALDxq+8Bvp89AAa4AShJgCAAFD+KHxgAA2Cg5AFYHfgQADZ+9T3A97MHwAA3ACUJEASA4kfxAwNgAAyUPACrAx8CwMavvgf4fvYAGOAGoCQBggBQ/Ch+YAAMgIGSB2B14EMA2PjV9wDfzx4AA9wAlCRAEACKH8UPDIABMFDyAKwOfAgAG7+/B/76+59fPMwBGFgfA9wAlCRAEAAIwJgA/Pvj5y8e5gAMrIuBRvAgABAA/t8fS2IAAsDhtu7hxtpury0EoGzh5waAGwAIAIfE9iHBHK07RxAACAC//stiAALA4bbu4cbabq8tBKBs8ecGgBsACACHxPYhwRytO0cQAAgANwBlMfBZAhAJ2J6DZhTbbHtyRd+Y2/vR9+j+7LvP+s28n3/fUXmPyjPz/vKJ36G+7L32rHf1vC733uMTeghA2eLPDYAKBO0jEWiF4cyClBXETJe9Q+bnOpez+D26I3PNjDs73qzf1phZnky3lSfaj8gRc271nx3z2biz3mcr75F2CAAEgBuAshh4PPhbMWzPmQRgVHBlU+vFTjq1bpPcbHpGumZTnuivOPdxnfRZnOdUjHSxP4p33+invufNdMrRaz2+59P0vdyKl1051Jd9JofHSlact26Lso83Y/P39FjJajW+/LPc0aa+cqhVbLS73seT/qwWAmAFwxdlfZkbgPXX+M9huPdbP00AVARV+Nr7S5Yt6mR3vcuKcz+3u+w+ktVGP+83Wf0oe7x8mm5GftZPY2atj5vZ45ix79+X2ZQzjuN9l2MO9aOP8sZ2y8/tPTkb031l19izNvdzOcvndpc15pEtBAAC8I3hN8DxMAdXIAAqjqMiKKx6UXR/l5VPviNbzyfmiH3POSOP4vUOap/Jp9is9XyZvemij/ddjr5uc3nkF21Zv+l6Txsne9xf9qgb9d3WZP8el2f9Yoz3XY5jxfxH9CEAHdC0hVj74QZg7fV9Db/vJABe9FxWAYy6rPC5T5Rb3x/Fu5/Gkk1t9JGf53OfvbLy9cabHafnp7xZ6++a2Zsu+njf5ejrNpdHftGW9Zuu98RxMr/mE/22+noPxbq/y3E8t/Vk5Vas+0WbfI5sIQChOLQFqPE0AsDDHOQYeCcB8ELnBXBGVjHc45vF+DvIvkenmJn3cJ84httc3uOnd9lqY/7MP/p43+U97+dxLsccWT97R+liLunVur0nN1+3bfWjr8aKce7n8sgv2jz3UTIEoMyBH4kNNwBtI/Lkc3AmAegVNi+MLqvYSadW+pjP7S5nfm53WblndO4zK8/66T2yd5fNc0U/+fTaGBvjo937Lo/i9viNfHvfIH2MlT6+m/TyVxv1M/1RrNt6cnw394s2vc+RLQSg7CEAAWibjSefg7MJgIqbz7903nqx8+Loca5XrOvcN8snu9skex7pWquYaPf+lqwcMW/su59yum70Pp6rJyuX2ugnfWvdNuorRv7qx5hml02yYrK+26KsPLHt5dG7yF/5pFdf8e7nPtK7zmMkj/LJluWQ7YwWAlD2EIAA+MZF/k4E3kEAzihoe3LGYrsn9hXfT437yjsT2/+3B3eeGwgABOA3A+cQ/H4IVp4PCMB5Bf9dBGCE3zseWqt9zxXWAAIAAYAAlMVAn/BAAO5PAK5wwPAO5+HoiLmFAJQt/vwJYPSLorqtAgE4ooCS49oHHOszXh8IAASAG4CyGKh9A8DhMD4cmJ/15wcCULb4cwNQ/Vf+6Pu5AVi/+HPAs8YQAAgANwBlMcANAIcgh2BlDEAAyhZ/bgBGv4Cr27gB4GCsfDBW+XYIAASAG4CyGBjfALTiwMMcgIG1MfBV/ddOze/nBqDmuvcPfeaDuQEDJTFQ8qOL//KFAFDs2PdgAAyAAa5AC5IBCAAbn+IPBsAAGIAAQADAQEEMUPwp/mAADFD8CxZ/bgDY+BR/MAAGwAAEAAIABgpigOJP8QcDYIDiX7D4cwPAxqf4gwEwAAYgABAAMFAQAxR/ij8YAAMU/4LFnxsANj7FHwyAATAAAYAAgIGCGKD4U/zBABig+Bcs/twAsPEp/mAADIABCAAEAAwUxADFn+IPBsAAxb9g8ecGgI1P8QcDYAAMQAAgAGCgIAYo/hR/MAAGKP4Fiz83AGx8ij8YAANgAAIAAQADBTFA8af4gwEwQPEvWPy5AWDjU/zBABgAAxAACAAYKIgBij/FHwyAAYp/weLPDQAbn+IPBsAAGIAAQADAQEEMUPwp/mAADFD8CxZ/bgDY+BR/MAAGwAAEAAIABgpigOJP8QcDYIDiX7D4cwPAxqf4gwEwAAYgABAAMFAQAxR/ij8YAAMU/4LFnxsANj7FHwyAATAAAYAAgIGCGKD4U/zBABig+Bcs/twAsPEp/mAADIABCAAEAAwUxADFn+IPBsAAxb9g8ecGgI1P8QcDYAAMQAAgAGCgIAYo/hR/MAAGKP4Fiz83AGx8ij8YAANgAAIAAQADBTFA8af4gwEwQPEvWPy5AWDj94v/X3//84uHOQAD62Pgi0LYL4Trzg0EYN21fR3PrfD/++MnD3MABhbGQNvnEICSNyAQAAhAnyhAACA/EMD1MQABKHn4t8IPAYAAQAA45NY/5Fjj/hpDACAABf/9Q//ggxT879xwA9AvmhwozM0qGIAAQAAgAGUx0CdCEAAOuVUOOb6jj2UIQNniz58A+LV/LQIQ12NP4R7FNtueXNE35vZ+9D26P/vus36j9/Pvkjzyf7ftmW98Jsa/69V4z+XyWXl9jBkZAgAB4AagLAauQwCygpjpsqKW+bnO5Sx+j+7IXDPjzo436zcaM8uR6UY5zrLpPdSeNU7M++7x4vhn9yEAZYs/NwBtc/Pkc/DOPwGMiqxsar0gSqfWbZKbTc9I12zKE/0V5z6ukz6L85yKkS72R/HuG/3U97yZTjl6rce7T9T3cstPds/RZOnlF+2jvmLUuq90rZUse9aPuuarWLf1dPL3MeQrnfuMbPKXT2ule0cLAbAC4YuwvgwBWH+N/xx+e7/1agTAC2qU1W/fmBVN17usOMVojrwvWW2Mb/qo877njLLnjDFuy+Q4bi8++ilX1noOt7ve5Zi72dzek2Ocj5XJnieLnR3X8/TkmN/9ZHOdy7K3VrLbZ2TFKcfZLQQAAvCN/TaQ8jAHVyQAKo5eSGOBFHZd7/4uK598R7aeT8wR+55zRh7F6x3UPpNPsVnr+dzuepebj/dd3mPzsTJ5lDeOE/se67KPE/Xedznm3uqPYt3msr/XO2QIQNkDjxuAtvF48jn4JAHwguiyCm7UZYXSfaLc+v4o3v00lmxqo4/8PJ/77JWVrzfe7Dg9P+XNWn9Xt7s+5o22UVzP5vpMHo3Z/P0dYj+zZTof1+0ux9xb/VGs21z293iHDAEIxaAtRo2nEQAe5iDHwCcJgBdWL44zsormHt8sxt9B9j06xcy8h/vEMdzm8h4/vctWG/PL3/Uuy6422rzvcvOPfeWIbc/P9S7H3NGm/K53eSt+5Lsn1vO4rPd7VwsBKHPgR2LDDUDbeDz5HLyTAMTCqeLnhdHlaB/ZYu7o6/0mx77GUuv2ns59ZuVZP43Z2pmY6OfxUfZ8skXdqN9sbu/Jr75TjPdxRjb368mj+Gjb6rcxeuP09FnOpjvrgQCUPQQgANqgtI8k4N0EQIXP10I6b70QxiIaY+Urfex7vI8R/RXnPq6TPovzMbbkrfhsHOWMserLHt8363uM5C0/t2usXqz08vPYntzzdb3LLY/3XZYt6lwfba3vOpf1zvKJNvVll7/Gi/3Mz33OkCEAEID/AC7w0T4ehhXn5BME4IwCtydnW+c9/kf5fmrco95feVb5Dn3Pq+0d5gMCAAGAAJTFQJ/sQADOu3aNB8u7Doo2Tu+J7/RM/5nv6L3PM7meeeczY+7wDRCAwaYYgfP+Nv4EcP817Bf0V78NArAeATjzsGu5G+bOHuNO+e8wHxAACED3V8Grhwjx5x3QZ89tRQJwp8OFd30fQVt5riEAEAAIQFkM9AkKBIADZuWDj2/7X3xDAMoWf/4EcPav6DvnhwBAADgk18cABAACwA1AWQxwA8Aht/4hxxr31xgCULb4cwNw51/oZ787NwD9osmBwtysggEIAASAG4CyGBjfALTiwMMcgIG1MfB19q8J8vcL7efmhhuAz839FfHAO4EHMFAUAyx8vYWHANRbc/Y5aw4GwMADBh4UXAsvfy0MAaAQsO/BABgAA8sfdoD8EeQQgMc5ASfMCRgAA+UwUO6DueH4ggBQ6Nj3YAAMgAFuAAoSAggAG5/iDwbAABiAAEAAwEBBDFD8Kf5gAAxQ/AsWf24A2PgUfzAABsAABAACAAYKYoDiT/EHA2CA4l+w+HMDwMan+IMBMAAGIAAQADBQEAMUf4o/GAADFP+CxZ8bADY+xR8MgAEwAAGAAICBghig+FP8wQAYoPgXLP7cALDxKf5gAAyAAQgABAAMFMQAxZ/iDwbAAMW/YPHnBoCNT/EHA2AADEAAIABgoCAGKP4UfzAABij+BYs/NwBsfIo/GAADYAACAAEAAwUxQPGn+IMBMEDxL1j8uQFg41P8wQAYAAMQAAgAGCiIAYo/xR8MgAGKf8Hizw0AG5/iDwbAABiAAEAAwEBBDFD8Kf5gAAxQ/AsWf24A2PgUfzAABsAABAACAAYKYoDiT/EHA2CA4l+w+HMDwMan+IMBMAAGIAAQADBQEAMUf4o/GAADFP+CxZ8bADY+xR8MgAEwAAGAAICBghig+FP8wQAYoPgXLP7cALDxKf5gAAyAAQgABAAMFMQAxZ/iDwbAAMW/YPHnBoCNT/EHA2AADEAAIABgoCAG+sX/r7//+cXDHICB9THwBQPqF8J154YbgHXX9nU8t8L/74+fPMwBGFgYA22fQwBK/vqFAEAA+kQBAgD5gQCujwEIQMnDvxV+CAAEAALAIbf+Icca99cYAgAB4G/fZTEAAeBw6B8OzM36cwMBKFv8uQHgBgACwCG3/iHHGvfXGAIAAeAGoCwGrksAIjnbU8RHsc22J1f0jbm9H32P7s+++6zf6P38uySP/N9h03vEVmM3/ZYs+1GtjxlzjmzuO+vnMUfJEICyxZ8bgLbxePI5aIXhqCKzN09WEDNdljfzc53LWfwe3ZG5ZsadHW/WbzRmliPTjXIcbdsa3+0uH/0es/lm32HWb3bcPX4QgLKHAASgbTyefA4+RQBGxVA2tV7opFPrNsnNpmekazblif6Kcx/XSZ/FeU7FSBf7o3j3jX7qe95Mpxy91uPdJ+p7ueUnu+dosvTyi/asv+Xr9i252d1H423pY0zWl05tzJ3p5fPuFgJgRaEtTJ0HAlBnrffj+soEoBVJL6IuyxZ1Kqyud1lx7ud2l91Hstro5/0mqx9lj5dP083Iz/ppzKz1cd3uepezd3B7T45xPlaUPUe0xTzuG+XYV64Z/RHjjHLoXd7VQgBKHfp+EEAA2obnyefg6gRARdSLdiyaWlvXu7/Lyiffka3nE3PEvueckUfxege1z+RTbNZ6Pre73uXm432X99h8rCi3nNkjPx9zRt56ryzvKMbHjH7KpdZ9XZb9XS0EoAOqtihrPxCAtdf3NfxehQB4cXS5FUit31ax9LgoK4da5XI/jSWb2ugjP+VSm/l7bE9WvixeNo3Ry+F2yco3aj2f+7le+byVr/s1nfddjjbFZ22Miz5un5GzsVucx/Z8NLb7utyLU373dVl539VCAJY/6HsHQSMAPMxBjoGrEAAvpF4oZ2QV0T2+WYy/g+x7dIqZeQ/3iWO4zeU9fnqXrTbml7/rXZZdbbR53+XmH/vKEdstP7fPyKOxe/Ex5hm/UY74zWf3IQClCUCPHKBvG7vy8ykCEIujCuCo0HqM+23FRl/vNzn2lU+t23s695mVZ/00ZmtnYqKfx0fZ88kWdaN+s7m9J7/6Tnq3mKc33ux79eKPGGeUw7/nHTIEoGyh508AKga0j2TnkwRABdLXRTpvvUDGgh1j5St97Hu8jxH9Fec+rpM+i/MxtuSt+Gwc5Yyx6sse3zfre4zkLT+3a6xerPTy89ie7DEuy99zbcmKV6zaLb3nbTFZXzq1Mbf0sZXfO1sIAATgPxA3MPIwB8LApwnAO4tgNpaKc2Y7U/epcY/+pqt+x1Xf6+j5n80HASh78HED0IoBTz4HEIA//1W52WJ6hN+7DqgR7j/1HWe/U/uud83vEXP4jhwQgLKHAARgVHCq2yAAaxOAsw+Xqx60V32vs9ejlx8CAAHgV3BZDOS//luRrE4AegUTff//WIa5ud/cQADKFn9uAKr/yh99PwTgfsWcA5g124sBCAAEgBuAshjgBmBvwcSfQ3YlDEAAyhZ/bgBGv4Cr27gB4KBb6aDjW3I8QwAgANwAlMUANwAcDPnBwLzUmBcIQNnizw1A9V/5o+9vhYGHOQAD62Pga1QIsPV/Jd17biAA916/VXHJd4FLMPBmDDDhb57wC1y7QwDqrTn7nDUHA2DgAQMPigscULzTuUCFAJw7v+CX+QUDYOAWGLjFS0JKDv33ChAAihP7HgyAATBw6MECoO4BKAjAPdaJ/cQ6gQEwcCoGTk3OL/dLEiwIAEWFfQ8GwAAYuOQBBTDPBSYE4Nz5Bb/MLxgAA7fAwC1ekpuEQ4kaBIDixL4HA2AADBx6sACoewAKAnCPdWI/sU5gAAycioFTk/PL/ZIECwJAUWHfgwEwAAYueUABzHOBCQE4d37BL/MLBsDALTBwi5fkJuFQogYBoDix78EAGAADhx4sAOoegIIA3GOd2E+sExgAA6di4NTk/HK/JMGCAFBU2PdgAAyAgUseUADzXGBCAM6dX/DL/IIBMHALDNziJblJOJSoQQAoTux7MAAGwMChBwuAugegIAD3WCf2E+sEBsDAqRg4NTm/3C9JsCAAFBX2PRgAA2DgkgcUwDwXmBCAc+cX/DK/YAAM3AIDt3hJbhIOJWoQAIoT+x4MgAEwcOjBAqDuASgIwD3Wif3EOoEBMHAqBk5Nzi/3SxIsCABFhX0PBsAAGLjkAQUwzwUmBODc+QW/zC8YAAO3wMAtXpKbhEOJGgSA4sS+BwNgAAwcerAAqHsACgJwj3ViP7FOYAAMnIqBU5Pzy/2SBAsCQFFh34MBMAAGLnlAAcxzgQkBOHd+wS/zCwbAwC0wcIuX5CbhUKIGAaA4se/BABgAA4ceLADqHoCCANxjndhPrBMYAAOnYuDU5PxyvyTBggBQVNj3YAAMgIFLHlAA81xgQgDOnV/wy/yCATBwCwzc4iW5STiUqEEAKE7sezAABsDAoQcLgLoHoCAA91inz+ynv/7+5xcPcwAG1sfAF4XwM0X2s/MOAfjs/F8bc63w//vjJw9zAAYWxkDb5xCAkjcgEAAIQJ+EQAAgPxDA9TEAASh5+LfCDwGAAEAAOOTWP+RY4/4aQwAgAPzjyrIYgABwOPQPB+Zm/bmBAJQt/twAcAMAAeCQW/+QY437awwBgABwA1AWA3UIQCR7ew6FUWyz7ckVfWNu70ffo/uz7z7rN3o//y7JI/932PQesZ0Zu8XM+F3dBwJQtvhzAxA3Pv0/hKAVhqsXr9n3y4p1psvyZX6uczmL36M7MtfMuLPjzfqNxsxyZLpRjqNtnx7/6O95Jh8EAALADUBZDPw58Fsx9GcVAjAq8rKp9QIqnVq3SW42PSNdsylP9Fec+7hO+izOcypGutgfxbtv9FPf82Y65ei1Hu8+Ud/LLT/ZPUeTpZdftGf9LV/ZldtzyOa6O8oQANvEWugaLTcANdb5zyG153srEYBWuNvcqIC7LFvUZb7Rx/tNjn3lUOv2ns59PGeUPT7GuC2Tm24mJvopV9Z6Pre73uWYu9nc3pNjnI8VZc8RbcrjPj05i72LDgIAAfhvYzVw8zAHwkA1ApAV/FjENTeubzr1XVa+GVvPJ+aIfTg5N80AACAASURBVB9vRh7F6x3UPpNPsVnr+dzuepebj/dd3mPzsaLccmaP/PaMqZi7tRCADggyYKyl4wZgrfXMi9mz37gqAWjzoSLtctNprmTvtR4XZeVQqxzup7FkUxt95KdcajN/j+3JypfFy6YxejncLln5Rq3ncz/XK5+38nW/pvO+y9Gm+KyNcdEn2r3vcoy7Ux8CUJoANBLAwxw8YmBVAtCKs4q3WteNZBX2mTj5qvWYOEbPp+eX+Xv+nhzzHeGnd9lqfSz3db3L7tPkaPO+y5lvzKV+jJNebbR732X537GFAJQmAMf+amybgmeNOViFALSinBVr17msIi6dWuljPre7nPm53WXlntG5z6w866f3yN5dNs8V/eSTtTEui40+3m9y7Gsc12d55RfbGJfZ3acnx7g79SEAZQ8t/gTQNjRPPgcrEYBWkOM6S+etF+5Y7D0++vV8o5/Gcv/Mx3UeE+O8vyU3u/sor48lH/l5K1lx8vX4kSx/bzP/nr3pfewY24uLft73GJflMxpTNvnetYUAlD0EIAC+6ZG/E4HVCMCnC/SnDoxPjXv0fH/iOz4x5tHztpUPAgABePh11IDPU3sOIAD9/3zqVlHN7J86TN417qheZPOxV/fMd7z6Ts+Mufe7Pu0PASh72HEDMCoQ1W0QAAjApw8nH/8Th/EnxvRvfocMAYAA8Gu/LAb6txwQgGMJwDuKOWOwZnsxAAEoW/y5Aaj+K3/0/RAADpO9hwn+98MMBAACwA1AWQxwA8Chdb9DizU7bs0gAGWLPzcAo1/A1W3cABxXZDmwmMurYgACAAHgBqAsBrgBuGph5r0gDe/AAASgbPHnBqD6r/zR97fCwMMcgIH1MfA1KgTY+r+S7j03EIB7r9+quOS7wCUYeDMGmPA3T/gFrt0hAPXWnH3OmoMBMPCAgQfFBQ4o3ulcoEIAzp1f8Mv8ggEwcAsM3OIlISWH/nsFCADFiX0PBsAAGDj0YAFQ9wAUBOAe68R+Yp3AABg4FQOnJueX+yUJFgSAosK+BwNgAAxc8oACmOcCEwJw7vyCX+YXDICBW2DgFi/JTcKhRA0CQHFi34MBMAAGDj1YANQ9AAUBuMc6sZ9YJzAABk7FwKnJ+eV+SYIFAaCosO/BABgAA5c8oADmucCEAJw7v+CX+QUDYOAWGLjFS3KTcChRgwBQnNj3YAAMgIFDDxYAdQ9AQQDusU7sJ9YJDICBUzFwanJ+uV+SYEEAKCrsezAABsDAJQ8ogHkuMCEA584v+GV+wQAYuAUGbvGS3CQcStQgABQn9j0YAANg4NCDBUDdA1AQgHusE/uJdQIDYOBUDJyanF/ulyRYEACKCvseDIABMHDJAwpgngtMCMC58wt+mV8wAAZugYFbvCQ3CYcSNQgAxYl9DwbAABg49GABUPcAFATgHuvEfmKdwAAYOBUDpybnl/slCRYEgKLCvgcDYAAMXPKAApjnAhMCcO78gl/mFwyAgVtg4BYvyU3CoUQNAkBxYt+DATAABg49WADUPQAFAbjHOrGfWCcwAAZOxcCpyfnlfkmCBQGgqLDvwQAYAAOXPKAA5rnAhACcO7/gl/kFA2DgFhi4xUtyk3AoUYMAUJzY92AADICBQw8WAHUPQEEA7rFO7CfWCQyAgVMxcGpyfrlfkmBBACgq7HswAAbAwCUPKIB5LjAhAOfOL/hlfsEAGLgFBm7xktwkHErUIAAUJ/Y9GAADYODQgwVA3QNQEIB7rNNn9tNff//zi4c5AAPrY+CLQviZIvvZeYcAfHb+r425Vvj//fGThzkAAwtjoO1zCEDJGxAIAASgT0IgAJAfCOD6GIAAlDz8W+GHAEAAIAAccusfcqxxf40hABAA/nFlWQxAADgc+ocDc7P+3EAAyhZ/bgC4AYAAcMitf8ixxv01hgBAALgBKIuBOgQgkr09h8Iottn25Iq+Mbf3o+/R/dl3n/UbvZ9/l+SR/ztseo/Yauym35Jlv2sLAShb/LkBiBuf/h9C0ArDXYtafG8v5LJlOtm8zfxc57LHPSMfmWtm/NnxZv1GY2Y5Mt0ox9G2PeO7r8tHv9O780EAIADcAJTFwJ8DvxU1f1YhAKNiLZtaL77SqXWb5GbTM9I1m/JEf8W5j+ukz+I8p2Kki/1RvPtGP/U9b6ZTjl7r8e4T9b3c8pPdczRZevlFe9bf8nV7T87y3kkHAbBN3Ba5zsMNQJ213o/rSgSgFexRgRdOssK+FaeYmMPj3Eey2ujnfc8ZZY+PMW7L5KabiYl+ypW1ns/trnc55m42t/fkGOdjRdlzRFvM474uZ3F30kEASh36fhBAANpG5snnoBoBUMEfFXdhxQu8+7usfPId2Xo+MUfse84ZeRSvd1D7TD7FZq3nc7vrXW4+3nd5j83HinLLGR/38TF7svvfUYYAJCCIoFizDwFYc10fi9oz37kqAWhzoULtctNpnmTvtR4XZeVQqxzup7FkUxt95KdcajN/j+3JypfFy6YxejncLln5Rq3ncz/XK5+38nW/pvO+y9Gm+KyNcdHH7T05xtytDwEoTQAaCeBhDh4xsCoBaAVaxVyt60ayivtMnHzVekwco+fT88v8PX9PjvmO8NO7bLU+lvu63mX3aXK0ed/lzDfmUj/GSa/W7T1ZvndtIQClCcAxvxbb5uBZaw5WIQCtMHvxVqF2ncvRPrLF3NHX+02OfY2l1u09nfvMyrN+GrO1MzHRz+Oj7Plki7pRv9nc3pNffSe9W8wzGs9j7iZDAMoeXvwJQEWF9pG8rEQAVMx9naXz1ot3LPgxVr7Sx77H+xjRX3Hu4zrpszgfY0veis/GUc4Yq77s8X2zvsdI3vJzu8bqxUovP4/tyVu+bu/Jvdx30UMAIAD/MesGcB7mQBhYjQB8uiD7AfLOd/nUuEd/4yrfcfS8vJoPAlD24OMGQIcd7SPxgQD0//OpzxTdTx1g7xp3tIeema8Y88x3nP1O8R3v2IcAQAD45V8WA48Hv4omBAACcKUD7RkCcKX3v+q7QADKFn9uAHTY0T4SAQjAsQTgqgcA71V7nSEAEABuAMpi4PHgFxmCANQ+GCAGNdYfAlC2+HMDoMOO9pEIQABqHAAc9LXXGQIAAeAGoCwGHg9+kSEIQO2DAWJQY/0hAGWLPzcAOuxoH4kABKDGAcBBX3udIQAQAG4AymLg8eAXGWqFgYc5AAPrY+BLm562XxDXmxtuANZb00r45VvBLxg4CANM5EETeaNf0xCAemvOPmfNwQAYeMDAg+JGBxnv/hygIQDPzRt4Y97AABhYCgNLfQzkZepv2hAAihj7HgyAATAwdWAAlLWAAgFYaz3Zn6wnGAADT2HgqSB+ad+aOEEAKBbsezAABsDArQ8yAPwcgCEAz80beGPewAAYWAoDS30MNxNThA4CQBFj34MBMAAGpg4MgLIWUCAAa60n+5P1BANg4CkMPBXEL+1bEycIAMWCfQ8GwAAYuPVBBoCfAzAE4Ll5A2/MGxgAA0thYKmP4WZiitBBAChi7HswAAbAwNSBAVDWAgoEYK31ZH+ynmAADDyFgaeC+KV9a+IEAaBYsO/BABgAA7c+yADwcwCGADw3b+CNeQMDYGApDCz1MdxMTBE6CABFjH0PBsAAGJg6MADKWkCBAKy1nuxP1hMMgIGnMPBUEL+0b02cIAAUC/Y9GAADYODWBxkAfg7AEIDn5g28MW9gAAwshYGlPoabiSlCBwGgiLHvwQAYAANTBwZAWQsoEIC11pP9yXqCATDwFAaeCuKX9q2JEwSAYsG+BwNgAAzc+iADwM8BGALw3LyBN+YNDICBpTCw1MdwMzFF6CAAFDH2PRgAA2Bg6sAAKGsBBQKw1nqyP1lPMAAGnsLAU0H80r41cYIAUCzY92AADICBWx9kAPg5AEMAnps38Ma8gQEwsBQGlvoYbiamCB0EgCLGvgcDYAAMTB0YAGUtoEAA1lpP9ifrCQbAwFMYeCqIX9q3Jk4QAIoF+x4MgAEwcOuDDAA/B2AIwHPzBt6YNzAABpbCwFIfw83EFKGDAFDE2PdgAAyAgakDA6CsBRQIwFrreez+/Ovvf37xMAdgYH0MfFEIjy2e95hPCMA91ukz2GyF/98fP3mYAzCwMAbaPocAlLwBgQBAAPrkAgIA+YEAro8BCEDJw78VfggABAACwCG3/iHHGvfXGAIAAeAfTZbFAASAw6F/ODA3688NBKBs8ecGgBsACACH3PqHHGvcX2MIAASAG4CyGHiNAEQCtafQjmKbbU+u6Btzez/6Ht2fffdZv9H7+XdJHvm/w9b7rp4+vtMRfntyNF9/4vt8uj/7LaP3HOWAAAQAOBjWlrkBWHt9vxe2vd/aCsPeotLGGMXIlvm5zmXFPNsemWvmHWbHm/UbjZnlyHSjHEfbeuP39M+OP8o3svl4mV+m85h3y0e8zygHBAAC8I0BN7DwMAcjAjAqKLKp9YIpnVq3SW42PSNdsylP9Fec+7hO+izOcypGutgfxbtv9FPf82Y65ei1Hu8+Ud/LLT/ZPUeTpZdftGf9nm/U93L3/PQ+GlN+yuP6qJMttsqxpVe+6K++7FmezDYb1/LJV7mVL9PL3209f+WDAFjB8claX+YGYP01/nOY7v3WVwmAipEKTRtfsmxRJ7vrXVac+7ndZfeRrDb6eb/J6kfZ4+XTdDPys34aM2t9XLe73uXsHdzek2OcjxVlz+E217scc7stylt9jed+0mVtz8/1Lmfv6vae/Gxcy3d0zjgPEAAIwH8gE9honz80V5q7IwiACp8XsViANGeud3+XlU++I1vPJ+aIfc85I4/i9Q5qn8mn2Kz1fG53vcvNx/su77H5WFFuOXuPfGfHnfXbeneNG9uYX3bXu7w1jvu6fLU4fWdrIQADwLZFXPfhBmDdtX0dt3sIgBc7l1X4os4LkGT3iXLr+5PFaCzZ1Hou13k+99krx3E9XjYfy9/BZfeJOeQX256f62PeaPOcszaPibLncJvrmxwf+UY/6Vv7rM1zuOz5evr4nh7jcvZ+MVZjbMXJ76ycnh8CkIAxLtya/UYAeJiDHAN7CIAXKi9uM7KK0R7fLMbfQfY9OsXMvIf7xDHc5vIeP73LVhvzy9/1LsuuNtq873Lzj33liG3Pz/Uuj+Kjn/ddju8XbXEM9Xt+rndZcWqjzfsuy19ttHnf5ebvfZeVS220ed9l+auFAJQmAI9MvIGFhzkYEYBWPLKi4jqXVWykUyt9zOd2lzM/t7us3DM695mVZ/30Htm7y+a5op98sjbGZbHRx/tNjn2N4/osr/xiG+Nkd73LMbfbohz7yj3K4T5R9nyyRd2o32xu78lb79eLG+V/Nqe+Uy0EoOyBx58AtMFoHwnPFgFQAfK5k85bFZqo87gmRz/XuW/0U173z3xc5zExzvtbcrO7j/L6WPKRn7eSFSdfjx/J8vc28+/Zm97HjrG9uOjnfeV0XZOjvpe75xdzZH4aU7nV77Xy8zbz7dmbvvnLHmOll5/sM335qPXYpsv08mmt2zN/+UIAIAC/ASyg0D4eiNXmZIYAqIh8qm1r8omxPzXu0d96t++42vte7X2ewQcEAAIAASiLgT7RgQD0//Op7yr8bZze80yxjzHPfEfvfZ7JFd8n9mPO2I/+sX/2u+59n/h+V+hDAAabbASg+9v4E8D917B/QLz6bRCAzxOAsw+IhpGzx3g1v+P41VxHx99h/ra+GQIAAej+yvDNh3zeYXvFub0DAdgqbtj7JIa5YW4aBiAAEAAIQFkM9EkNBIADApKwPgYgAGWLP38CuOIv76u8EwRg/eLPAc8aQwAgANwAlMUANwAcghyClTEAAShb/LkBuMqv7Su+BzcAHIyVD8Yq3w4BgABwA1AWA+MbgFYceJgDMLA2Br6u+AuEd+oX52PmhhuAY+bx7HUiP+sEBsDAqRg4NTm/MC/5CxMCQFFh34MBMAAGLnlAAcxzgQkBOHd+wS/zCwbAwC0wcIuX5CbhUKIGAaA4se/BABgAA4ceLADqHoCCANxjndhPrBMYAAOnYuDU5PxyvyTBggBQVNj3YAAMgIFLHlAA81xgQgDOnV/wy/yCATBwCwzc4iW5STiUqEEAKE7sezAABsDAoQcLgLoHoCAA91gn9hPrBAbAwKkYODU5v9wvSbAgABQV9j0YAANg4JIHFMA8F5gQgHPnF/wyv2AADNwCA7d4SW4SDiVqEACKE/seDIABMHDowQKg7gEoCMA91on9xDqBATBwKgZOTc4v90sSLAgARYV9DwbAABi45AEFMM8FJgTg3PkFv8wvGAADt8DALV6Sm4RDiRoEgOLEvgcDYAAMHHqwAKh7AAoCcI91Yj+xTmAADJyKgVOT88v9kgQLAkBRYd+DATAABi55QAHMc4EJATh3fsEv8wsGwMAtMHCLl+Qm4VCiBgGgOLHvwQAYAAOHHiwA6h6AggDcY53YT6wTGAADp2Lg1OT8cr8kwYIAUFTY92AADICBSx5QAPNcYEIAzp1f8Mv8ggEwcAsM3OIluUk4lKhBAChO7HswAAbAwKEHC4C6B6AgAPdYJ/YT6wQGwMCpGDg1Ob/cL0mwIAAUFfY9GAADYOCSBxTAPBeYEIBz5xf8Mr9gAAzcAgO3eEluEg4lahAAihP7HgyAATBw6MECoO4BKAjAPdaJ/cQ6gQEwcCoGTk3OL/dLEiwIAEWFfQ8GwAAYuOQBBTDPBSYE4Nz5Bb/MLxgAA7fAwC1ekpuEQ4kaBIDixL4HA2AADBx6sACoewAKAnCPdfrMfvrr739+8TAHYGB9DHxRCD9TZD877xCAz87/tTHXCv+/P37yMAdgYGEMtH0OASh5AwIBgAD0SQgEAPIDAVwfAxCAkod/K/wQAAgABIBDbv1DjjXurzEEAALAP64siwEIAIdD/3BgbtafGwhA2eLPDQA3ABAADrn1DznWuL/GEAAIADcAZTFwLwIQCduewj6KbbY9uaJvzO396Ht0f/bdZ/1G7+ffJXnk/w7bq9/1anzvG8/K2xvvWT0EoGzx5wZARYz2kQi0wvBsUTkjLiuomS4bO/NznctZ/B7dkblmxp0db9ZvNGaWI9ONchxte3X8V+OP/p5354MAQAC4ASiLgceDvxXE9lyJAIyKtGxqvYBKp9ZtkptNz0jXbMoT/RXnPq6TPovznIqRLvZH8e4b/dT3vJlOOXqtx7tP1Pdyy092z9Fk6eUX7Vk/+ipH9JXe/Xs6vYtyZH7uI7v83SadfFor3RVaCIAVAF+k9WVuANZf4z+H295vvRsBiEW3fa8XWH2/6yS7r8tZTre7nOXq6TyuyepH2ePlk72T+0l+1s/jo+zv4DbXu5y9g9t7cozzsaLcy9HTx9zuJ5vrXJZd79Bsbp+RYw7l+lQLAYAAfGPeAjXt84fnCnN3RwKg4uqFOBZWrY3r3d9l5ZPvyNbziTli33POyKN4vYPaZ/IpNms9n9td73Lz8b7Le2w+VpQ9p8vuF/Xedzm+01Z/FOs2l/29riBDACAAEICyGOiTnCsTAC+oLqtgR11WaN0nyq3vj+LdT2PJpjb6yM/zuc9eWfl6482O0/NT3qz1d3W762PeaBvF9Wyuj7LnbzaN736Zj+wjm/LJN/ZHsW5z2XNdQYYAhM3eFqvG0/4EwMMc5Bi4MgHwQuzFdUZW0d3jm8X4O8i+R6eYmfdwnziG21ze46d32Wpjfvm73mXZ1Uab911u/rGvHLHt+bne5Zh7ZIu+sT+KdZvL8f0/3YcAlDnwI7Hh3wC0jcmTz8GVCEAsvCqaXlhdjvaRLeaOvt5vcuxrLLVu7+ncZ1ae9dOYrZ2JiX4eH2XPJ1vUjfrN5vae/Ow79fK5PuYe2aJv7LdYj5+RY47W/+QDASh7CEAAtIFpH0nA1QiACqevlXTeejGNBTnGylf62Pd4HyP6K859XCd9FudjbMlb8dk4yhlj1Zc9vm/W9xjJW35u11i9WOnl57E9OfoqR/SXfss/2lueUazbfcyYp5fDYz4hQwAgAN8A7kBFfjwYq8zJFQnAJwqkj9nW3vvvkj817tHft8p3aF5W+B4IAAQAAlAWA32CAwF4vJr9VMF/17htnN6jQ++V9pnv6L3PM7leefcs9grvkL3XHh0EYAD6Efjub+NPAPdfw37BfvXbIAD1CMCeg+MZ34bJZ+KuGrPC90AAIABd1v/qIUL8eQf02XMLAXgkAFc9iHgv1upZDEAAIAAQgLIY6BMUCACHyrOHCnH3wQ4EoGzx508AZ/+KvnN+CMB9ijgHLmv1LAYgABAAbgDKYoAbgGcLJ3EcuitgAAJQtvhzA3DnX+hnvzs3ABxwKxxwfMMYxxAACAA3AGUxML4BaMWBhzkAA2tj4OvsXxPk7xfaz80NNwCfm/sr4oF3Ag9goCgGWPh6Cw8BqLfm7HPWHAyAgQcMPCi4Fl7+WhgCQCFg34MBMAAGlj/sAPkjyCEAj3MCTpgTMAAGymGg3Adzw/EFAaDQse/BABgAA9wAFCQEEAA2PsUfDIABMAABgACAgYIYoPhT/MEAGKD4Fyz+3ACw8Sn+YAAMgAEIAAQADBTEAMWf4g8GwADFv2Dx5waAjU/xBwNgAAxAACAAYKAgBij+FH8wAAYo/gWLPzcAbHyKPxgAA2AAAgABAAMFMUDxp/iDATBA8S9Y/LkBYONT/MEAGAADEAAIABgoiAGKP8UfDIABin/B4s8NABuf4g8GwAAYgABAAMBAQQxQ/Cn+YAAMUPwLFn9uANj4FH8wAAbAAAQAAgAGCmKA4k/xBwNggOJfsPhzA8DGp/iDATAABiAAEAAwUBADFH+KPxgAAxT/gsWfGwA2PsUfDIABMAABgACAgYIYoPhT/MEAGKD4Fyz+3ACw8Sn+YAAMgAEIAAQADBTEAMWf4g8GwADFv2Dx5waAjU/xBwNgAAxAACAAYKAgBij+FH8wAAYo/gWLPzcAbHyKPxgAA2AAAgABAAMFMUDxp/iDATBA8S9Y/LkBYONT/MEAGAADEAAIABgoiAGKP8UfDIABin/B4s8NABuf4g8GwAAYgABAAMBAQQz0i/9ff//zi4c5AAPrY+ALBtQvhOvODTcA667t63huhf/fHz95mAMwsDAG2j6HAJT89QsBgAD0iQIEAPIDAVwfAxCAkod/K/wQAAgABIBDbv1DjjXurzEEAALA377LYgACwOHQPxyYm/XnBgJQtvhzA8ANAASAQ279Q4417q8xBAACwA1AWQxckwBEYrangI9im21Prugbc3s/+h7dn333Wb/R+/l3uayY2TFm/ZQ3a5/J8UyMj/1qvOdy+ay8PsZeGQJQtvhzA9A2JE8+B60w7C0mR/hnRTLTZWNlfq5zOYvfozsy18y4s+PN+o3G3MqxZVfuWT/5x1bxaqP9rP67xzvrO2byQgDKHgIQgLbRefI5+AQBGBVe2dR6cZNOrdskN5ueka7ZlCf6K859XCd9Fuc5FSNd7I/i3Tf6qe95M51y9FqPjz5ZvkzX4pRH9phrq+/x0ddtkuWT9aOu+TadHo/NdPIf+blPzOG2rRyyv6OFABgItGg1WghAjXX+U+T2fO9VCUAspO2bvFDqG10n2X1dznK63eUsV0/ncU1WP8oeL5/sndxP8rN+Hh9lf4doG42X2TyXy1le10XfrO+6V+TsveO79PJnsT3fnj7m8LHPliEAEIDfLLgBlIc5aBi4MgFQwfSCGgulcOx693dZ+eQ7svV8Yo7Y95wz8ihe76D2mXyKzdqWL3vk2xtPdrXu13SxL7+sjb57+u7rso8T9d53OXvvkX3WFv383d4pQwA6YG8LtPbDDcDa6/safq9AALxIuqyiHHVZ4XSfKLe+P4p3P40lm9roIz/P5z57ZeXrjTc7Ts9PebPW33XLPvKNttjPckvXfOMjW2tjLu+7LN9M18u3x1f5lWsU6zaXFfuJFgKQAK0tzvpPIwA8zEGOgSsQAC+uXjBnZBXTPb5ZjL+D7Ht0ipl5D/eJY7jN5T1+epetNuaP/m53eeTXbCNfj+35ud7lmDvalNv1Lm/Fj3z3xHoel/V+n2ghACUO+4zQcAPQNiFPPgefIACxmKogerF0OdpHtpg7+nq/ybGvsdS6vadzn1l51k9jtnYmJvp5fJQ9X7TFPNHX+y7HuCyvdDEu00cf7++V47t5fLRt9Vusx8/IWc6me8cDASh7CEAAtFlpH0nApwiAiqGviXTeenGMRTbGylf62Pd4HyP6K859XCd9FudjbMlb8dk4yhlj1Zc9vm/W9xiX5Std7McxtvqKj22Mk931Lje7912WLepcH22t7zqX/V2in3KqjXFZP8uhMd7RQgAgAP+BXUCkfTwMK87JJwnAOwrfaIy23iP7WbZPjXvW91TMe7c1hABAACAAZTHQJzsQgPdcwfoh+a7Do43Te/x9zpJ7Y7/r+8/6rpb3bt8AARhshhFQ72/jTwD3X8N+IX/12yAA6xKAMw/A6rnbvrvTHEAAIADdXwOvHiLEn3dAnz23lQnAnQo47/p+orbSnEMAIAAQgLIY6BMUCAAHy0oHHd+S4xkCULb48yeAs39F3zk/BCAvmBwkzMtKGIAAQAC4ASiLAW4AVirmfAvkZC8GIABliz83AHf+hX72u3MDwGGy9zDB/36YgQBAALgBKIuB8Q1AKw48zAEYWBsDX2f/miB/v9B+bm64Afjc3F8RD7wTeAADRTHAwtdbeAhAvTVnn7PmYAAMPGDgQcG18PLXwhAACgH7HgyAATCw/GEHyB9BDgF4nBNwwpyAATBQDgPlPpgbji8IAIWOfQ8GwAAY4AagICGAALDxKf5gAAyAAQgABAAMFMQAxZ/iDwbAAMW/YPHnBoCNT/EHA2AADEAAIABgoCAGKP4UfzAABij+BYs/NwBsfIo/GAADYAACAAEAAwUxQPGn+IMBMEDxL1j8uQFg41P8wQAYAAMQcYnfWgAAIABJREFUAAgAGCiIAYo/xR8MgAGKf8Hizw0AG5/iDwbAABiAAEAAwEBBDFD8Kf5gAAxQ/AsWf24A2PgUfzAABsAABAACAAYKYoDiT/EHA2CA4l+w+HMDwMan+IMBMAAGIAAQADBQEAMUf4o/GAADFP+CxZ8bADY+xR8MgAEwAAGAAICBghig+FP8wQAYoPgXLP7cALDxKf5gAAyAAQgABAAMFMQAxZ/iDwbAAMW/YPHnBoCNT/EHA2AADEAAIABgoCAGKP4UfzAABij+BYs/NwBsfIo/GAADYAACAAEAAwUxQPGn+IMBMEDxL1j8uQFg41P8wQAYAAMQAAgAGCiIAYo/xR8MgAGKf8Hizw0AG5/iDwbAABiAAEAAwEBBDFD8Kf5gAAxQ/AsWf24A2PgUfzAABsAABAACAAYKYqBf/P/6+59fPMwBGFgfA18woH4hXHduuAFYd21fx3Mr/P/++MnDHICBhTHQ9jkEoOSvXwgABKBPFCAAkB8I4PoYgACUPPxb4YcAQAAgABxy6x9yrHF/jSEAEAD+9l0WAxAADof+4cDcrD83EICyxZ8bAG4AIAAccusfcqxxf40hABAAbgDKYuCeBCAStz0FfhTbbHtyRd+Y2/vR9+j+7LvP+o3ez7/LZcXMjjHrp7yx9bFjrtiPsa/2NfareT4dDwEoW/y5AdAmpn0kAq0wfLo4ZeNnhT3TPRM7myfLHXVH5oq5s/7seLN+2RjSbeXYss/mkV/WZmO4zuUs/hXdmblfea9nYiEAEABuAMpi4PHgb8WtPVckAKPCK5taL4bSqXWb5GbTM9I1m/JEf8W5j+ukz+I8p2Kki/1RvPtGP/U9b6ZTjl7r8dEny5fpWpzyyB5z9fqK69lncmvMmEt9tZ5LsmJ9fOk8Tnbp1Ep/hRYCYBvfF3F9mRuA9df4z6G291vvSgBaUW3fquLqsmxRl/lGH+83OfaVQ63bezr38ZxR9vgY47ZMbrqZmOinXFnr+bbs0df7TY79LF/UeUy0qT/KHeO973FR9tySW+vxvX708fhPyhAACMB/ABbYaZ8/NFeauzsTABXhUdHVWnnxdX+XlU++I1vPJ+aIfc85I4/i9Q5qn8mn2Kxt+bJHvr3xZFfrfk0X+/KL7Yxf9Il9z+m2vXL23p4js/vYn5YhAB0wt0Vc++EGYO31fQ2/dyAAXmhdVtGNuqzYuk+UW98fxbufxpJNbfSRn+dzn72y8vXGmx2n56e8WevvumUf+UZb7Ge5m27GL/pk/abTo7Hcb0bW+yiPWuWT3ftXkiEABgItXo22EQAe5iDHwB0IgBfXtmdVWGfkZ3yzGH8H2ffoFDPzzu4Tx3Cby3v89C5bbcwf/d3u8siv2Ua+HjvjF32873Ic120zcoz395TseaS7SgsBKE0A/jDgBlIe5kAYuCIBaEUzK6auc1lFVjq10sd8bnc583O7y8o9o3OfWXnWT++Rvbtsniv6ySdrY1z0cbvLcYyRLeaM/Ri7J3eM9f5eOY4704/f8sk+BKDswcefANpm58nn4KoEQAXW1006b72oxqIeY+Urfex7vI8R/RXnPq6TPovzMbbkrfhsHOWMserLHt8363uMy/KVLvbjGFt9xfdajaPW/bZyK0Z+sW25pBvJGjPmkz7Guv4KMgSg7CEAAfBNi/ydCFyZAHy6cPrB8M53+dS47/xGxur/V/vOmBsIAASAX8FlMfD90HcSBAHoF+JPHcTvGtdxEOUzDqGYM47p/ehLv4/TmbmBAJQt/twAeGFB/k4GIAD9wtqwMlNcj/b51LhHfwf5+th699xAACAA3ACUxcD3Q99JEATgOkX63YcC49VZewhA2eLPDYAfeMjfyQAEoM4hwIFfd60hABAAbgDKYuD7oe8kCAJQ91CAENRZewhA2eLPDYAfeMjfyQAEoM4hwIFfd60hABAAbgDKYuD7oe8kCAJQ91CAENRZewhA2eLPDYAfeMjfyUArDDzMARhYHwNfFL/vxa/GfEAAaqxzRWzzzWAbDOzAAJO1Y7IWuTKHANRbc/Y5aw4GwMADBh4UixxyfFcf7BCA/tyAG+YGDICBMhgo86EQm9//5gECQIFj34MBMAAGfh8KgKEOGCAAddaafc1agwEw0MVA18Av5mXJEQSAgsC+BwNgAAwse8gB7j64IQD9uQE3zA0YAANlMFDmQ7nR+E32IAAUOPY9GAADYOD3oQAY6oABAlBnrdnXrDUYAANdDHQN/GJelhxBACgI7HswAAbAwLKHHODugxsC0J8bcMPcgAEwUAYDZT6UG43fZA8CQIFj34MBMAAGfh8KgKEOGCAAddaafc1agwEw0MVA18Av5mXJEQSAgsC+BwNgAAwse8gB7j64IQD9uQE3zA0YAANlMFDmQ7nR+E32IAAUOPY9GAADYOD3oQAY6oABAlBnrdnXrDUYAANdDHQN/GJelhxBACgI7HswAAbAwLKHHODugxsC0J8bcMPcgAEwUAYDZT6UG43fZA8CQIFj34MBMAAGfh8KgKEOGCAAddaafc1agwEw0MVA18Av5mXJEQSAgsC+BwNgAAwse8gB7j64IQD9uQE3zA0YAANlMFDmQ7nR+E32IAAUOPY9GAADYOD3oQAY6oABAlBnrdnXrDUYAANdDHQN/GJelhxBACgI7HswAAbAwLKHHODugxsC0J8bcMPcgAEwUAYDZT6UG43fZA8CQIFj34MBMAAGfh8KgKEOGCAAddaafc1agwEw0MVA18Av5mXJEQSAgsC+BwNgAAwse8gB7j64IQD9uQE3zA0YAANlMFDmQ7nR+E32IAAUOPY9GAADYOD3oQAY6oABAlBnrffv67/+/ucXD3MABtbHwBeFcH+BvP+cQQDuv4bn4bYV/n9//ORhDsDAwhho+xwCUPIGBAIAAegTCAgA5AcCuD4GIAAlD/9W+CEAEAAIAIfc+occa9xfYwgABIB/GFkWAxAADof+4cDcrD83EICyxZ8bAG4AIAAccusfcqxxf40hABAAbgDKYqAGAYhEb8+BMIpttj25om/M7f3oe3R/9t1n/Ubv59/lsmJmx5j1U97Y+tiv5oq579qHAJQt/twAxIJA/w8haIXhrkXN3zsr9JnOYyRnfq5zWTHPtkfmmnmH2fFm/UZjbuXYsiv3rJ/8vc1iM53HVJAhABAAbgDKYuDPgd+KoT8rEIBRgZdNrRd76dS6TXKz6Rnpmk15or/i3Md10mdxnlMx0sX+KN59o5/6njfTKUev9fjok+XLdC1OeWSPuXp9xfXsMbf8Ypz6e8dXviu2EADbyFrYGi03ADXW+c9Bted7qxAAL/5RVr/NW1a8Xe+y4hSjefe+ZLUxvumjzvueM8qeM8a4LZPjuL346KdcWes5tuzR1/tNjv0sX9R5TLSp77mjnPk03UxexV61hQBAAP4DskBP+9yBudq8VSIAKuajgq719ULu/i4rn3xHtp5PzBH7nnNGHsXrHdQ+k0+xWdvyZY98e+PJrtb9mi725RfbGT/3mZH3jB/f50p9CEAHnA0Eaz/cAKy9vq/hd0UC0CvsKuZu7xVp94ly6/ujHO6nsWRTG33k5/ncZ6+sfL3xZsfp+Slv1vq7btlHvtEW+1nuppvxc58ZeTZv752uoocAhE3bFr/G0wgAD3OQY2BFAuBFe6bIu48Ktut6snzVup+/g+x7dIrxnDNyHKMXs8dP77LV+liZr9tdjr7RFvvRX/0ZP/eZkVtu99NYd2shAGUO/EhsuAFoG5gnn4MVCECvSHvhdlnFWzq10sd8bnc583O7y8o9o3OfWXnWT++Rvbtsniv6ySdrY1z0cbvLcYyRLeaM/Rg7yu2+UY79OM7d+hCAsocABKBtZp58DlYhACr0vs7SeeuFOxb5GCtf6WPf432M6K8493Gd9Fmcj7Elb8Vn4yhnjFVf9vi+Wd9jXJavdLEfx9jqK77Xahy17ue5t+Qs3nPdSYYAlD0EIADayLSPJGAlAvDpguwHyjvf5VPjvvMb3znWivMJAYAA8Cu4LAYeD36RIQhA/z+fuvfQ+dTB8a5xhZms3TtXz/hn40r3TL5eTMvZs91VDwEoW/y5AVCRoH0kAhAACMBdD7Wz3hsCUPawfCyQ9z80IAD3X8PzcAkBOI4AnHUgkZc1ehUD3ACUJTUQAAhAn0BAADhcXj1ciL8+hiAAEAD+DUBZDEAAOKSuf0ixRuetEQSgbPHnBoAbAAgAh8t5hwtze/25hQBAALgBKIsBCACH1PUPKdbovDWCAJQt/twAcAMwJgCtOPAwB2BgbQx8UQj7hXDduYEArLu2FfHMN4NnMPAkBpi4JyfuxtfnEIB6a84+Z83BABh4wMCD4sYHG98yB3AIwNw8gSfmCQyAgaUxsPTHQWbSf+cAAaCose/BABgAA+kBATDWBgYEYO31Zf+yvmAADExhYMqJX9JLESUIAMWBfQ8GwAAYWOpgA9BzgIYAzM0TeGKewAAYWBoDS38cNxcpwYMAUNTY92AADICB9IAAGGsDAwKw9vqyf1lfMAAGpjAw5cQv6aWIEgSA4sC+BwNgAAwsdbAB6DlAQwDm5gk8MU9gAAwsjYGlP46bi5TgQQAoaux7MAAGwEB6QACMtYEBAVh7fdm/rC8YAANTGJhy4pf0UkQJAkBxYN+DATAABpY62AD0HKAhAHPzBJ6YJzAABpbGwNIfx81FSvAgABQ19j0YAANgID0gAMbawIAArL2+7F/WFwyAgSkMTDnxS3opogQBoDiw78EAGAADSx1sAHoO0BCAuXkCT8wTGAADS2Ng6Y/j5iIleBAAihr7HgyAATCQHhAAY21gQADWXl/2L+sLBsDAFAamnPglvRRRggBQHNj3YAAMgIGlDjYAPQdoCMDcPIEn5gkMgIGlMbD0x3FzkRI8CABFjX0PBsAAGEgPCICxNjAgAGuvL/uX9QUDYGAKA1NO/JJeiihBACgO7HswAAbAwFIHG4CeAzQEYG6ewBPzBAbAwNIYWPrjuLlICR4EgKLGvgcDYAAMpAcEwFgbGBCAtdeX/cv6ggEwMIWBKSd+SS9FlCAAFAf2PRgAA2BgqYMNQM8BGgIwN0/giXkCA2BgaQws/XHcXKQEDwJAUWPfgwEwAAbSAwJgrA0MCMDa6/va/v3r739+8TAHYGB9DHxRCF8rlvecPwjAPdftPVhthf/fHz95mAMwsDAG2j6HAJS8AYEAQAD6ZAICAPmBAK6PAQhAycO/FX4IAAQAAsAht/4hxxr31xgCAAHgH0mWxQAEgMOhfzgwN+vPDQSgbPHnBoAbAAgAh9z6hxxr3F9jCAAEgBuAshi4BwGIRG1PQR/FNtueXNE35vZ+9D26P/vus36j9/Pvclkxs2PM+imvWh/TZbdvybIf1Y6+ZWTz8Wf9POZoGQJQtvhzA+DFBPk7GWiF4ehi80y+rEhmuix35uc6l7P4Pbojc82MOzverN9ozK0cW3blnvWTv9qtOLe7rPh3t7PvMOt35vtDACAA3ACUxcD3Q78VJD1XIACjAimbWi+S0ql1m+Rm0zPSNZvyRH/FuY/rpM/iPKdipIv9Ubz7Rj/1PW+mU45e6/HRJ8uX6Vqc8sgec/X6ipuxu28m98be0nsu/xa9k8dnvm73GMmfaiEAVgi0SDVabgBqrPOfg27P996FALTC2b5LBdRl2aIu840+3m9y7CuHWrf3dO7jOaPs8THGbZncdDMx0U+5stbzbdmjr/ebHPtZvqjzmGhrfbeP5JFNeXs+R4wzyqHx391CACAA/22gBnwe5kAYuBMBUGH14h0Lqb7L9e7vsvLJd2Tr+cQcse85Z+RRvN5B7TP5FJu1LV/2yLc3nuxq3a/pYl9+sc3G9ti9chzb433sqPd+T465PV+0eY7o964+BKAD7rY4az/cAKy9vq/h94oEwAumyyqsUZcVUfeJcuv7o3j301iyqY0+8vN87rNXVr7eeLPj9PyUN2v9XbfsI99oi/0sd9Nt+bl9Rs5ytjiP7fnoHd3X5V6c8ruvy8r77hYCEDa9L9TaciMAPMxBjoErEgAvrl48Z2QV1j2+WYy/g+x7dIqZeQ/3iWO4zeU9fnqXrTbmj/5ud3nk12wjX4/d8nP7jDwauxcfY57xG+Xw732nDAEoTQC+/+JpoOZhDhoGrkAAYsFUYRwVX49xv63Y6Ov9Jse+8ql1e0/nPrPyrJ/GbO1MTPTz+Ch7vmiLeaKv912OcVle6WKc9GrdPpJHtq1czT4b3/Mb5dD4724hAGUPPf4E0DYqTz4HVyEAKpq+TtJ564UzFuAYK1/pY9/jfYzorzj3cZ30WZyPsSVvxWfjKGeMVV/2+L5Z32Nclq90sR/H2OorPrbKH1v5ed4tWTkUq3ZL73lbTNaXTm3MLX1s5feJFgJQ9hCAALSNyJPPwZUIwCcKo4+pgu26d8ifGvcd3/buMZjL/L8GCAEoewhAADj888O/zQsE4E/B/NTh8a5xR/vgHQf1O8Z/11y+Y76OHAMCAAHgV3BZDEAAZorppw6PT407Myd382Eu/xBaXzsIQNnizw1AKwo8+RxwA5AXTC+eyMzR3TEAASh7CEAAOPzzw7/NCwSAw+3uhxvvv41hCAAEgF/BZTEAAeCQ2D4kmKN15wgCULb4cwPADQAEgMNt3cONtd1eWwgABIAbgLIYgABwSGwfEszRunMEAShb/LkB4AZgTABaceBhDsDA2hj4ohD2C+G6cwMBWHdtK+KZbwbPYOBJDDBxT07cja/PIQD11px9zpqDATDwgIEHxY0PNr5lDuAQgLl5Ak/MExgAA0tjYOmPg8yk/84BAkBRY9+DATAABtIDAmCsDQwIwNrry/5lfcEAGJjCwJQTv6SXIkoQAIoD+x4MgAEwsNTBBqDnAA0BmJsn8MQ8gQEwsDQGlv44bi5SggcBoKix78EAGAAD6QEBMNYGBgRg7fVl/7K+YAAMTGFgyolf0ksRJQgAxYF9DwbAABhY6mAD0HOAhgDMzRN4Yp7AABhYGgNLfxw3FynBgwBQ1Nj3YAAMgIH0gAAYawMDArD2+rJ/WV8wAAamMDDlxC/ppYgSBIDiwL4HA2AADCx1sAHoOUBDAObmCTwxT2AADCyNgaU/jpuLlOBBAChq7HswAAbAQHpAAIy1gQEBWHt92b+sLxgAA1MYmHLil/RSRAkCQHFg34MBMAAGljrYAPQcoCEAc/MEnpgnMAAGlsbA0h/HzUVK8CAAFDX2PRgAA2AgPSAAxtrAgACsvb7sX9YXDICBKQxMOfFLeimiBAGgOLDvwQAYAANLHWwAeg7QEIC5eQJPzBMYAANLY2Dpj+PmIiV4EACKGvseDIABMJAeEABjbWBAANZeX/Yv6wsGwMAUBqac+CW9FFGCAFAc2PdgAAyAgaUONgA9B2gIwNw8gSfmCQyAgaUxsPTHcXOREjwIAEWNfQ8GwAAYSA8IgLE2MCAAa68v+5f1BQNgYAoDU078kl6KKEEAKA7sezAABsDAUgcbgJ4DNARgbp7AE/MEBsDA0hhY+uO4uUgJHgSAosa+BwNgAAykBwTAWBsYEIC11/e1/fvX3//84mEOwMD6GPiiEL5WLO85fxCAe67be7DaCv+/P37yMAdgYGEMtH0OASh5AwIBgAD0yQQEAPIDAVwfAxCAkod/K/wQAAgABIBDbv1DjjXurzEEAALAP5IsiwEIAIdD/3BgbtafGwhA2eLPDQA3ABAADrn1DznWuL/GEAAIADcAZTFwDAGIRGpPwR3FNtueXNE35vZ+9D26P/vus36j9/Pvclkxs2PM+imv2l5cT684tUf47cnRfP3Re1ylnf2W0fvO5oAABDA4MNaWuQFYe32/F7m939oKw6jAyNbySlab6WTzNvNzncse94x8ZK6Z8WfHm/UbjbmVY8uu3LN+8lfbi+vpFbe3HeUb2XyczC/Tecy75SPeZzYHBAAC8I0NN+DwMAczBGBUZGRT60VUOrVuk9xseka6ZlOe6K8493Gd9Fmc51SMdLE/inff6Ke+5810ytFrPT76ZPkyXYtTHtljrl5fcdEe9cqb6T1Wfk3nvpLdLp+o83wuK4frlMN1yhf91ZfdY5Qns83GKYfnVT7lkE192V0fdbLFFgJghUaTVqPlBqDGOv85SPd871EEoBWcNq4Kj8uyRV3mG3283+TYVw61bu/p3MdzRtnjY4zbMrnpZmKin3Jlrefbskdf7zc59rN8UecxbnO9y83H+yM52mJf47leuqzt+bne5exd3d6Tn41r+Y7Omc2DdBAACMB/gBPwaJ87MFebtyMJgIqhFzYVILWaP/UVo36M9b7LMa4Xn/l5nr1yzOfxege1buvJMZ9is7blyB75jsaQT2vdL+u7r8vZ2NLJb5TbbS7Hd9hj07ixjTlkd73Lr7yD53H5Ezn1nbGFAHQ2T1uwtR9uANZe39fw+wwB8CLnsgpe1MViJD/p3b/J8cn8Yo6ej/xmcsb36OXs+WVjZTniu3g++Wftlp/bXY65oi32o7/6PT/XNzk+WbzHNLv3Xd6yKXdsYw7ZXd/k+GR+TXdUnPKfldPzuwwBSBY7Lv6a/UYAeJiDHAPPEAAvXrEwquj09Ft2j5Ov2miL/eY3q8tyemxPjmMc4ad32Wp9rMzX7S5H32iL/eivfs/P9S4rTq3bXG5277u8ZVPu2MYcsrveZdnVRpv3XZa/2mjzvsvN3/suK5faaPO+y/LPWghAaQLwyHQbcHiYgxkC0ApKVmhc57IKkHRqpY/53O5y5ud2l5V7Ruc+s/Ksn94je3fZPFf0k0/Wxrjo43aX4xgjW8zp/Rgnm+tdHo3rfk2OfeUe5XCfKHs+2aJu1G82t/fkrffrxY3yP5tT35m1EICyBx5/AtBmo30kPLMEQEXJ51A6b734NF/1Pc71inWd+ypefmrdP/NxncfEOO9vyc3uPsrrY8lHft5KVpx8PX4kyz+2ipE+9pteutZu9d3X5RgnW9S3vh75tLbnF22Zn/JkeWXzVn7eul1yz970zUd2+auVXn6ul9zazC6dWvm3vh7pejlkz/xl8xYCYJOrSavRQgBqrPOf4rHne/cQAC8on5Dbd1Ua9xPf+qkxP7W2ve+92vv03nNWDwGAAPxml3sOCHyfO1jvMm8QgP5/PlXF9V2HwQgzepcz23eOH+c09re+8+x33fs+W+/7aTsEAAIAASiLgT6JgQBchwB8+pB49/h+iL977K3xIAAUy0UOTP4E4IUG+TsZuBMB2Cra2LfJDHNUc464AShLaCAAHPrfD32fDwhAzQMBIlBr3SEAEIBFbjT6h5kfbMhz8wQBqHUQcPDXXG8IAAQAAlAWA30yAAGoeSBABGqtOwSgbPHnTwDcBkAAOPBqHXis9/f1hgBAALgBKIuBMQFoxYGHOQADa2Pgi19C/UK47txwA7Du2lbEM98MnsHAkxhg4p6cuBv/eoYA1Ftz9jlrDgbAwAMGHhQ3Ptj4ljmAQwDm5gk8MU9gAAwsjYGlPw4yk/6NGwJAUWPfgwEwAAbSAwJgrA0MCMDa68v+ZX3BABiYwsCUE7+klyJKEACKA/seDIABMLDUwQag5wANAZibJ/DEPIEBMLA0Bpb+OG4uUoIHAaCose/BABgAA+kBATDWBgYEYO31Zf+yvmAADExhYMqJX9JLESUIAMWBfQ8GwAAYWOpgA9BzgIYAzM0TeGKewAAYWBoDS38cNxcpwYMAUNTY92AADICB9IAAGGsDAwKw9vqyf1lfMAAGpjAw5cQv6aWIEgSA4sC+BwNgAAwsdbAB6DlAQwDm5gk8MU9gAAwsjYGlP46bi5TgQQAoaux7MAAGwEB6QACMtYEBAVh7fdm/rC8YAANTGJhy4pf0UkQJAkBxYN+DATAABpY62AD0HKAhAHPzBJ6YJzAABpbGwNIfx81FSvAgABQ19j0YAANgID0gAMbawIAArL2+7F/WFwyAgSkMTDnxS3opogQBoDiw78EAGAADSx1sAHoO0BCAuXkCT8wTGAADS2Ng6Y/j5iIleBAAihr7HgyAATCQHhAAY21gQADWXl/2L+sLBsDAFAamnPglvRRRggBQHNj3YAAMgIGlDjYAPQdoCMDcPIEn5gkMgIGlMbD0x3FzkRI8CABFjX0PBsAAGEgPCICxNjAgAGuvL/uX9QUDYGAKA1NO/JJeiihBACgO7HswAAbAwFIHG4CeAzQEYG6ewBPzBAbAwNIYWPrjuLlICR4EgKLGvgcDYAAMpAcEwFgbGBCAtdf3tf3719///OJhDsDA+hj4ohC+VizvOX8QgHuu23uw2gr/vz9+8jAHYGBhDLR9DgEoeQMCAYAA9MkEBADyAwFcHwMQgJKHfyv8EAAIAASAQ279Q4417q8xBAACwD+SLIsBCACHQ/9wYG7WnxsIQNnizw0ANwAQAA659Q851ri/xhAACAA3AGUxcE8CEInbngI/im22Pbmib8zt/eh7dH/23Wf9Ru/n3+WyYmbHmPVTXrXPxh0VrzyxffW9Yr539CEAZYs/NwBtw/Lkc9AKwzsK0N4xsiKb6bK8mZ/rXM7i9+iOzDUz7ux4s36jMbdybNmVe9ZP/mqfjTsqXnlWaCEAZQ8BCEArJDz5HFyRAIwKv2xqvThLp9ZtkptNz0jXbMoT/RXnPq6TPovznIqRLvZH8e4b/dT3vJlOOXqtx0efLF+ma3HKI3vM1esrTvZevPTu39P5+0iWr8aRXq3nlS76Zjnc59MyBMA2vharRgsBqLHOfw62Pd97VwIQC3H7Zi+ymgPXSXZfl7Ocbnc5y9XTeVyT1Y+yx8sneyf3k/ysn8dH2d8h2kbjZTbP5XKWVzr3m5GzcZVLtl4e2eXf/Hq+PX3MoVxXaCEAEID/AC1g0z53YK42b3cmACq4XpBjsdV6ud79XVY++Y5sPZ+YI/Y954w8itc7qH0mn2KztuXLHvn2xpNdrfs1XezLL7YjbEBBAAAgAElEQVTu57L7Rb33Xc7GHdlnbdHP3+1KMgSgA+a2gGs/3ACsvb6v4fcOBMCLrMsq6lGXFV73iXLr+6N499NYsqmNPvLzfO6zV1a+3niz4/T8lDdr/V237CPfaIv9LHfTRb/Wz3Qe73aXe/meifW8Lnuuq8kQgLDJ28LVeBoB4GEOcgzcgQB48faCOyOrEO/xzWL8HWTfo1PMzHu4TxzDbS7v8dO7bLUxf/R3u8sjv2Yb+Xpsz8/1LsfcI1v0jf1RrNtc9ne/mgwBKHPgR2LDDUDbpDz5HFyRAMRirGLqxdblaB/ZYu7o6/0mx77GUuv2ns59ZuVZP43Z2pmY6OfxUfZ80RbzRF/vuxzjsrzSedyMHHN7TLRt9Vusx8/IWc6mu8IDASh7CEAAtJlpH0nAVQmAiqmvmXTeenGNRTrGylf62Pd4HyP6K859XCd9FudjbMlb8dk4yhlj1Zc9vm/W9xiX5Std7McxtvqKj20WF3Utpun0eI6o2xvruWPe2I9juf0KMgTAQKLFqtFCAGqs858iuOd7r0wAPl042zx+4h0+Ne4nvvWqY662BhAACMBvlrzngMD3uYP1LvMGAehf0X7qEHjXuCOMvuNg/vT4o2981xqM3uFIGwQAAgABKIuBPomBANQlAEceMKvlggBQLBc5MPkTwOiXRnUbBKBPAFY71PieumvNDUBZQgMBqH7Ij74fAlD3UIAQ1Fl7CAAEYJEbjf519uigw5bPGwSgziHAgV93rSEAEAAIQFkM5Id/I0UQgLqHAoSgztpDAMoWf/4EwK9/CACHXZ3DjrV+XGsIAASAG4CyGBgTgFYceJgDMLA2Br74JdQvhOvODTcA665tRTzzzeAZDDyJASbuyYm78a9nCEC9NWefs+ZgAAw8YOBBceODjW+ZAzgEYG6ewBPzBAbAwNIYWPrjIDPp37ghABQ19j0YAANgID0gAMbawIAArL2+7F/WFwyAgSkMTDnxS3opogQBoDiw78EAGAADSx1sAHoO0BCAuXkCT8wTGAADS2Ng6Y/j5iIleBAAihr7HgyAATCQHhAAY21gQADWXl/2L+sLBsDAFAamnPglvRRRggBQHNj3YAAMgIGlDjYAPQdoCMDcPIEn5gkMgIGlMbD0x3FzkRI8CABFjX0PBsAAGEgPCICxNjAgAGuvL/uX9QUDYGAKA1NO/JJeiihBACgO7HswAAbAwFIHG4CeAzQEYG6ewBPzBAbAwNIYWPrjuLlICR4EgKLGvgcDYAAMpAcEwFgbGBCAtdeX/cv6ggEwMIWBKSd+SS9FlCAAFAf2PRgAA2BgqYMNQM8BGgIwN0/giXkCA2BgaQws/XHcXKQEDwJAUWPfgwEwAAbSAwJgrA0MCMDa68v+ZX3BABiYwsCUE7+klyJKEACKA/seDIABMLDUwQag5wANAZibJ/DEPIEBMLA0Bpb+OG4uUoIHAaCose/BABgAA+kBATDWBgYEYO31Zf+yvmAADExhYMqJX9JLESUIAMWBfQ8GwAAYWOpgA9BzgIYAzM0TeGKewAAYWBoDS38cNxcpwYMAUNTY92AADICB9IAAGGsDAwKw9vqyf1lfMAAGpjAw5cQv6aWIEgSA4sC+BwNgAAwsdbAB6DlAQwDm5gk8MU9gAAwsjYGlP46bi5TgQQAoaux7MAAGwEB6QACMtYEBAVh7fV/bv3/9/c8vHuYADKyPgS8K4WvF8p7zBwG457q9B6ut8P/74ycPcwAGFsZA2+cQgJI3IBAACECfTEAAID8QwPUxAAEoefi3wg8BgABAADjk1j/kWOP+GkMAIAD8I8myGIAAcDj0DwfmZv25gQCULf7cAHADAAHgkFv/kGON+2sMAYAAcANQFgPXIgCRkO0p3KPYZtuTK/rG3N6Pvkf3Z9991m/0fv5dLitmdoxZP+VVuxW3Zc/yeIzL8h21zd+fzFd22WJf+tm2xc/6HuEHAQiLrAVcv+UGYP01/l7A9nxvKwxHFJjZHO3dom+miz6tn/m5zuUsfo/uyFwz486ON+s3GnMrx5ZduWf95K+2xfViRzbFq/UcLss+02ZxUbfVnxkn+sSc0X50HwIAAfjGchsAeZiDdxKAUdGTTa0XQOnUuk1ys+kZ6ZpNeaK/4tzHddJncZ5TMdLF/ijefaOf+p430ylHr/X46JPly3QtTnlkj7l6/ZF/tGkM5fK+ZMV4X/6jVv6Zj2xZbuk8LtM1u/StlX+mk+2sFgJgBcIXYH2ZG4D11/jP4bf3W69GAFQ0VQjb90iWLepkd73LinM/t7vsPpLVRj/vN1n9KHu8fJpuRn7WT2NmrY+7ZY++3m9y7Gf5ok4xamVXX23Tuxz7buvJyp21HhPtbnM5vkPsu6/LI7849hl9CAAE4L/N1EDJwxwIA1ckACqWsYB6YdT7R536Mdb7LmssxamNPpmf++yVYz6P1zuodVtPjvkUm7UtR/bIdzSGfFrrflnffV1WnFrZ1Feb5ezZenrlzlqPiXa3ubz1Tp5nFBdtHneGDAHogL4txNoPNwBrr+9r+P0kAfAi6LKKbNRlhdF9otz6/ije/TSWbGqjj/w8n/vslZWvN97sOD0/5c1af9ct+8g32mI/y9107idZbc+uXDN+7qO4rB35uc3l+H7K23wyP+nVur/kd7QQgFAMtCDrt40A8DAHOQY+SQBa4Wv7z9tZWUVT8aM4+ar1mBjX8+n5Zf6evyfHfEf46V22Wh8r83W7y9E32mI/+qvvfpLVNp+ePLKNYjRubD1mZIt+se+xbnPZfZo8skXfI/oQgNIE4PsvoQY+HuagYeCdBKBX+LwYuqzCJ51a6WM+t7uc+bndZeWe0bnPrDzrp/fI3l02zxX95JO1MS76uN3lOMbIFnN6fyvO7VGOfeXt6WXvtR4nn6jb03dfl1tu77uscc9sIQBlDz3+BNA2G08+B+8mACqEvh7SeevF0Iulx7lesa5z3yyf7G6T7Hmka61iot37W7JyxLyx737K6brR+3iuKCtHbOUnfew3vXSt3eq7r8tbcZldOrVx/KaXTa2POZIVqzb6xnyxr3cZ6aOt9aMujntkHwJQ9hCAAGiz0T6SgE8QgCML2zO53ll4/f0+Na6/A3L/v5a38txAACAA3369cBg+HoYV5wQC8L4D4V0EYITjdxxynx5f33iV99D7fLKFAEAAIABlMdAnOxCA9QjAJw8axn4fnvbMNQSgbPHnTwCjXwLVbRUJwJ7Cie81DzTWZd+6QAAgANwAlMUANwAcGPsODOZrrfmCAJQt/twAVP+VP/p+bgDWKvQc3KxnhgEIAASAG4CyGOAGICuK6Dgsq2AAAlC2+HMDMPoFXN3GDQCHYJVDsPJ3QgAgANwAlMXA+AagFQce5gAMrI2Br+q/dmp+PzcANde9f+gzH8wNGCiJgZIfXfyXLwSAYse+BwNgAAxwBVqQDEAA2PgUfzAABsAABAACAAYKYoDiT/EHA2CA4l+w+HMDwMan+IMBMAAGIAAQADBQEAMUf4o/GAADFP+CxZ8bADY+xR8MgAEwAAGAAICBghig+FP8wQAYoPgXLP7cALDxKf5gAAyAAQgABAAMFMQAxZ/iDwbAAMW/YPHnBoCNT/EHA2AADEAAIABgoCAGKP4UfzAABij+BYs/NwBsfIo/GAADYAACAAEAAwUxQPGn+IMBMEDxL1j8uQFg41P8wQAYAAMQAAgAGCiIAYo/xR8MgAGKf8Hizw0AG5/iDwbAABiAAEAAwEBBDFD8Kf5gAAxQ/AsWf24A2PgUfzAABsAABAACAAYKYoDiT/EHA2CA4l+w+HMDwMan+IMBMAAGIAAQADBQEAMUf4o/GAADFP+CxZ8bADY+xR8MgAEwAAGAAICBghig+FP8wQAYoPgXLP7cALDxKf5gAAyAAQgABAAMFMQAxZ/iDwbAAMW/YPHnBoCNT/EHA2AADEAAIABgoCAGKP4UfzAABij+BYs/NwBsfIo/GAADYAACAAEAAwUxQPGn+IMBMEDxL1j8uQFg41P8wQAYAAMQAAgAGCiIAYo/xR8MgAGKf8Hizw0AG79f/P/6+59fPMwBGFgfA18Uwn4hXHduIADrru3reG6F/98fP3mYAzCwMAbaPocAlLwBgQBAAPpEAQIA+YEAro8BCEDJw78VfggABAACwCG3/iHHGvfXGAIAASj47x/6Bx+k4H/nhhuAftHkQGFuVsEABAACAAEoi4E+EYIAcMitcsjxHX0sQwDKFn/+BMCv/XUIQFzLPUV/FNtse3JF35jb+9H36P7su8/6jd7Pv8tlxcyOMeunvGp9TMmytfbZvJ7D5aPzee53yhAACAA3AGUxsAYByIpxpssKa+bnOpez+D26I3PNjDs73qzfaMytHFt25Z71k7/aLM51LiuG9ud//1Nf/lcAJQ8AbgBaUeDJ5+AufwIYFXbZ1HrBl06t2yQ3m56RrtmUJ/orzn1cJ30W5zkVI13sj+LdN/qp73kznXL0Wo+PPlm+TNfilEf2mKvXV5zbXSc5yyubYrN+ppN/a5U3+rnPFWVuAGyT+yKuL0MA1l/jPwfY3m9diQCoQKsAt7mQLFvUye56lxXnfm532X0kq41+3m+y+lH2ePk03Yz8rJ/GzFofd8sefb3f5NjP8kWdx8jmulFe92ux3t8rx3i9y1VbCAAE4D/Aa4PQPn9orjR3qxEAFWYv6LEoa/1c7/4uK598R7aeT8wR+55zRh7F6x3UPpNPsVnb8mWPfHvjya7W/Zou9uUX29HYWR7P63L0jTaN63qXZb9LCwHoALct6toPNwBrr+9r+L0rAfBi7LIKe9Rlhdp9otz6/ije/TSWbGqjj/w8n/vslZWvN97sOD0/5c1af9ct+8g32mI/y910W37R7v2erLGa3X3ieNGmuDu0EICwobXY67eNAPAwBzkG7koAvDh7YZ6RVbD3+GYx/g6y79EpZuY93CeO4TaX9/jpXbbamD/6u93lkV+zjXw9dssv2nv9qO+N4X4uu/8dZAhAaQLw/ddMAzIPc9AwcBcC0IpsVoBd57KKsnRqpY/53O5y5ud2l5V7Ruc+s/Ksn94je3fZPFf0k0/Wxrjo43aX4xgjW8zp/RjntjjGqB/zeH9GznLHd7lSHwJQ9tDjTwBtQ/Pkc3AnAqCi62spnbdeeGMxj7HylT72Pd7HiP6Kcx/XSZ/F+Rhb8lZ8No5yxlj1ZY/vm/U9xmX5Shf7cYytvuJjG+O27Jl/pmt5mj7asn7mF9/jan0IQNlDAAKgDUv7SALuRgA+XVjjgfCu9/nUuO/6vneOU3EuIQAQgN8Ml4Pw8SCsOicQgP5/PjU7lD51eLxr3NE+yObjaN3Z479rHo+el1fzQQAgABCAshjoEx4IAATg1cPlLvFVD/+2PhCAssWfPwGMflVUt0EA9hGAuxx2vCfr6hiAAEAAuAEoiwFuALwYInM4VsMABKBs8ecGoPqv/NH3cwPAYVjtMKz4vRAACAA3AGUxwA1AxaLPN0PuhAEIQNnizw3A6BdwdRs3ABwSOiRo18UCBAACwA1AWQyMbwBaceBhDsDA2hj4qv5rp+b3cwNQc937hz7zwdyAgZIYKPnRxX/5QgAodux7MAAGwABXoAXJAASAjU/xBwNgAAxAACAAYKAgBij+FH8wAAYo/gWLPzcAbHyKPxgAA2AAAgABAAMFMUDxp/iDATBA8S9Y/LkBYONT/MEAGAADEAAIABgoiAGKP8UfDIABin/B4s8NABuf4g8GwAAYgABAAMBAQQxQ/Cn+YAAMUPwLFn9uANj4FH8wAAbAAAQAAgAGCmKA4k/xBwNggOJfsPhzA8DGp/iDATAABiAAEAAwUBADFH+KPxgAAxT/gsWfGwA2PsUfDIABMAABgACAgYIYoPhT/MEAGKD4Fyz+3ACw8Sn+YAAMgAEIAAQADBTEAMWf4g8GwADFv2Dx5waAjU/xBwNgAAxAACAAYKAgBij+FH8wAAYo/gWLPzcAbHyKPxgAA2AAAgABAAMFMUDxp/iDATBA8S9Y/LkBYONT/MEAGAADEAAIABgoiAGKP8UfDIABin/B4s8NABuf4g8GwAAYgABAAMBAQQxQ/Cn+YAAMUPwLFn9uANj4FH8wAAbAAAQAAgAGCmKA4k/xBwNggOJfsPhzA8DGp/iDATAABiAAEAAwUBADFH+KPxgAAxT/gsWfGwA2PsUfDIABMAABgACAgYIYoPhT/MEAGKD4Fyz+3ACw8fvF/6+///nFwxyAgfUx8EUh7BfCdecGArDu2r6O51b4//3xk4c5AAMLY6DtcwhAyRsQCAAEoE8UIACQHwjg+hiAAJQ8/FvhhwBAACAAHHLrH3KscX+NIQAQgIL//qF/8EEK/nduuAHoF00OFOZmFQxAACAAEICyGOgTIQgAh9wqhxzf0ccyBKBs8edPAPzaX58AxDXecxiMYpttT67oG3N7P/oe3Z9991m/0fv5d7msmNkxZv2U11sfN+aJfY9r8pY9+t+tDwGAAHADUBYDaxOArHhnuqxoZ36uczmL36M7MtfMuLPjzfqNxtzKsWVX7lk/+avN4lznsmIqtRCAssWfG4C2+XnyObj7nwBGhV02tV7wpVPrNsnNpmekazblif6Kcx/XSZ/FeU7FSBf7o3j3jX7qe95Mpxy91uOjT5Yv07U45ZE95ur1FZfZlct9JMf2lXfIxr6KDgJgm9kBsb4MAVh/jf8cVHu/tQIB8KIeZfXbvGXF2vUuK04xmnfvS1Yb45s+6rzvOaPsOWOM2zI5jtuLj37KlbWeY8sefb3f5NjP8mW6GOs+nrPpo6/bRzbPeScZAgAB+A16AZz2+YNzlbmrQgCyoh8LuNbU9U2nvsvKN2Pr+cQcse/jzcijeL2D2mfyKTZrW77skW9vPNnVul/Txb78Rq3ew31inlF/ZPOcd5IhAB2ACizrttwArLu2edHd872rEYD27SrMLjed5kX2XutxUVYOtcrhfhpLNrXRR37KpTbz99ierHxZvGwao5fD7ZKVb9R6vszP7S5H32iL/eg/6nusyy1m1B/ZRuNd2QYBKE0AGgngYQ4eMbAaAfDi7oV8RlYB3+Obxfg7yL5Hp5iZ93CfOIbbXN7jp3fZamP+6O92l0d+zTby9djMz3UuZ3nd7nLm6+PeRYYAlCYAr/9SbJuCZ705uDsB6BVoL+Iuq2BLp1b6mM/tLmd+bndZuWd07jMrz/rpPbJ3l81zRT/5ZG2Miz5udzmOMbLFnN6PcXvzenyTY9/HuqMMASh7gPEnAG1o2kcCswIBULH39ZXOWy/cscDHWPlKH/se72NEf8W5j+ukz+J8jC15Kz4bRzljrPqyx/fN+h7jsnyli/04xlZf8VmrMdS6T9SNxpEtxni+u8kQAAgAv+DLYuDx4FdxW4UAfLog69B493t8atx3f+c7x1txTiEAZYs/NwA67GgfiQAEoP+fT91z6Hzq0HjXuKO9s2eenvV95/jvmtNn5+KZOAgABIAbgLIYeDz4VVAhABCAZw6UlWMgABTKhQ5LbgB02NE+EgEIwDEEYOUDkW+7P0a4AShLaiAAHPyPB7/mBAJw/+LOAc0abmEAAgABWOhWo3+g6WCjnZsjCACHx9bhgf3+GIEAQAAgAGUx0CcDEID7F3cOaNZwCwMQgLLFnz8BcBsAAdgqkNg5RFfGAAQAAsANQFkMjAlAKw48zAEYWBsDX/wS6hfCdeeGG4B117Yinvlm8AwGnsQAE/fkxN341zMEoN6as89ZczAABh4w8KC48cHGt8wBHAIwN0/giXkCA2BgaQws/XGQmfRv3BAAihr7HgyAATCQHhAAY21gQADWXl/2L+sLBsDAFAamnPglvRRRggBQHNj3YAAMgIGlDjYAPQdoCMDcPIEn5gkMgIGlMbD0x3FzkRI8CABFjX0PBsAAGEgPCICxNjAgAGuvL/uX9QUDYGAKA1NO/JJeiihBACgO7HswAAbAwFIHG4CeAzQEYG6ewBPzBAbAwNIYWPrjuLlICR4EgKLGvgcDYAAMpAcEwFgbGBCAtdeX/cv6ggEwMIWBKSd+SS9FlCAAFAf2PRgAA2BgqYMNQM8BGgIwN0/giXkCA2BgaQws/XHcXKQEDwJAUWPfgwEwAAbSAwJgrA0MCMDa68v+ZX3BABiYwsCUE7+klyJKEACKA/seDIABMLDUwQag5wANAZibJ/DEPIEBMLA0Bpb+OG4uUoIHAaCose/BABgAA+kBATDWBgYEYO31Zf+yvmAADExhYMqJX9JLESUIAMWBfQ8GwAAYWOpgA9BzgIYAzM0TeGKewAAYWBoDS38cNxcpwYMAUNTY92AADICB9IAAGGsDAwKw9vqyf1lfMAAGpjAw5cQv6aWIEgSA4sC+BwNgAAwsdbAB6DlAQwDm5gk8MU9gAAwsjYGlP46bi5TgQQAoaux7MAAGwEB6QACMtYEBAVh7fdm/rC8YAANTGJhy4pf0UkQJAkBxYN+DATAABpY62AD0HKAhAHPzBJ6YJzAABpbGwNIfx81FSvAgABQ19j0YAANgID0gAMbawIAArL2+r+3fv/7+5xcPcwAG1sfAF4XwtWJ5z/mDANxz3d6D1Vb4//3xk4c5AAMLY6DtcwhAyRsQCAAEoE8mIACQHwjg+hiAAJQ8/FvhhwBAACAAHHLrH3KscX+NIQAQAP6RZFkMQAA4HPqHA3Oz/txAAMoWf24AuAGAAHDIrX/Iscb9NYYAQAC4ASiLgTUIQCRyewr+KLbZ9uSKvjG396Pv0f3Zd5/1G73fETlG+Ue22bGbX3w8b7TFvM/YFePjXE2GACTA0MKt3XIDsPb6Pha8Pd/bCsPVilX2Pu2boj7TRZ/Wz/xc53IWv0d3ZK6ZcWfHm/UbjXlEjlH+kW127MzPdS5rPNe5nNmla23m6/YryRAACMADM24A5qk9B3cgAKNCK5taL7rSqXWb5P/f3pkkSW4rQbQurXPoTjqNFtpqrW8hmf/2igqAYE7MRLwFDUMMIAGHwxPVJoVNz6wvbMqT/RXnPt6n/irOcypGfbk9i3ff7Ke25636lGNU5vjwq/oUL5vGUr9K9ctP/VGqz33U5365Xvl4n9cV631elz3Kqr/q85h3qiMAbKPHwvV5uAHos9bncb2LAMgknclZGKhI2X29XuV0u9eVd6XPfaKudq57TvlU7+R+qt/q5/G5nt9B7XvfO7+r2sqvdn6fqu0xsnuf11ft4XcUp1zvWiIAWh36fhAgAGLz8tRzsJMAEFFXZC1iFg7UVozaOdbbXs9xo/jKz/Ocred8Hq93UOm2UT3nU2xVjnKs9OdxPCbbVtrV+ykucvvjvt6verZ7W/XwVV1l1Sfbu5UIgAQKLf7+JQJg/zX+TnhnvvcTBUB8nwjW69Gnb5d9VHpcriuHSuVwP40lm8rsIz/lUln5e+yornxVvGwaY5TD7aor36yc5VPcyEfvVvll20pbeXLp42fbSt5RfNVf9VVjvkMfAqC1AAgRwMMc/MTAJwoAJ3In4ZW6yPiMbxXj7yD7mT7FrLyH++Qx3Ob1M356l6PS85+tz94n21bao3f196p8Krv3ed3jq/6qz2PeqY4AaC0Abv+FGCDn2XcOPkEABJFWZOt9Xhfxqk+l+nM+t3u98nO715V7pc99VuurfnqP6t1l81zZTz5V6XGr9RW/6h08rrJX77fil/PmmCO7j1v5uv2d6giAtgcZfwKIjcpTz8GnCAARta+j+rx00nWC9jjvV6z3uW+VT3a3qe551BelYrLd20d15ch5c9v9lNP7Zu/juXJduRQv+1F/HtvjZjb5aTwfx21eP/Kp7N4X9fx4fq97nPe/Yx0BUCxsXug92wiAPdf1J1Hd8p2fJACuJtaY3yve4apx7/3WT33ve7/7HeMRAAiAH8r2lgODmMccvO8yjwiA8X8+NRP5VQfaq8adYTLPxUr7Ge/96Hdc+Y4dfBAACAAEQFsMjEULAgAB8KwD7hkC4FnvunteBEBb8udPALNfDd1tCIB1AbD7IcH37YsFBAACgBuAthjgBoDDbd/DjbU9XlsEQFvy5wag+6/82fdzA3BMnhwwzNGnYwABgADgBqAtBrgB+HQC5/0RIfdgAAHQlvy5AZj9Au5u4waAg+Weg4XYz8APAgABwA1AWwzMbwCCHHiYAzCwNwa+uv/a6fn93AD0XPfxoc98MDdgoCUGWn5081++CADIjn0PBsAAGOAKtKEYQACw8SF/MAAGwAACAAEABhpiAPKH/MEAGID8G5I/NwBsfMgfDIABMIAAQACAgYYYgPwhfzAABiD/huTPDQAbH/IHA2AADCAAEABgoCEGIH/IHwyAAci/IflzA8DGh/zBABgAAwgABAAYaIgByB/yBwNgAPJvSP7cALDxIX8wAAbAAAIAAQAGGmIA8of8wQAYgPwbkj83AGx8yB8MgAEwgABAAICBhhiA/CF/MAAGIP+G5M8NABsf8gcDYAAMIAAQAGCgIQYgf8gfDIAByL8h+XMDwMaH/MEAGAADCAAEABhoiAHIH/IHA2AA8m9I/twAsPEhfzAABsAAAgABAAYaYgDyh/zBABiA/BuSPzcAbHzIHwyAATCAAEAAgIGGGID8IX8wAAYg/4bkzw0AGx/yBwNgAAwgABAAYKAhBiB/yB8MgAHIvyH5cwPAxof8wQAYAAMIAAQAGGiIAcgf8gcDYADyb0j+3ACw8SF/MAAGwAACAAEABhpiAPKH/MEAGID8G5I/NwBsfMgfDIABMIAAQACAgYYYgPwhfzAABiD/huTPDQAbH/IHA2AADCAAEABgoCEGIH/IHwyAAci/IflzA8DGH5P/b7//8Q8PcwAG9sfAF0Q4JsJ95wYBsO/a3o/nIP4///qbhzkAAxtjIPY5AqDlDQgCAAEwFgoIAMQPAnB/DCAAWh7+QfwIAAQAAoBDbv9DjjUerzECAAHQ8N8/jA8+RBNGOZUAACAASURBVMF/c8MNwJg0OVCYm10wgABAACAA2mJgLIQQABxyuxxyfMcYywiAtuTPnwD4tf+eAiCvyxkCn8WG7Uyu7Jtzezv7Prq9+u6rfrP3W82x6jcaK+LvzTHKvdqvd1C5Gnern3+v12/Nd28cAgABwA1AWwy8nwCoSLHqq4iv8vM+r1fxZ/oemWtl3NXxVv1mY67mWPWrxrontsp3S1/1DlXfLblHMZ7f6yP/Z/cjANqSPzcAsQF56jm44k8AM0KUTaUTo/pUuk31sOmZ9YVNebK/4tzH+9RfxXlOxagvt2fx7pv91Pa8VZ9yjMocH37Koxi1s6/65adSfrKrlD1K9cn3ETbP4fVqDLerLj+V0R91Pdlv1laMcnmpuuJfVSIAbDF9gfavIwD2X+NfRHX2W99VAAQxxreIIL0uW+6rfLOPt6Oe28qh0u2jPvfxnLnu8TnGbVU9+lZisp9yVWXOl9uKGfVXY4XvWf9qnJzbc2ab4qsyx1U+yue+XpfdS+VZ8Qsf9/O68jy7RAAgAP4FocBIefuhudPcvbMAEOHOCFNr4QTq/l5XPvnObCOfnCO3PedKfRavd1B5Sz7FVuUoX/iObN6f/Vba+T08n9dnftU42V/tnDPaeuRT5avi5O+2s/VqLOV9ZokAsIUXAHqU3AD0WOdfxHbme99BAMT7ivy8LrLMffL10n1yPdr+KM79NJZsKrOP/Dyf+5ytK99ovNVxRn7KW5Wjd529Ux7Hc+S4qq0+zxN96lc9l+6vevap2vn95JP7z7Td92w9xvcYvc+zSwRAIoFYhB5PCAAe5qDGwDsIACdFJ8eVuojzjG8V4+8g+5k+xay8h/vkMdzm9TN+epej0vN7/Z6xZnly3tzOsf7+M5v75fooLvefact3VB59l+Lyuz6zjQBoc+BnYcMNQGw4nnoOrhAAmSBFfE6MXs/2mS3nzr7ejnpuayyVbh/1uc9qfdVPY0a5EpP9PD7XR/lyjlW/HHe27ePk2JktfGdPFVv1eY5H2o9y+bjPqiMA2h4CCIDYgDz1HFwlAILo8pqoz0snRCfSKla+suW2x/sY2V9x7uN96q/ifIyj+lF8NY5y5li1Zc/vW7Xd1+saVzHKnds5JsdVbfV5Ts+jfu9bGVc+ozLnzflzu3pPz539q7b6VCo+t9X/zBIB0PYQQADEhuOp5+BKAfBMwlvJfQURx3tdNe7KnOAzv0341PlBALQ9BBAAHP714R/zggB4PeG/SgDMcP+pB1l+7w7fmL/5ljYCAAHAr+C2GEAAVKT5qoM4j33VuPk9aL9e/F015wiAtuTPDcDsV0J3W+cbgKvImHH7HLzvstYIAAQANwBtMcANwLsQMe/B4X8FBhAAbcmfG4Duv/Jn388NAAfSFQcSY74WdwgABAA3AG0xwA0AB85rDxzm+73mGwHQlvy5AZj9Au5u4wbgvYiag5P1eAYGEAAIAG4A2mJgfgMQ5MDDHICBvTHw1f3XTs/v5wag57qPD33mg7kBAy0x0PKjm//yRQBAdux7MAAGwABXoA3FAAKAjQ/5gwEwAAYQAAgAMNAQA5A/5A8GwADk35D8uQFg40P+YAAMgAEEAAIADDTEAOQP+YMBMAD5NyR/bgDY+JA/GAADYAABgAAAAw0xAPlD/mAADED+DcmfGwA2PuQPBsAAGEAAIADAQEMMQP6QPxgAA5B/Q/LnBoCND/mDATAABhAACAAw0BADkD/kDwbAAOTfkPy5AWDjQ/5gAAyAAQQAAgAMNMQA5A/5gwEwAPk3JH9uANj4kD8YAANgAAGAAAADDTEA+UP+YAAMQP4NyZ8bADY+5A8GwAAYQAAgAMBAQwxA/pA/GAADkH9D8ucGgI0P+YMBMAAGEAAIADDQEAOQP+QPBsAA5N+Q/LkBYOND/mAADIABBAACAAw0xADkD/mDATAA+Tckf24A2PiQPxgAA2AAAYAAAAMNMQD5Q/5gAAxA/g3JnxsANj7kDwbAABhAACAAwEBDDED+kD8YAAOQf0Py5waAjQ/5gwEwAAYQAAgAMNAQA5A/5A8GwADk35D8uQFg40P+YAAMgAEEAAIADDTEAOQP+YMBMAD5NyR/bgDY+JA/GAADYAABgAAAAw0xAPlD/mAADED+DcmfGwA2/pj8f/v9j394mAMwsD8GviDCMRHuOzcIgH3X9n48B/H/+dffPMwBGNgYA7HPEQAtb0AQAAiAsVBAACB+EID7YwAB0PLwD+JHACAAEAAccvsfcqzxeI0RAAiAhv/+YXzwIQr+mxtuAMakyYHC3OyCAQQAAgAB0BYDYyGEAOCQ2+WQ4zvGWEYAtCV//gTAr/1rBUCe/zNEPYsN25lc2Tfn9nb2fXR79d1X/WbvN8vhtlF9lvuMzfOfiXuE7+rY4Zefe8dfGXvF5573QAAUC5sXes82AmDPdf1JVLd857NvAOKdMnFVfdkn2pWf93m9ij/T98hcK+OujrfqNxtzNYf7eX2W+4ztGTlXx18du/Kr+lbHXfV79hgIAATAD2UboOPpPQfPFAAzUpNNpROl+lS6TfWw6Zn1hU15sr/i3Mf71F/FeU7FqC+3Z/Hum/3U9rxVn3KMSo/PPrLlvLm/ilNMto3ayhl21VV6n+Jli1J12eQ/s2WfKofnk/9Rn8as8snmObJf9lE7+3mOe+sIACMMn/D969wA7L/Gvw7Ds996tQAIYot3FsF5XbbcV/lmH29HPbeVQ6XbR33u4zlz3eNzjNuqevStxGQ/5apKz5ftbsv13Fas90dfbssvl+4XdbVzXXHen8dRrPuqLl/38br75Xrl531e1zjK4bZ76sr3yBIBgAD4d8MFMHmYA2HgHQSAiNRJM5Of3tf73d/ryiffmW3kk3Pktudcqc/i9Q4qb8mn2Kr0fNnutlE9YlZtOb+3RzlW+s++g+fMsf5OuR5x+XGfWd5sU5z3e132KEf97nNPHQFQLGxM+v4PNwD7r/HtOH6lAHCS87oIMPdVhOc+uR5tfxTvfhpLNpXZR36ez33O1pVvNN7qOCM/5a1Kf9dsd9uoHjGrtpzf26McK/1n38Fz5lh/p1w/igt7fjyHbLkvt4/Gcf9H1BEAxcJpsfYuQwDwMAc1Bl4pAILIRHwqvW9WFwmuxMlXpcfkMUY+I7/K3/OP6jnfI/z0Lkelj5V93Taqz94923J+b4/yr/TncTwm21ba/l5ez3lzrsru8aq7n9dlvzWvx5+pIwBaC4CfqjVAycMcPFMAZJITYTkhej3bZ7acO/t6O+q5rbFUun3U5z6r9VU/jRnlSkz28/hc93wzm/t5PY81s+X83va41fqKX36/lba/l9d9PPV7n9fzOG67p65xH1kiANoeePwJIDYjTz0HzxYAIkmff/V56WSXyTPHylf9ue3xPkb2V5z7eJ/6qzgf46h+FF+No5w5Vm3Z8/tWbY9RXX6ex23er/dTjNru77ZR3XOeqY/GUb/n0ti5T76yj8ocF365T7lyv3xzf9Ve6Ru94y39CIC2hwACIDYbTz0HrxAAtxDWI2My2T4y9yzXVePO3umTbMzf+L/sd3YdEQBtDwEEAId/ffjHvCAAHkeymZRfdYDN8J3f6ZntR7/HM+bv0e/4zPl8ZG4EAAKAX8FtMYAAeCSZruZ6xgG2OvYOfszf48QpAqAt+XMDMFP93W0dbgB2OAz5hscdhh3nEgGAAOAGoC0Get8AdCR8vhnB4BhAALQlf24Auv/Kn30/NwAcFH5QUN8TDwgABAA3AG0xwA0AB9ueBxvrurauCIC25M8NwOwXcHcbNwBrBMpBwzx9MgYQAAgAbgDaYmB+AxDkwMMcgIG9MfDV/ddOz+/nBqDnuo8PfeaDuQEDLTHQ8qOb//JFAEB27HswAAbAAFegDcUAAoCND/mDATAABhAACAAw0BADkD/kDwbAAOTfkPy5AWDjQ/5gAAyAAQQAAgAMNMQA5A/5gwEwAPk3JH9uANj4kD8YAANgAAGAAAADDTEA+UP+YAAMQP4NyZ8bADY+5A8GwAAYQAAgAMBAQwxA/pA/GAADkH9D8ucGgI0P+YMBMAAGEAAIADDQEAOQP+QPBsAA5N+Q/LkBYOND/mAADIABBAACAAw0xADkD/mDATAA+Tckf24A2PiQPxgAA2AAAYAAAAMNMQD5Q/5gAAxA/g3JnxsANj7kDwbAABhAACAAwEBDDED+kD8YAAOQf0Py5waAjQ/5gwEwAAYQAAgAMNAQA5A/5A8GwADk35D8uQFg40P+YAAMgAEEAAIADDTEAOQP+YMBMAD5NyR/bgDY+JA/GAADYAABgAAAAw0xAPlD/mAADED+DcmfGwA2PuQPBsAAGEAAIADAQEMMQP6QPxgAA5B/Q/LnBoCND/mDATAABhAACAAw0BADkD/kDwbAAOTfkPy5AWDjQ/5gAAyAAQQAAgAMNMQA5A/5gwEwAPk3JH9uANj4kD8YAANgAAGAAAADDTEA+UP+YAAMQP4NyZ8bADb+mPx/+/2Pf3iYAzCwPwa+IMIxEe47NwiAfdf2fjwH8f/51988zAEY2BgDsc8RAC1vQBAACICxUEAAIH4QgPtjAAHQ8vAP4kcAIAAQABxy+x9yrPF4jREACICG//5hfPAhCv6bG24AxqTJgcLc7IIBBAACAAHQFgNjIYQA4JDb5ZDjO8ZYRgC0JX/+BMCv/fcXAHmNzpD5LDZsZ3Jl35zb29n30e3Vd1/1m73fLIfbRvVZ7jO2yJ+f1fhnv1u8h4+x+l7v4IcAKICVgbZnGwGw57r+JMpbvvMdbgDivTNJVn3ZJ9qVn/d5vYo/0/fIXCvjro636jcbczWH+3l9lvuMrcpZ9VU53c/rlW+3PgQAAuCHso5NwtN7Dq4WADOilk2lk7b6VLpN9bDpmfWFTXmyv+Lcx/vUX8V5TsWoL7dn8e6b/dT2vFWfcoxKj88+suW8ub+KU0y2jdrK6fbcp5ze731eV56qz21RVz4vVc++2T/7ya5+lcrz6hIBYGQQi9Hn4Qagz1qfx/UnCACRqUgzk6nWV3Yv3dfrVU63e135VvrcJ+pq57rnlE/1Tu6n+q1+Hp/r/g4zm/v5N83eKdtyfm97fvV7n9dzXreN6jlG7eyf26N3ucVPuV5ZIgBaHfp+ECAAYpPy1HPwKQKgIupMoFpj7x8RtPLJ1/2ybeRT+Xmes/Wcz+P1DirdNqrnfIqtSs+R7W4b1fNY7pdtOb+3Iy4/bs91H2elHvHud7btsV7PeWa2/A2vaCMACmDFIu3/IAD2X+PbcfxuAsCJ0+si2NxXkaf75Hq0/VG8+2ks2VRmH/l5Pvc5W1e+0Xir44z8lLcq/V2z3W2jesSs2nJ+b3sO7/d6+Pgjm8fmuvu7LWLPtN3X6znPzKb3fWWJAEigiQXq8YQA4GEOagy8mwBwInUSXamLUM/4VjH+DrKf6VPMynu4Tx7DbV4/46d3OSpzfvd326g+e6ds89y57vmzrcrj/iv1sznzmKMxZn7ZVr3Ds/sQAG0O/CxsuAGITctTz8HVAmBEjjOi9Rj3E4l636juOVSf+cpHY6j0mOzjtll9ZrtnnPw+ylWV/g7Z7rZRPY/lftmW83s7x7mtyuP+K/WjHEf20Rg5Lvt5O3xf/SAA2h4CCIDYfDz1HLyDABB5+hqpz0snTSdUj/N+xXqf+1b5ZHeb6p5HfVEqJtu9fVRXjpw3t91POb1v9j6eK9eVw0v5aBzPrbp8Rm3lc79Z3cca+SmnfL2s6no3xeW8ilH/rO02r2sM5VBbPird/so6AqDtIYAAiM3HU8/BuwiAV5JhNdZVBH3VuNUc0Pe8X+ZXrzMCoO0hgADg8K8P/5gXBMB/pH8VQb9q3NkeeOXB/y7v8exvzuua288eP+dHACAA+BXcFgMIgEyIuX0VQV81bv5+2o//9R9rq+fq+UUA2GJoUXqU3AD0WOdfZHPme7kBeDzxX032jM+aZgwgABAA/1ejZw4IfG87WD9l3hAAHBb5sKC9HyYQAAgABEBbDIxFDAJgP7LnAGdNMwYQAG3Jnz8BfMqv8SveEwHAYZEPC9r7YQIBgADgBqAtBrgB4FDb71BjTdfXFAHQlvy5Abjil/WnjBnEwMMcgIH9MfD1KaTEe45/sZ2fGwTA+Tl75PyTi/kHA2DgLTDwFi/BVfRLbyMQAJAP+x4MgAEw8NKDB8C9B+AQAO+xDuwH1gEMgIFLMXDp4Pzyv0SAIQAgHfY9GAADYOCSAwjgXQs8BMC18w/+mX8wAAbeAgNv8RLcBLxUiCEAIB/2PRgAA2DgpQcPgHsPwCEA3mMd2A+sAxgAA5di4NLB+eV/iQBDAEA67HswAAbAwCUHEMC7FngIgGvnH/wz/2AADLwFBt7iJbgJeKkQQwBAPux7MAAGwMBLDx4A9x6AQwC8xzqwH1gHMAAGLsXApYPzy/8SAYYAgHTY92AADICBSw4ggHct8BAA184/+Gf+wQAYeAsMvMVLcBPwUiGGAIB82PdgAAyAgZcePADuPQCHAHiPdWA/sA5gAAxcioFLB+eX/yUCDAEA6bDvwQAYAAOXHEAA71rgIQCunX/wz/yDATDwFhh4i5fgJuClQgwBAPmw78EAGAADLz14ANx7AA4B8B7rwH5gHcAAGLgUA5cOzi//SwQYAgDSYd+DATAABi45gADetcBDAFw7/+Cf+QcDYOAtMPAWL8FNwEuFGAIA8mHfgwEwAAZeevAAuPcAHALgPdaB/cA6gAEwcCkGLh2cX/6XCDAEAKTDvgcDYAAMXHIAAbxrgYcAuHb+wT/zDwbAwFtg4C1egpuAlwoxBADkw74HA2AADLz04AFw7wE4BMB7rAP7gXUAA2DgUgxcOji//C8RYAgASId9DwbAABi45AACeNcCDwFw7fyDf+YfDICBt8DAW7wENwEvFWIIAMiHfQ8GwAAYeOnBA+DeA3AIgPdYB/YD6wAGwMClGLh0cH75XyLAEACQDvseDIABMHDJAQTwrgUeAuDa+X9v/P/2+x//8DAHYGB/DHxBhO9Nxs9ZHwTAc+Z1DywF8f/51988zAEY2BgDsc8RAC1vQBAACICxWEEAIH4QgPtjAAHQ8vAP4kcAIAAQABxy+x9yrPF4jREACAD+EWZbDCAAOBzGhwNzs//cIADakj83ANwAIAA45PY/5Fjj8RojABAA3AC0xUAPAZCF3pkDYRYbtjO5sm/O7e3s++j26ruv+s3e7yjHkX2W+xG2GN8fz+n9qrv90+sIgLT4WuT9S24A9l/j78R25nuDGD6d3OL945vzd1R92WcldjVPlTv3PTJXzl21V8db9avGUF/kGOWZ2RT/zLJ6L+/zut6j6pPt00oEAALgm/oNcPMwBzsIgBlRy6bSiVt9Kt2metj0zPrCpjzZX3Hu433qr+I8p2LUl9uzePfNfmp73qpPOUalYip7ZVNflDlmxZZjRu0qf/Yd+Yz6c/y7txEAtpEdXPvXuQHYf41/HVJnv7WLAAiCjrkRUXtdttxX+WYfb0c9t5VDpdtHfe7jOXPd43OM26p69K3EZD/lqkrlUykftVVWOW+xeYzGqsoVv5HPqL8a5537EAAIgH83fACahzkQBjoJgCBoffeIrCt79Mnf68q3Yhv55By57eOt1GfxegeVt+RTbFUqn0r5qK0y+r1etRWbbTnO/Ub1lZiRz6h/NNa79iMA2h583ADEJuap52BHAeCk7fUgZ+HgiKg9LteVQ6VyuZ/Gkk1l9pGfcqms/D12VFe+Kl42jTHK4XbVlW9WVvmqvuo93K+y+7hn3km5PL6q5/HlM+qX/VNKBEDbQyAEAA9zUGNgRwEQpCziVul9s7oIfSVOvio9Jo8x8hn5Vf6ef1TP+R7hp3c5Kquxqr78jjmvx8x8s1/Oo/aK38hn1K/cn1IiAFoLgPrXX4Cbp/cc7CAAgoQrovY+r4u01adS/Tmf271e+bnd68q90uc+q/VVP71H9e6yea7sJ5+qPIpzu9fzGKu27Fe9k/oqX+/z+ixGtk8rEQBtDzv+BBCbm6eeg10EQBByXmP1eenE7aRfxcpXttz2eB8j+yvOfbxP/VWcj3FUP4qvxlHOHKu27Pl9q3b2XWlrnJxP/cqh0r8hxxy1Pafn85zuc5Tvk+wIgLaHAALANzX170JgJwFwNSHnQ+VV73PVuK/6PsYZ/xf+VucGAYAA+PELicPw+2HYcT4QAPeTq0j4qoP4VePO9ofm4IryXd/rirkYjYkAQAAgANpiYCx0EAAIgNGhQf/jsHH1XCIA2pI/fwKY/ULobkMA7EPyVx8yjP++WEIAIAC4AWiLAW4AOJze93BibZ6/NgiAtuTPDUD3X/mz7+cG4PnkywHHHF+NAQQAAoAbgLYY4AbgagJmfETAlRhAALQlf24AZr+Au9u4AeBguvJgYuzX4A8BgADgBqAtBuY3AEEOPMwBGNgbA1/df+30/H5uAHqu+/jQZz6YGzDQEgMtP7r5L18EAGTHvgcDYAAMcAXaUAwgANj4kD8YAANgAAGAAAADDTEA+UP+YAAMQP4NyZ8bADY+5A8GwAAYQAAgAMBAQwxA/pA/GAADkH9D8ucGgI0P+YMBMAAGEAAIADDQEAOQP+QPBsAA5N+Q/LkBYOND/mAADIABBAACAAw0xADkD/mDATAA+Tckf24A2PiQPxgAA2AAAYAAAAMNMQD5Q/5gAAxA/g3JnxsANj7kDwbAABhAACAAwEBDDED+kD8YAAOQf0Py5waAjQ/5gwEwAAYQAAgAMNAQA5A/5A8GwADk35D8uQFg40P+YAAMgAEEAAIADDTEAOQP+YMBMAD5NyR/bgDY+JA/GAADYAABgAAAAw0xAPlD/mAADED+DcmfGwA2PuQPBsAAGEAAIADAQEMMQP6QPxgAA5B/Q/LnBoCND/mDATAABhAACAAw0BADkD/kDwbAAOTfkPy5AWDjQ/5gAAyAAQQAAgAMNMQA5A/5gwEwAPk3JH9uANj4kD8YAANgAAGAAAADDTEA+UP+YAAMQP4NyZ8bADY+5A8GwAAYQAAgAMBAQwxA/pA/GAADkH9D8ucGgI0P+YMBMAAGEAAIADDQEAOQP+QPBsAA5N+Q/LkBYOOPyf+33//4h4c5AAP7Y+ALIhwT4b5zgwDYd23vx3MQ/59//c3DHICBjTEQ+xwB0PIGBAGAABgLBQQA4gcBuD8GEAAtD/8gfgQAAgABwCG3/yHHGo/XGAGAAGj47x/GBx+i4L+54QZgTJocKMzNLhhAACAAEABtMTAWQggADrldDjm+Y4xlBEBb8udPAPzav0YA5Hk/Q9Cz2LCdyZV9c25vZ99Ht1fffdVv9n5HOY7ss9yPsMX4/nhO71fd7Ud1xeTyKO5Wex7H27fmfGQcAiCBzRdo7zoCYO/1/U6iZ7/1WTcA8R6ZwKq+7BPtys/7vF7Fn+l7ZK6VcVfHW/WbjRk5RnlmtlnOR9mq9/I+r2vMqk+2XJ7xzbH3tq8ce/TuCAAEwDe1HSDlYQ6eIQBmBCibSics9al0m+ph0zPrC5vyZH/FuY/3qb+K85yKUV9uz+LdN/up7XmrPuUYlYqp7JVNfVHmmBVbjhm1q/zZd+Qz6l+Ndz/lUhm2qOtZ8XUf1T2f+qJU3mxXW3aPeVQdAWALq4nuUXID0GOdfxHXme+9SgCIEEVw8c6qy5b7ZPd+ryvO/dzudfdRXWX283bU1c51j5dP9K3Ub/XTmFWpcVXKR22Veezcdr+ZLftpvFyu+I18Rv23juH5vF59p+xRen1lbPnL19ueL48r/3tLBAAC4JsCFegobzs4d5m3KwWAyC7mckRwmme3u7/XlU++M9vIJ+fIbc+5Up/F6x1U3pJPsVWpfCrlo7bK6Pd61VZstuU49xvVV2JGPqP+PFb45afy8b6c29srdeVy31Gf+3g9/HNbOe4pEQAFIGKi93+4Adh/jW/H8SsEgBOa10V2ua8iOvfJ9Wj7o3j301iyqcw+8vN87nO2rnyj8VbHGfkpb1VW71r16R1nY6zYqneo+vwdKrvep7KtxM7iPWfONWu7bVRXbreP+tzH66vvrryrJQIgkURMeo8nBAAPc1Bj4BUCwEnNyW6lLoI741vF+DvIfqZPMSvv4T55DLd5/Yyf3uWo9Pyqq5yNl/N6TI5z3+znNq+v+I18Rv2eP+orftln1nbbqK53cPuoz328vvruyrtaIgDaHPhZ2HADEBuMp56DZwiAEYk50XldJKY+lerP+dzu9crP7V5X7pU+91mtr/rpPap3l81zZT/5VOVRnNu9nsdYtWW/6p3UV/l6n9dnMbLlsoo/8skx3l6pK7/7jvrcJ+q5rbhHlQiAtocAAkAbjPKnCHiWAAjiyvOtPi+d4DIJenz2G/lmP43l/pWP93lMjvP2UT3s7qO8PpZ85Oel6oqTr8fP6h6vHO5f2UdjqF8xKpXX2z7GrO45c3y2Zfssr97pFh8f1+N9/FFd/m5XX5RHuWX3mEfVEQAIgG8AFNgofx6KnebkmQLgUeR1a55Yx1tj74m7atx73pnY8X9F79lz8wq8IAAQAAiAthgYixwEwOOJ/xWEHodSjDN6nn1ozfKP3umR8/KKMWbf+EjbI+dl9F4IgMlmmYHp8238CeDz13BM9Pd+GwLgcwXAiOzpf/yaPnNOYw8/M3/kRgAgAIa/Fu49RIh/3gH97LndWQA8m1TJ/1kHbef1QgAgABAAbTEwFigIAA6xzgdjl29HALQlf/4E8Oxf0Z+cHwGAAOhyCHb+TgQAAoAbgLYY4AagM/nz7Yg8BEBb8ucG4JN/oT/73bkB4HBAIOyPAQQAAoAbgLYYmN8ABDnwMAdgYG8MfD371wT5x0R73dxwA3Dd3L8jHngn8AAGmmKAhe+38AiAfmvOPmfNwQAY+IGBHx1cC29/LYwAgAjY92AADICB7Q87QP4T5AiAn3MCTpgTMAAG2mGg3Qdzw/GFMEH1SwAAIABJREFUAIDo2PdgAAyAAW4AGgoCBAAbH/IHA2AADCAAEABgoCEGIH/IHwyAAci/IflzA8DGh/zBABgAAwgABAAYaIgByB/yBwNgAPJvSP7cALDxIX8wAAbAAAIAAQAGGmIA8of8wQAYgPwbkj83AGx8yB8MgAEwgABAAICBhhiA/CF/MAAGIP+G5M8NABsf8gcDYAAMIAAQAGCgIQYgf8gfDIAByL8h+XMDwMaH/MEAGAADCAAEABhoiAHIH/IHA2AA8m9I/twAsPEhfzAABsAAAgABAAYaYgDyh/zBABiA/BuSPzcAbHzIHwyAATCAAEAAgIGGGID8IX8wAAYg/4bkzw0AGx/yBwNgAAwgABAAYKAhBiB/yB8MgAHIvyH5cwPAxof8wQAYAAMIAAQAGGiIAcgf8gcDYADyb0j+3ACw8SF/MAAGwAACAAEABhpiAPKH/MEAGID8G5I/NwBsfMgfDIABMIAAQACAgYYYgPwhfzAABiD/huTPDQAbH/IHA2AADCAAEABgoCEGIH/IHwyAAci/IflzA8DGh/zBABgAAwgABAAYaIiBMfn/9vsf//AwB2Bgfwx8oYDGRLjv3HADsO/a3o/nIP4///qbhzkAAxtjIPY5AqDlr18EAAJgLBQQAIgfBOD+GEAAtDz8g/gRAAgABACH3P6HHGs8XmMEAAKAv323xQACgMNhfDgwN/vPDQKgLflzA8ANAAKAQ27/Q441Hq8xAgABwA1AWwzsIwCymDtD+rPYsJ3JlX1zbm9n30e3V9991W/2fkc5juyz3PfYYtz83JPPY/2bvO4+715HABQAyYDZs80NwJ7r+pPwbvnOIIZ3Jy+9X3yf6iqrPtm8rPy8z+sed0v9kblWxl8db9VvNmbkGOWZ2WY5H2Gr3qnqu2Usz+P1W3JdFYMAQAD8UMgBZp7ec/ApAmBGvLKpdJJVn0q3qR42PbO+sClP9lec+3if+qs4z6kY9eX2LN59s5/anrfqU45RqZjKXtnUF2WOWbHlmFG7yh++uX80pvxk1zhqu1151Sffdy4RALbJfVH3r3MDsP8a/zrAzn7rTgJAxCwijrlQXbbcJ7v3e11x7ud2r7uP6iqzn7ejrnaue7x8om+lfqufxqxKjatSPmqrzGPntvvNbNlP4+Vy5Of9Xq/GdPusPrLld3qnNgIAAfAvaQR4eZgDYWA3ASBid5LORKxv937397ryyXdmG/nkHLntOVfqs3i9g8pb8im2KpVPpXzUVhn9Xq/ais22HOd+o/ooxvu9fjSm+47qOcfo3d6hHwHQ9uDjBiA2ME89B58qAI5I2e0jAnafXI+2P8rhftGX27M+z+dxZ+t5DI+XzceKPvV73X1yDvnl0v1UV3l2jIjzx8dSv/fN6v4O7uf9yumlfN0v+rw9qmc/5XrHEgGQwOYg2LseAoCHOagx8KkCwMl3RNCjfhH0yO798lWZbbnt76WYUZ/snmOlnvONYs746V2Oymqsqi+PnfN6zMw3++U8ao/8vN/rilOZbd4e1SPWbcr1jiUCoLUA+K60A7Q8zEFg4FMEwIhsnYC9LhJWn0r153xu93rl53avK/dKn/us1lf99B7Vu8vmubKffKryKM7tXs9jrNqyX/VOObd8cuysHTa3r9RH42r8dyoRAG0PPf4EoM1N+VP0fJIAEOH6OqrPSyfeTOQ5Vr7qz22P9zGyv+Lcx/vUX8X5GEf1o/hqHOXMsWrLnt+3amfflbbGyfnUrxwq/RtyzKjtuVSvfGXzsTSeysqmPpXKndvqf7cSAYAA4Fd/Wwz8PPiDuOL5NAFwNbFeRfhXjXv1fL9q/N3nFwHQlvy5AYjNzVPPAQJg/J9PrQ6fqw6KV4072yfVfLyq79nv9ar5fdV85XEQAG0PAQTAjDy62xAACIB8WHRsIwDaHpD1L6N9DgYEwD5r+XisIgDOCYCOhyPf/PkY4QagrcBBACAAxsIBAfD55M4BzRoeYQABgADg7+BtMYAAOCJI7ByiO2MAAdCW/LkB4AYAAbAzufNtiJcjDCAAEADcALTFAALgiCCxc4jujAEEQFvy5waAG4C5AAhy4GEOwMDeGPiCCMdEuO/cIAD2XduOeOabwTMYuBEDTNyNE/fB1+cIgH5rzj5nzcEAGPiBgR8dH3yw8S1rAEcArM0TeGKewAAY2BoDW38cYqb8dw4IAEiNfQ8GwAAYKA8IgLE3MBAAe68v+5f1BQNgYAkDS078kt5KKCEAIAf2PRgAA2Bgq4MNQK8BGgGwNk/giXkCA2Bgawxs/XHcXJQCDwEAqbHvwQAYAAPlAQEw9gYGAmDv9WX/sr5gAAwsYWDJiV/SWwklBADkwL4HA2AADGx1sAHoNUAjANbmCTwxT2AADGyNga0/jpuLUuAhACA19j0YAANgoDwgAMbewEAA7L2+7F/WFwyAgSUMLDnxS3oroYQAgBzY92AADICBrQ42AL0GaATA2jyBJ+YJDICBrTGw9cdxc1EKPAQApMa+BwNgAAyUBwTA2BsYCIC915f9y/qCATCwhIElJ35JbyWUEACQA/seDIABMLDVwQag1wCNAFibJ/DEPIEBMLA1Brb+OG4uSoGHAIDU2PdgAAyAgfKAABh7AwMBsPf6sn9ZXzAABpYwsOTEL+mthBICAHJg34MBMAAGtjrYAPQaoBEAa/MEnpgnMAAGtsbA1h/HzUUp8BAAkBr7HgyAATBQHhAAY29gIAD2Xl/2L+sLBsDAEgaWnPglvZVQQgBADux7MAAGwMBWBxuAXgM0AmBtnsAT8wQGwMDWGNj647i5KAUeAgBSY9+DATAABsoDAmDsDQwEwN7ry/5lfcEAGFjCwJITv6S3EkoIAMiBfQ8GwAAY2OpgA9BrgEYArM0TeGKewAAY2BoDW38cNxelwEMAQGrsezAABsBAeUAAjL2BgQDYe33v27+//f7HPzzMARjYHwNfEOF9ZPmZ84cA+Mx1ew1Wg/j//OtvHuYADGyMgdjnCICWNyAIAATAWEwgABA/CMD9MYAAaHn4B/EjABAACAAOuf0POdZ4vMYIAAQA/0iyLQYQABwO48OBudl/bhAAbcmfGwBuABAAHHL7H3Ks8XiNEQAIAG4A2mLg8wVAFnFnyH4WG7YzubJvzu3t7Pvo9uq7r/rN3u8ox5F9lvse22jcUX8e6xF+qzny2K9sIwDakj83ALFBeeo5CGJ4JRHdMlZFsFVflbvy8z6vV/Fn+h6Za2Xc1fFW/WZjRo5RnpltlvMRttk7PSK/cozGCfvMpvirSwRA20MAASCCovwpAt5dAMzIVTaVTrLqU+k21cOmZ9YXNuXJ/opzH+9TfxXnORWjvtyexbtv9lPb81Z9yjEqFVPZK5v6oswxK7YcM2pX+cM394/GHPnlHPJTHr2P2rKr/91KBIBtdl+0/esIgP3X+NdBdvZbdxAAI7IWCWtO1PYybGp7Pfq8nXO4bRSfc+S258x1z+ljrdSrcTyf6tnP+3Nd46qUXW2VVc5bbB6jsapy5Of9Xs/v57ZcP2rrfdxPfe9WIgAQAP//tROA5WEOAgO7CAAR+4yMhXknZ/f3uvLJd2Yb+eQcue05V+qzeL2DylvyKbYqlU+lfNRWGf1er9qKzbYc536jesSMHsXkvN4e1Y/ebRancd+pRABMgBKLue/DDcC+a3s/bj9NAMyIV+t8RLyjHIr3Urk8Jvpye9bn+TzubD2P4fGy+VjRp36vu0/OIb9cup/qKs+OEXH++Fjq975Z3d/B/bxfOb2Ub/ZTf5S32jzHu9QRAAl0Doa96yEAeJiDGgOfJgCcmEcEPeoXGY/s3i9fldmW2/5eihn1ye45Vuo53yjmjJ/e5aisxqr68tg5r8fMfLNfzqP2yM/7va44lW7zeti97fUjm3K/U4kAaC0AvivuADMPcxAYeHcBkMlWpOqE7PVsn9ly7uzr7ajntsZS6fZRn/us1lf9NGaUKzHZz+Nz3fNVcW73evZdtWW//D5qj/y83+uz93G/qOe2xpzlcJ93qiMA2h56/AlAm5nyp+j5BAEgwvX1U5+XTriZvHOsfNWf2x7vY2R/xbmP96m/ivMxjupH8dU4yplj1ZY9v2/Vzr4rbY2T86lfOVT6N+SYUdtj3Sf3R1vPil/4eA6vV7Zs9zHeoY4AMAAICD1KBECPdf5FcGe+91MEwNUkGnN6xTtcNe4V3/puY+409wgABMD/FfCZAwLf2w7WT5k3BMD4P5/qB9JVh8Grxp3h1efh1fVXvlee69x+9bc/cjwEAAIAAdAWA2MRgwBAADzyoPn0XC44Pv1b/P0RAG3Jnz8B+Kam/l0MIADWBICTKXXm7NMwgABAAHAD0BYD3w99F0EIAA6zTzvMeN/zmEUAtCV/bgD8wKP+XQwgAM6TKQcQc/ZpGEAAIAC4AWiLge+HvosgBACH2acdZrzvecwiANqSPzcAfuBR/y4GEADnyZQDiDn7NAwgABAA3AC0xcD3Q99FUBADD3MABvbHwJdvfOpjUtxrbrgB2Gs9u+CW7wS3YODBGGBCHzyhH/CrGgHQb83Z56w5GAADPzDwo+MDDjDe+T4gIwDumz/wx/yBATCwBQa2+AhEy6m/ZSMAIC/2PRgAA2Dg1MEBYPYADAJgj3VkP7KOYAAM3IWBu4L55f2RAgoBAGmw78EAGAADH3mAAdz7gIsAuG/+wB/zBwbAwBYY2OIjuIk4JeQQAJAX+x4MgAEwcOrgADB7AAYBsMc6sh9ZRzAABu7CwF3B/PL+SAGFAIA02PdgAAyAgY88wADufcBFANw3f+CP+QMDYGALDGzxEdxEnBJyCADIi30PBsAAGDh1cACYPQCDANhjHdmPrCMYAAN3YeCuYH55f6SAQgBAGux7MAAGwMBHHmAA9z7gIgDumz/wx/yBATCwBQa2+AhuIk4JOQQA5MW+BwNgAAycOjgAzB6AQQDssY7sR9YRDICBuzBwVzC/vD9SQCEAIA32PRgAA2DgIw8wgHsfcBEA980f+GP+wAAY2AIDW3wENxGnhBwCAPJi34MBMAAGTh0cAGYPwCAA9lhH9iPrCAbAwF0YuCuYX94fKaAQAJAG+x4MgAEw8JEHGMC9D7gIgPvmD/wxf2AADGyBgS0+gpuIU0IOAQB5se/BABgAA6cODgCzB2AQAHusI/uRdQQDYOAuDNwVzC/vjxRQCABIg30PBsAAGPjIAwzg3gdcBMB98wf+mD8wAAa2wMAWH8FNxCkhhwCAvNj3YAAMgIFTBweA2QMwCIA91pH9yDqCATBwFwbuCuaX90cKKAQApMG+BwNgAAx85AEGcO8DLgLgvvkDf8wfGAADW2Bgi4/gJuKUkEMAQF7sezAABsDAqYMDwOwBGATAHuv4nP342+9//MPDHICB/THwBRE+h0Tfe14RAO+9PtdiMoj/z7/+5mEOwMDGGIh9jgBoeQOCAEAAjEUGAgDxgwDcHwMIgJaHfxA/AgABgADgkNv/kGONx2uMAEAA8I8n22IAAcDhMD4cmJv95wYB0Jb8uQHgBgABwCG3/yHHGo/XGAGAAOAGoC0Gni8Assg6Q8az2LCdyZV9c25vZ99Ht1fffdVv9n5HOY7ss9z32FbHXfUbvUvE35tjlPtM/zu8Q/W+CIC25M8NgMiB8qcQCGKoCONMX0V6VV+Vs/LzPq9X8Wf6HplrZdzV8Vb9ZmNGjlGemW2W8xG20Tvl3Kt+OS7a98RW+W7t03uovDXPM+IQAAgAbgDaYuDnwR8kFc+9AmBGdrKpdGJTn0q3qR42PbO+sClP9lec+3if+qs4z6kY9eX2LN59s5/anrfqU45RqZjKXtnUF2WOWbHlmFHb86uu/IpRW/bor/rcP/t4bLYpTuVRbtnlv1rqHVTmOPWrDHvU9VT+I1v2PWojAGyiNak9Sm4AeqzzLyI5872vEAAiOpFUvJ/qsuU+2b3f64pzP7d73X1UV5n9vB11tXPd4+UTfSv1W/00ZlVqXJXyUVtlHju33W9my34aL5fuF/Xclv+oP7+D2mf9q3GUa8Umn1Hp75PzKiZ83M/rOWZmU74zJQIAAfAv+ARCytsOzN3m7VUCQASXic1JTHOb+9TOsd72usZSnMrsU/m5z9l6zufxegeVbhvVcz7FVqVyqJSP2iqrnG5TnEq3eV32o9JjvB5x3h7Vs99KO7/TLLf7ul81jvvm+krskU+2+xgzm/uN6ggABAACoC0GxmLn0QLAicrrQUzRzn0VYblPriuHSsW7n8aSTWX2kZ9yqaz8PXZUV74qXjaNMcrhdtWVb1ZW+aq+6j3cr7L7uGfeSbkUX41T2TSGl/LLOau2+qr4/A45r8fMfD2uGq+KzX15rCN7HvNMGwHQlvzjTwA8zEGNgUcLAJGhl6t1EZoT4aguX5Xul8cb+Yz8Kn/PP6rnfI/w07scldVYVV9+x5zXY2a+2S/nUdv9vJ5zu83ryuNltp9pZ99ZXrfN6qOcuf+o7WOc8fW4UR0B0FoAjH8BBtB4+s7BvQIgCCeTVe6b2We2ozweG/XczmTodtlyn7dX66t+GnP2XZ4r+3l8rh/Fud3reYxVW/bL76O2+3l9Nu7ML8edbc9yz2z6nqrMcfLJ/WfaR74aY7VEALQ96PhHgLGZeOo5eIQACBLK86s+L52snOCqWPnKltse72Nkf8W5j/epv4rzMY7qR/HVOMqZY9WWPb9v1c6+K22Nk/OpXzlU+jfkmFE7x7pftlVt71Ns7svt8Is+PWp7vNvUL7+Rzf28Hv7eVj3353b4aawVW+WjsY5KBIABwid9/zoCYP81/kV2Z7/1UQLgiICebY/vfvYYVf6rxq3ehb7xfwmv+9wgABAA39Tm2YMC/9sP2XeeOwTAfYfGqwTADENXHm7v+l6PnJMdvhEBgABAALTFwFi8IAA+QwA88kAj131r/onzhwBoS/78CWCm4LvbdhEAn0jKvHO/g/iqNUcAIAC4AWiLgf1vAK4iVsblEP8EDCAA2pI/NwDdf+XPvp8bAA6wTzjAeMf7cIoAQABwA9AWA9wAcIDcd4Awf589fwiAtuTPDcDsF3B3GzcAn03sHMys3woGEAAIAG4A2mJgfgMQ5MDDHICBvTHw1f3XTs/v5wag57qPD33mg7kBAy0x0PKjm//yRQBAdux7MAAGwABXoA3FAAKAjQ/5gwEwAAYQAAgAMNAQA5A/5A8GwADk35D8uQFg40P+YAAMgAEEAAIADDTEAOQP+YMBMAD5NyR/bgDY+JA/GAADYAABgAAAAw0xAPlD/mAADED+DcmfGwA2PuQPBsAAGEAAIADAQEMMQP6QPxgAA5B/Q/LnBoCND/mDATAABhAACAAw0BADkD/kDwbAAOTfkPy5AWDjQ/5gAAyAAQQAAgAMNMQA5A/5gwEwAPk3JH9uANj4kD8YAANgAAGAAAADDTEA+UP+YAAMQP4NyZ8bADY+5A8GwAAYQAAgAMBAQwxA/pA/GAADkH9D8ucGgI0P+YMBMAAGEAAIADDQEAOQP+QPBsAA5N+Q/LkBYOND/mAADIABBAACAAw0xADkD/mDATAA+Tckf24A2PiQPxgAA2AAAYAAAAMNMQD5Q/5gAAxA/g3JnxsANj7kDwbAABhAACAAwEBDDED+kD8YAAOQf0Py5waAjQ/5gwEwAAYQAAgAMNAQA5A/5A8GwADk35D8uQFg40P+YAAMgAEEAAIADDTEAOQP+YMBMAD5NyR/bgDY+JA/GAADYAABgAAAAw0xAPlD/mAADED+DcmfGwA2/pj8f/v9j394mAMwsD8GviDCMRHuOzcIgH3X9n48B/H/+dffPMwBGNgYA7HPEQAtb0AQAAiAsVBAACB+EID7YwAB0PLwD+JHACAAEAAccvsfcqzxeI0RAAiAhv/+YXzwIQr+mxtuAMakyYHC3OyCAQQAAgAB0BYDYyGEAOCQ2+WQ4zvGWEYAtCV//gTAr/0+AiCv9ZlDYRYbtjO5sm/O7e3s++j26ruv+s3e7yjHkX2W+x5bjJufKt+KTxX37n0IgAIAebH3bCMA9lzXn4R2y3fudAMQ35+JuOrLPtGu/LzP61X8mb5H5loZd3W8Vb/ZmJFjlGdmm+V8hK16p9yX2zFu1feI93l1DgQAAuCHAg5w8/Seg10EwIyoZVPp5Ks+lW5TPWx6Zn1hU57srzj38T71V3GeUzHqy+1ZvPtmP7U9b9WnHKNSMZW9sqkvyhyzYssxo/Yov/wru2w7lAgA28QOrP3r3ADsv8a/Dqiz39pJAASRx/yI0L0uW+6rfLOPt6Oe28qh0u2jPvfxnLnu8TnGbVU9+lZisp9yVaXyqZSP2iqrnLfYPEZjVWXl531er+I/vQ8BgAD4d7MH0HmYA2GgmwAIIte3j0i9skef/L2ufCu2kU/Okds+3kp9Fq93UHlLPsVWpfKplI/aKqPf61VbsdmW49xvVI+Y/LjvLTk9/t3rCIACABkQe7a5AdhzXX8S2i3fuasAiLkQKXs9+jRPso9Kj8t15VCpHO6nsWRTmX3kp1wqK3+PHdWVr4qXTWOMcrhddeWblVW+qq96D/er7D7umXdSrhw/a7tthzoCoLUACBHAwxz8xMCuAiBIWweKSu+b1UX4K3HyVekxeYyRz8iv8vf8o3rO9wg/vctRWY1V9eV3zHk9Zuab/XIetSs/7/O6YnYqEQCtBcBjfi3GJuHZaw52EQBB1hWJe5/XRe7qU6n+nM/tXq/83O515V7pc5/V+qqf3qN6d9k8V/aTT1Uexbnd63mMVVv2q94p55ZPjs3tUZziP6lEALQ9vPgTQGxsnnoOdhIAImxfa/V56cTtpO9x3q9Y73PfKp/sblPd86gvSsVku7eP6sqR8+a2+ymn983ex3PlunKpf6Wdx/VYt3ku75f/rPRY+Y36lLuyK/bTSgRA20MAAeAbmvp3IbCbALiamK86NK4a9+r5Zvzxf/3P5wYBgAD49guDg/D7Qdh1PhAAawTqZDqrX3UQv2rc2T6Zzcuzbe/6Xs/+7tX8CAAEAAKgLQbGYgcBgABYPUTweyxWXjmfCIC25M+fAGa/DrrbEACfS+qvPEAY67NxggBAAHAD0BYD3ABwgH32Acb63bd+CIC25M8NQPdf+bPv5wbgPmLlYGL+PgEDCAAEADcAbTHADcAnkDTviJh4FgYQAG3JnxuA2S/g7jZuADh0nnXokPd9sIUAQABwA9AWA/MbgCAHHuYADOyNga/uv3Z6fj83AD3XfXzoMx/MDRhoiYGWH938ly8CALJj34MBMAAGuAJtKAYQAGx8yB8MgAEwgABAAICBhhiA/CF/MAAGIP+G5M8NABsf8gcDYAAMIAAQAGCgIQYgf8gfDIAByL8h+XMDwMaH/MEAGAADCAAEABhoiAHIH/IHA2AA8m9I/twAsPEhfzAABsAAAgABAAYaYgDyh/zBABiA/BuSPzcAbHzIHwyAATCAAEAAgIGGGID8IX8wAAYg/4bkzw0AGx/yBwNgAAwgABAAYKAhBiB/yB8MgAHIvyH5cwPAxof8wQAYAAMIAAQAGGiIAcgf8gcDYADyb0j+3ACw8SF/MAAGwAACAAEABhpiAPKH/MEAGID8G5I/NwBsfMgfDIABMIAAQACAgYYYgPwhfzAABiD/huTPDQAbH/IHA2AADCAAEABgoCEGIH/IHwyAAci/IflzA8DGh/zBABgAAwgABAAYaIgByB/yBwNgAPJvSP7cALDxIX8wAAbAAAIAAQAGGmIA8of8wQAYgPwbkj83AGx8yB8MgAEwgABAAICBhhiA/CF/MAAGIP+G5M8NABsf8gcDYAAMIAAQAGCgIQYgf8gfDIAByL8h+XMDwMaH/MEAGAADCAAEABhoiAHIH/IHA2AA8m9I/twAsPHH5P/b73/8w8McgIH9MfAFEY6JcN+5QQDsu7b34zmI/8+//uZhDsDAxhiIfY4AaHkDggBAAIyFAgIA8YMA3B8DCICWh38QPwIAAYAA4JDb/5BjjcdrjABAADT89w/jgw9R8N/ccAMwJk0OFOZmFwwgABAACIC2GBgLIQQAh9wuhxzfMcYyAqAt+fMnAH7tv78AyGt0hsxnsWE7kyv75tzezr6Pbq+++6rf7P2OchzZZ7nvtcXY/tyb79740bt4v+r3jvWoeARAApEWaP8SAbD/Gn8nyDPf+w43APG+meiqvuwT7crP+7xexZ/pe2SulXFXx1v1m40ZOUZ5ZrZZzkfYqneq+h4x1kqOPLa3va5cVZ9srywRAAiAbyo6gMnDHFwtAGYEKZtKJ0z1qXSb6mHTM+sLm/Jkf8W5j/epv4rznIpRX27P4t03+6nteas+5RiViqnslU19UeaYFVuOGbWr/Nl3NF6OrdqKzTlX257T6x4/6nefZ9cRAEYGWvQeJTcAPdb512F35ns/QQAEOcY3iSS9Llvuq3yzj7ejntvKodLtoz738Zy57vE5xm1VPfpWYrKfclWl8qmUj9oqq5y32DxGY43K8B35535vez2/98w2eg/vj/jVHNnP87yqjgBAAPwLWAGX8rYDc7d5+xQBEESpuR+RZmWPPvl7XflWbCOfnCO3fbyV+ixe76DylnyKrUrlUykftVVGv9ertmKzLce530o94o9yuN3rR++SfVfe5yinctyaW/GPKBEACID/E2gAkoc5CAy8mwBwsvS6yDb3VeToPrkebX8U734aSzaV2Ud+ns99ztaVbzTe6jgjP+Wtyupdqz6942yMFVv1Dqt9/l7V+3ge+aqULb9jtsvvqPQ4r3vcqN99nl1HAKSNH4vS44k/AfAwBzUG3k0ABBGKMFV636wuEl2Jk69Kj8ljjHxGfpW/5x/Vc75H+OldjspqrKovv2PO6zEz3+yX86hd+Xmf16vxZFc5yyvbrJzlyTblGfXL/ooSAdDmwM/Chn8DEBuQp56DqwVAkF9FkN7ndZGl+lSqP+dzu9crP7d7XbmXsLLwAAAgAElEQVRX+txntb7qp/eo3l02z5X95FOVR3Fu93oeY9WW/ap3yrnl47FeX/Gvcozi5OvlbLxsO5PXx3hGHQHQ9hBAAMTG5Knn4B0EgIjS10h9XjoxOtl6nPcr1vvct8onu9tU9zzqi1Ix2e7to7py5Ly57X7K6X2z9/Fcua5c6l9p53E91m2ey/vlf1QqRmX2V3+UYVMpv9z2fsWqb6VUTM7r/aqv5HuFDwKg7SGAANBmpPwpAt5FALyCBGdjBDZm9mfZrhr3Wd9D3vF/je/KuUEAIAC+/VLhMPx5GHacEwTAf4R91UH8qnFn2L7yYHq393q393nU2iAAEAAIgLYYGIsdBEAPAfCog4Q87/kL/2hdEABtyZ8/AcxUfXcbAuAzCf2I8LGzro4BBAACgBuAthjgBsDJkDqHYzcMIADakj83AN1/5c++nxsADsNuh2HH70UAIAC4AWiLAW4AOpI+34y4EwYQAG3JnxuA2S/g7jZuADgkdEhQ7osFBAACgBuAthiY3wAEOfAwB2Bgbwx8df+10/P7uQHoue7jQ5/5YG7AQEsMtPzo5r98EQCQHfseDIABMMAVaEMxgABg40P+YAAMgAEEAAIADDTEAOQP+YMBMAD5NyR/bgDY+JA/GAADYAABgAAAAw0xAPlD/mAADED+DcmfGwA2PuQPBsAAGEAAIADAQEMMQP6QPxgAA5B/Q/LnBoCND/mDATAABhAACAAw0BADkD/kDwbAAOTfkPy5AWDjQ/5gAAyAAQQAAgAMNMQA5A/5gwEwAPk3JH9uANj4kD8YAANgAAGAAAADDTEA+UP+YAAMQP4NyZ8bADY+5A8GwAAYQAAgAMBAQwxA/pA/GAADkH9D8ucGgI0P+YMBMAAGEAAIADDQEAOQP+QPBsAA5N+Q/LkBYOND/mAADIABBAACAAw0xADkD/mDATAA+Tckf24A2PiQPxgAA2AAAYAAAAMNMQD5Q/5gAAxA/g3JnxsANj7kDwbAABhAACAAwEBDDED+kD8YAAOQf0Py5waAjQ/5gwEwAAYQAAgAMNAQA5A/5A8GwADk35D8uQFg40P+YAAMgAEEAAIADDTEAOQP+YMBMAD5NyR/bgDY+JA/GAADYAABgAAAAw0xAPlD/mAADED+DcmfGwA2PuQPBsAAGEAAIADAQEMMQP6QPxgAA5B/Q/LnBoCNPyb/337/4x8e5gAM7I+BL4hwTIT7zg0CYN+1vR/PQfx//vU3D3MABjbGQOxzBEDLGxAEAAJgLBQQAIgfBOD+GEAAtDz8g/gRAAgABACH3P6HHGs8XmMEAAKg4b9/GB98iIL/5oYbgDFpcqAwN7tgAAGAAEAAtMXAWAghADjkdjnk+I4xlhEAbcmfPwHwa//9BEBekzPkPYsN25lcle8jclR5c9/qOKt+Ob+3j3Ic2T3Xo+sxtj+Pzv+sfLfO2a1x93wHAiCBzAG3dx0BsPf6fifPs996xQ1AvGMms6ov+0S78vM+r1fxK32PyPHIcR7xPpFjlGdmW/mOe3yqd6r67hnjWbG3vuetcfd8BwIAAfBNZQcIeZiDVwuAGfnJptIJT30q3aZ62PTM+sKmPCv+8lGM5/Zcue5t5VCs29QnHx9ntU85RqXyVPbKpr4oc8yKLceM2lX+7Hs0Xvh7niN/2X0cxVc25ZeP4tQ+ipGf5/E+5XtmiQAwctCC9Si5Aeixzr8OvzPf+44CQEQpQozvUV223Ce793tdce7n9pX6LEfEK4dK+ee2v0NVV1xl81zZT/5VqTiV8lFbZZXzFpvHaKxRGb4j/9xftb3P6/lbjmxuX62v+B29x2heHtmPAEAA/LvJArA8zIEw8K4CQKTpBJsJUd/g/e7vdeWT76rtFj+P8frRO+jdZn6zfB6f64pTKbvaKvPYVVux2eY53Ge1HvE5R27nXNk+az/Kpnd4dD7lfUaJAGh78HEDEBuVp56DqwWAk6jXgwS1ZkeE6HG5rhwqlcv9NFZlU5yXI7+j/tk4sq2M4z5R17iz0v1UV6mxFR/9+ZFNvm6vbN53tj56ryqP+4bd30t1xantpdtUV57cjrjcN2rPfLPNczyrjgAoQO1A2LceAoCHOagxcLUACMITIar0vlldZLkSJ1+VHjMbI/spfjUmx3t7VF/N7e9yVK/Gqvry2Dmvx8x8s1/Oo3bl531eV4yX2Z7bM9+ZbZTH+70eubzt9SObv8ez6giA1gLgp6IPgPIwB68WAJkMRXhOmF7P9pkt586+3o56buexcr7cXo1f9dP4q+NkP4/PdX+HKs7tXs++q7bsl99H7crP+7ye3+Vse5Zr1eZ+Xs/vcsamuXhmiQBoe+DxJ4DYjDz1HFwhAESWvibq89IJ0QnV47xfsd7nvlU+2bPtTA6Nqxw5VnbvV59i1Pb3kb/3VX6eY1RXLtlX2nlcj3Wb5/J++R+VilGZ/dUfZWWr+hSzasu5q3bV5/kre/SN+j322XUEQNtDAAGgTUj5UwRcJQCeTXhH+TMpH/nfan/VOLe+H3Hj/3reTnODAEAA8Cu4LQZ+HvwSQwiA5x4ArxIAWs+qvPIgq95HfVe+V7exEQBtyZ8bABEO5U8hgADYQwB0O9D43nO4RQAgALgBaIuBnwe/xFBXAcABcu4AYb4+e74QAG3JnxsAHXaUP4UAAuCziZ2DmfVbwQACAAHADUBbDPw8+CWGEAAcICsHCD6fjRMEQFvy5wZAhx3lTyGAAPhsYudgZv1WMIAAQABwA9AWAz8PfokhBAAHyMoBgs9n4wQB0Jb8uQHQYUf5UwgEMfAwB2Bgfwx8QYA/CXD/OUEA7L/GHXHNN4NrMHASA0zYyQnb4NocAdBvzdnnrDkYAAM/MPCjY4MDjm+aAx0BMJ8f8MP8gAEw0AIDLT4SUfPt3zsgACA39j0YAANg4NvBACB6AAIB0GOd2c+sMxgAA1MMTI38ct5SICEAIAX2PRgAA2BgywMOYM+BjQCYzw/4YX7AABhogYEWH8lNxjehhwCA3Nj3YAAMgIFvBwOA6AEIBECPdWY/s85gAAxMMTA18st5S4GEAIAU2PdgAAyAgS0POIA9BzYCYD4/4If5AQNgoAUGWnwkNxnfhB4CAHJj34MBMAAGvh0MAKIHIBAAPdaZ/cw6gwEwMMXA1Mgv5y0FEgIAUmDfgwEwAAa2POAA9hzYCID5/IAf5gcMgIEWGGjxkdxkfBN6CADIjX0PBsAAGPh2MACIHoBAAPRYZ/Yz6wwGwMAUA1Mjv5y3FEgIAEiBfQ8GwAAY2PKAA9hzYCMA5vMDfpgfMAAGWmCgxUdyk/FN6CEAIDf2PRgAA2Dg28EAIHoAAgHQY53Zz6wzGAADUwxMjfxy3lIgIQAgBfY9GAADYGDLAw5gz4GNAJjPD/hhfsAAGGiBgRYfyU3GN6GHAIDc2PdgAAyAgW8HA4DoAQgEQI91Zj+zzmAADEwxMDXyy3lLgYQAgBTY92AADICBLQ84gD0HNgJgPj/gh/kBA2CgBQZafCQ3Gd+EHgIAcmPfgwEwAAa+HQwAogcgEAA91pn9zDqDATAwxcDUyC/nLQUSAgBSYN+DATAABrY84AD2HNgIgPn8gB/mBwyAgRYYaPGR3GR8E3oIAMiNfQ8GwAAY+HYwAIgegEAA9Fjn2/bzb7//8Q8PcwAG9sfAF0R4G0l+9rwhAD57/Z6L2SD+P//6m4c5AAMbYyD2OQKg5Q0IAgABMBYRCADEDwJwfwwgAFoe/kH8CAAEAAKAQ27/Q441Hq8xAgABwD+ObIsBBACHw/hwYG72nxsEQFvy5waAGwAEAIfc/occazxeYwQAAoAbgLYYeF8BkMXZGRKfxYbtTK7sm3N7O/s+ur367qt+s/c7ynFkn+W+1RZjjp7IOXunmc3fZ9XPYz65jgCYgGoEtj36uQHYYx3HpHjP9wUxXEVs8d557Kov+0S78vM+r1fxZ/oemWtl3NXxVv1mY0aOUZ6ZbZbzkbbq3aq+s2M+IsfZMa/0RwAgAIaqWhud8jmH7DvP61UCYEbAsql04lSfSrepHjY9s76wKU/2V5z7eJ/6qzjPqRj15fYs3n2zn9qet+pTjlGpmMpe2dQXZY5ZseWYo/ZonIjTeJ4j+8un6lec21RXnHxUql9+6o9SNu+b9We/Z7YRAEYKWqgeJTcAPdb516F35nvfWQCIPEWM8V2qy5b7ZPd+ryvO/dzudfdRXWX283bU1c51j5dP9K3Ub/XTmFWpcVXKR22Veezcdr+ZLftpvFFZ+Uef96/UR+/ksfLxvlFdvnrvkd+oX3GvKhEACID/K9QAJQ9zEBh4dwEgonUizaQpLHu/+3td+eQ7s418co7c9pwr9Vm83kHlLfkUW5XKp1I+aquMfq9XbcVmW45zv6N6FZv7vD2q53HCz31lz33e9nr4e9vrypV9vP/VdQRA20OPG4DYnDz1HLyLAHAC9bpINPdVBOo+uR5tfxTvfhpLNpXZR36ez33O1pVvNN7qOCM/5a3K6l2rPr3jbIwVW/UOsz5/F/nlPm+P6opVGX7u6/2qR+k+ivEy+7q/bPJX+4oSAZAIQIuyfxkCgIc5qDHwLgIgSFHkqdL7ZnUR6kqcfFV6TB5j5DPyq/w9/6ie8z3CT+9yVFZjVX35HXNej5n5Zr+cJ7cr/9zn7VF9lNf9q/d2u9dzPm+P/Eb9HvusOgKgtQD4/usngMjDHAQGrhIAQXQVIXqf10WM6lOp/pzP7V6v/NzudeVe6XOf1fqqn96jenfZPFf2k09VHsW53et5jFVb9qveyfsq/9zn7VF99r63xNySz8fxb3xFHQHQ9tDjTwCx8XjqObhSAIhEfW3U56UTpJOox3m/Yr3Pfat8srtNdc+jvigVk+3ePqorR86b2+6nnN43ex/PlevKpf6Vdh7XY93mubxf/iul55B/7vO218M/2noUr/6qXcVnvyqfcub4Wb/nfXYdAWBA0AL2KBEAPdb5F9Gd+d6rBcCzie8of8zVkc8z7FeN+4xvIef4v8D3LnODAEAA/F8Jnzkg8L3tYP2UeUMA7C0AZji88nB61/e6ck6eOTYCAAGAAGiLgbGIQQDsLQCeeaiQ+/1/+WuNEABtyZ8/Acx+bXS3dRcAIkjKzznMWKvza4UAQABwA9AWA9wAcGicPzSYs33mDAHQlvy5Aej+K3/2/dwA7EPyHNis5QgDCAAEADcAbTHADcCIGOnn0OyAAQRAW/LnBmD2C7i7jRsADsAOB2D3b0QAIAC4AWiLgfkNQJADD3MABvbGwFf3Xzs9v58bgJ7rPj70mQ/mBgy0xEDLj27+yxcBANmx78EAGAADXIE2FAMIADY+5A8GwAAYQAAgAMBAQwxA/pA/GAADkH9D8ucGgI0P+YMBMAAGEAAIADDQEAOQP+QPBsAA5N+Q/LkBYOND/mAADIABBAACAAw0xADkD/mDATAA+Tckf24A2PiQPxgAA2AAAYAAAAMNMQD5Q/5gAAxA/g3JnxsANj7kDwbAABhAACAAwEBDDED+kD8YAAOQf0Py5waAjQ/5gwEwAAYQAAgAMNAQA5A/5A8GwADk35D8uQFg40P+YAAMgAEEAAIADDTEAOQP+YMBMAD5NyR/bgDY+JA/GAADYAABgAAAAw0xAPlD/mAADED+DcmfGwA2PuQPBsAAGEAAIADAQEMMQP6QPxgAA5B/Q/LnBoCND/mDATAABhAACAAw0BADkD/kDwbAAOTfkPy5AWDjQ/5gAAyAAQQAAgAMNMQA5A/5gwEwAPk3JH9uANj4kD8YAANgAAGAAAADDTEA+UP+YAAMQP4NyZ8bADY+5A8GwAAYQAAgAMBAQwxA/pA/GAADkH9D8ucGgI0P+YMBMAAGEAAIADDQEAOQP+QPBsAA5N+Q/LkBYOND/mAADIABBAACAAw0xADkD/mDATAA+Tckf24A2Phj8v/t9z/+4WEOwMD+GPiCCMdEuO/cIAD2Xdv78RzE/+dff/MwB2BgYwzEPkcAtLwBQQAgAMZCAQGA+EEA7o8BBEDLwz+IHwGAAEAAcMjtf8ixxuM1RgAgABr++4fxwYco+G9uuAEYkyYHCnOzCwYQAAgABEBbDIyFEAKAQ26XQ47vGGMZAdCW/PkTAL/2P1MA5HU7Q/Cz2LCdyZV9c25vZ99Ht1fffdVv9n5HOY7ss9z32EbjjvrzWKt+Oe6T2wgABAA3AG0x8HkCoCLpqq8i5crP+7xexZ/pe2SulXFXx1v1m40ZOUZ5ZrZZzkfYZu+0kn8UvxL7qT4IgLbkzw2AyIrypxB4xz8BzAhaNpVOyOpT6TbVw6Zn1hc25cn+inMf71N/Fec5FaO+3J7Fu2/2U9vzVn3KMSoVU9krm/qizDErthwza+cxcjtiR2O6r9cVo3FlU5nt7hc+7ifbu5QIANv4WqweJQKgxzr/OtjOfO+nCoBMxvHNTraaA+9T3X29XuV0u9erXKM+j4u62rnu8fKp3sn9VL/Vz+NzXe+gUna1Veaxc9v9Zrbsp/GqMvueabuv16t3kz1Kr+ud1Ddqq//qEgGAAPimiAVoytsOzl3m7ZMFQJCq1mFEsJU9+uTvdeVbsY18co7c9vFW6rN4vYPKW/IptiqVT6V81FYZ/V6v2orNthznfrN6jjvTdl+vz97N/Ub1HD97/1fbEAAIgP+TZQCYhzkIDHyCADgiXLePiNV9cj3a/iiH+0Vfbs/6PJ/Hna3nMTxeNh8r+tTvdffJOeSXS/dTXeXZMSLOHx9L/d63Ute7qPSY3OftUT3iR7ZZf9j88fd4lzoCIC2SL9je9fgTAA9zUGPgEwSAE3PsVZHqSv0W3yrG30H2M32KWXln98ljuM3rZ/z0Lkel51dd5Wy8nNdjcpz7Zj+3VXX5q3Sf3OftUT3iR7aVfh//3eoIgNYC4LtCDTDzMAeBgXcUAJmIRaYjEs5298u2nDv7ejvqua18Kt0+6nOf1fqqn8aMciUm+3l8rnu+Ks7tXs++q7bsl9+nao9icr+3Z/WZTeOPfPJ3y/8dSgRA20OPfwQYG5annoN3FQAiU1839Xnp5JqJOcfKV/257fE+RvZXnPt4n/qrOB/jqH4UX42jnDlWbdnz+1bt7LvS1jg5n/qVQ6V/Q45ZaXue7J/HlD3HyC/sblupK8ZzaJx3KhEAbQ8BBIA2J+VPEfDOAuBqAvUD4JXvctW4r/xGxhr/V/ueMTcIAAQAv4LbYuDnwS8xhAAYE/FVB/GrxhUGqvIZh9Bqzup91LeaA7/vuEYAtCV/bgBEHpQ/hQAC4DtR+sERePH2q+pXjfuq72OcMeaeNTcIAAQANwBtMfDz4JcYQgC8noyfRfLkZS1HGEAAtCV/bgB02FH+FAIIAA6N0aFB/z7YQAAgALgBaIuBnwe/xBACYB+S58BmLUcYQAC0JX9uAHTYUf4UAggADo3RoUH/PthAACAAuAFoi4GfB7/EEAJgH5LnwGYtRxhAALQlf24AdNhR/hQCQQw8zAEY2B8DXxDgTwLcf04QAPuvcUdc883gGgycxAATdnLCNrg2RwD0W3P2OWsOBsDADwz86NjggOOb5kBHAMznB/wwP2AADLTAQIuPRNR8+/cOCADIjX0PBsAAGPh2MACIHoBAAPRYZ/Yz6wwGwMAUA1Mjv5y3FEgIAEiBfQ8GwAAY2PKAA9hzYCMA5vMDfpgfMAAGWmCgxUdyk/FN6CEAIDf2PRgAA2Dg28EAIHoAAgHQY53Zz6wzGAADUwxMjfxy3lIgIQAgBfY9GAADYGDLAw5gz4GNAJjPD/hhfsAAGGiBgRYfyU3GN6GHAIDc2PdgAAyAgW8HA4DoAQgEQI91Zj+zzmAADEwxMDXyy3lLgYQAgBTY92AADICBLQ84gD0HNgJgPj/gh/kBA2CgBQZafCQ3Gd+EHgIAcmPfgwEwAAa+HQwAogcgEAA91pn9zDqDATAwxcDUyC/nLQUSAgBSYN+DATAABrY84AD2HNgIgPn8gB/mBwyAgRYYaPGR3GR8E3oIAMiNfQ8GwAAY+HYwAIgegEAA9Fhn9jPrDAbAwBQDUyO/nLcUSAgASIF9DwbAABjY8oAD2HNgIwDm8wN+mB8wAAZaYKDFR3KT8U3oIQAgN/Y9GAADYODbwQAgegACAdBjndnPrDMYAANTDEyN/HLeUiAhACAF9j0YAANgYMsDDmDPgY0AmM8P+GF+wAAYaIGBFh/JTcY3oYcAgNzY92AADICBbwcDgOgBCARAj3VmP7POYAAMTDEwNfLLeUuBhACAFNj3YAAMgIEtDziAPQc2AmA+P+CH+QEDYKAFBlp8JDcZ34QeAgByY9+DATAABr4dDACiByAQAD3W+bb9/Nvvf/zDwxyAgf0x8AUR3kaSnz1vCIDPXr/nYjaI/8+//uZhDsDAxhiIfY4AaHkDggBAAIxFBAIA8YMA3B8DCICWh38QPwIAAYAA4JDb/5BjjcdrjABAAPCPI9tiAAHA4TA+HJib/ecGAdCW/LkB4AYAAcAht/8hxxqP1xgBgADgBqAtBj5PAGTRdobcZ7FhO5Mr++bc3s6+j26vvvuq3+z9jnK43euznNkWcdUjv9W8q37Km8v8Dtm+QxsBMABbXvz92twA7LemNXHe8p1BDO9GcPEd+Z2qvuwT7crP+7xexZ/pe2SulXFXx1v1m40ZOUZ5sm3kN8sftqO4I7vyr/rJ38sqturzmE+sIwAQAKXaDrDz9J2DdxMAM/KVTaUTsfpUuk31sOmZ9YVNebK/4tzH+9RfxXlOxagvt2fx7pv91Pa8VZ9yjErFVPZs87Eq/1HfLE5juE/VF7nlI/tovNyvuNzvbfmoDJvXvR392ea5rqwjAGzza6F6lNwA9FjnX4fbme/9RAHgpJvrasccVITr/V5XnGI0h95WXWWOj/7c523PmeueM8e4rarncUfx2U+5qlI5VMpHbZVnciqHSs+hPi/d7vXw8XbUc9vzjOoeM/ORn4+jPr1Lbo/yXdWPAEAA/LtJBGLK2w7M3ebtUwVARbyZXLVW3h99antd+VZsI5+cI7d9vJX6LF7voPKWfIqtSuVTKR+1VUa/1+W3UkZc9SjW83pddpXZltvyy+WKn/us1GMM98tjXtVGAAzAFou198MNwN7rex9+310AOJl6XUSb+yqCdZ9cj7Y/inc/jSWbyuwjP8/nPmfryjcab3WckZ/yVmX1rlVffscq16jP81U+bvd69s223M7+aq/4uc9KPXK7n8a6ukQApI0ei9TjCQHAwxzUGHh3AeCE6sS6UhfpnvGtYvwdZD/Tp5iV93CfPIbbvH7GT+9yVHp+1VXOxjvK63bP5/2qu93rsqvMttyWXy5X/NxnpR5juF8e86o2AqDNgZ+FDTcAsSF56jl4NwEwIlAnVa+LUNWnUv05n9u9Xvm53evKvdLnPqv1VT+9R/Xusnmu7CefqjyKc7vXq1yjvqM4t3s98nnb69k2Glv9OTbHu31WH9k0ztUlAqDtIYAAiM3JU8/BOwoAkbCvmfq8dFLNBJxj5av+3PZ4HyP7K859vE/9VZyPcVQ/iq/GUc4cq7bs+X2rdvadtT2/6lXO3CffXMpP/bkd/eqL8qjtvlVd46h0H899VK/iPdeVdQRA20MAAaCNSflTBLyrALiSLGNsJ/tXvstV477yG3cb6xPWDAGAAOBXcFsM/Dz4JYYQAPV/PvUqUn/VuFr/qnzUAV3lVt+jxpjl0VhVOYs7a4v8Z2Ne7Y8AaEv+3ABUBEDff6IAAdBTALz6ANp5PARA28N1/MvqfQ4YBMD7rMX74QUBUAuAnQ8svq3fmnMD0FakIAAQAGPhgQDodxggAPqtOQIAAcC/AWiLAQQAh16/Q481/7XmCIC25M8NADcACAAOg1+HAXPRby4QAAgAbgDaYgABwKHX79BjzX+tOQKgLflzA8ANwFwABDnwMAdgYG8MfEGEYyLcd24QAPuubUc8883gGQzciAEm7saJ++DrcwRAvzVnn7PmYAAM/MDAj44PPtj4ljWAIwDW5gk8MU9gAAxsjYGtPw4xU/47BwQApMa+BwNgAAyUBwTA2BsYCIC915f9y/qCATCwhIElJ35JbyWUEACQA/seDIABMLDVwQag1wCNAFibJ/DEPIEBMLA1Brb+OG4uSoGHAIDU2PdgAAyAgfKAABh7AwMBsPf6sn9ZXzAABpYwsOTEL+mthBICAHJg34MBMAAGtjrYAPQaoBEAa/MEnpgnMAAGtsbA1h/HzUUp8BAAkBr7HgyAATBQHhAAY29gIAD2Xl/2L+sLBsDAEgaWnPglvZVQQgBADux7MAAGwMBWBxuAXgM0AmBtnsAT8wQGwMDWGNj647i5KAUeAgBSY9+DATAABsoDAmDsDQwEwN7ry/5lfcEAGFjCwJITv6S3EkoIAMiBfQ8GwAAY2OpgA9BrgEYArM0TeGKewAAY2BoDW38cNxelwEMAQGrsezAABsBAeUAAjL2BgQDYe33Zv6wvGAADSxhYcuKX9FZCCQEAObDvwQAYAANbHWwAeg3QCIC1eQJPzBMYAANbY2Drj+PmohR4CABIjX0PBsAAGCgPCICxNzAQAHuvL/uX9QUDYGAJA0tO/JLeSighACAH9j0YAANgYKuDDUCvARoBsDZP4Il5AgNgYGsMbP1x3FyUAg8BAKmx78EAGAAD5QEBMPYGBgJg7/Vl/7K+YAAMLGFgyYlf0lsJJQQA5MC+BwNgAAxsdbAB6DVAIwDW5gk8MU9gAAxsjYGtP46bi1LgIQAgNfY9GAADYKA8IADG3sBAAOy9vvft399+/+MfHuYADOyPgS+I8D6y/Mz5QwB85rq9BqtB/H/+9TcPcwAGNsZA7HMEQMsbEAQAAmAsJhAAiB8E4P4YQAC0PPyD+BEACAAEAIfc/occazxeYwQAAoB/JNkWAwgADofx4cDc7D83CIC25M8NADcACAAOuf0POdZ4vMYIAAQANwBtMSKAG5AAAAO5SURBVNBLAGTBd+ZgmMWG7Uyu7Jtzezv7Prq9+u6rfkfv5992JucZX73DLTGPiFWOTygRAG3JnxuATEa0fwmCIIZPILDVd6wOg6qvylf5eZ/Xq/gzfY/MtTLu6nirfrMxqxxVX5Vj1c9jb4lR/D2xyvEJJQIAAcANQFsM/Drwg/D82UkAzMhcNpVO2upT6TbVw6Zn1hc25cn+inMf71N/Fec5FaO+3J7Fu2/2U9vzVn3KMSo9vvLJdm+rHqXqniP3q+2+qquM+JGf+jWG2h4r2yeXCADbwL7I+9e5Adh/jX8dTme/tZsA0GEgMo/5Ul223Ce793tdce7ndq+7j+oqs5+3o652rnu8fKJvpX6rn8Yclf6O2cffqxrf7WfryjeKk13vtOon/08tEQAIgG8qOIDPwxx0FAA6BJz8M7Frb3i/+3td+eQ7s418co7c9pwr9Vm83kHlLfkUe1RGbs8f/rP2GZvGnsXIx0v3H9Wr9/Qcn1ZHALQ98LgBiE3OU8/BzgLgiNzdPiJ098n1aPujHO4Xfbk96/N8Hne2nsfweNl8rOhTv9fdJ+eQ30rpsV6vxvR8lW/VN4vRGBGnR/6eSzYv5ffpJQLAFt8XeP96CAAe5qDGwM4CQMTv5WpdhB/8cFSXXaXHRF9un+mrcnq+UT2P8Qg/vctR6WPJ1/u8PnvPbFOu3D/Ll31z22O97mPtUEcAtBUAv1RvAJyHOXAM7CQAMrmLuJ3YvZ7tM1vOnX29HfXc1lgq3T7qc5/V+qqfxoxyJSb7eXyuez7ZvC/Xj9orOeQTpec7aruv16s4H+PT6ggADj8OfzDwAwO7CQARd5C5HvV56QTuxK8Yldlv5Jv9NJb7Vz7e5zE5zttH9bC7j/L6WPKRn5eqK06+Hn9UV4zK7O/9UZdddbfLFmXVn/uUo4qTzUvVPb/3eZ5PrSMAjBBicXmYAzDw9e//CvhTSe1d3/uqw+Oqcd91HXivX/9lQAQAhz6iBwz8wMCONwBXE/9VB/Grxo1xRs/Vc8/4vw59nwsEwAS0IzDTP97ozM0ec4MAqAnTyfNsPfbG2ZhH+F817iPenRyPx6HPKQIAATBU7Rzmexzmt6wjAuC5xOskTJ25vgoDCAAEAAIADPzAAAKAQ+mqQ4lxX4c9BADk/4P8b/nFSMxetwUIgNeRMAcec30VBhAACAAEABj4gQEEAIfSVYcS474OewgAyP8H+fNrfq9f87esJwLgdSTMgcdcX4UBBAACAAEABn5gIIiBhzkAA/tj4H8UH8w78i2RfgAAAABJRU5ErkJggg==;" parent="WIyWlLk6GJQsqaUBKTNV-1" vertex="1">
          <mxGeometry x="-690" y="1930" width="676.67" height="2474.06" as="geometry" />
        </mxCell>
        <mxCell id="sTVolGUjrKoJvCUlZHto-215" style="edgeStyle=orthogonalEdgeStyle;rounded=0;orthogonalLoop=1;jettySize=auto;html=1;exitX=0.5;exitY=1;exitDx=0;exitDy=0;fontFamily=Helvetica;fontSize=12;fontColor=default;" parent="WIyWlLk6GJQsqaUBKTNV-1" source="sTVolGUjrKoJvCUlZHto-207" target="sTVolGUjrKoJvCUlZHto-214" edge="1">
          <mxGeometry relative="1" as="geometry" />
        </mxCell>
        <mxCell id="sTVolGUjrKoJvCUlZHto-207" value="Apply();" style="rounded=1;whiteSpace=wrap;html=1;fontSize=14;glass=0;strokeWidth=1;shadow=0;fillColor=#0050ef;strokeColor=#001DBC;fontColor=#ffffff;" parent="WIyWlLk6GJQsqaUBKTNV-1" vertex="1">
          <mxGeometry x="-1397.5" y="2520" width="150" height="30" as="geometry" />
        </mxCell>
        <mxCell id="sTVolGUjrKoJvCUlZHto-211" style="edgeStyle=orthogonalEdgeStyle;rounded=0;orthogonalLoop=1;jettySize=auto;html=1;entryX=1;entryY=0.5;entryDx=0;entryDy=0;fontFamily=Helvetica;fontSize=12;fontColor=default;" parent="WIyWlLk6GJQsqaUBKTNV-1" source="sTVolGUjrKoJvCUlZHto-209" target="sTVolGUjrKoJvCUlZHto-206" edge="1">
          <mxGeometry relative="1" as="geometry" />
        </mxCell>
        <mxCell id="sTVolGUjrKoJvCUlZHto-213" value="继承" style="edgeLabel;html=1;align=center;verticalAlign=middle;resizable=0;points=[];fontSize=12;fontFamily=Helvetica;fontColor=default;" parent="sTVolGUjrKoJvCUlZHto-211" vertex="1" connectable="0">
          <mxGeometry x="0.0203" relative="1" as="geometry">
            <mxPoint as="offset" />
          </mxGeometry>
        </mxCell>
        <mxCell id="sTVolGUjrKoJvCUlZHto-209" value="&lt;div&gt;&amp;nbsp; &amp;nbsp; StepTemplateType_Crop_Structure = 100,&lt;/div&gt;&lt;div&gt;&amp;nbsp; &amp;nbsp; StepTemplateType_Depo_Anisotropic = 200,&lt;/div&gt;&lt;div&gt;&amp;nbsp; &amp;nbsp; StepTemplateType_Depo_Ellipsoidal = 201,&lt;/div&gt;&lt;div&gt;&amp;nbsp; &amp;nbsp; StepTemplateType_Depo_Epi = 202,&lt;/div&gt;&lt;div&gt;&amp;nbsp; &amp;nbsp; StepTemplateType_Depo_Fill = 203,&lt;/div&gt;&lt;div&gt;&amp;nbsp; &amp;nbsp; ...&lt;/div&gt;" style="rounded=0;whiteSpace=wrap;html=1;verticalAlign=top;align=left;fillColor=#e3c800;strokeColor=#B09500;fontSize=14;fontColor=#000000;" parent="WIyWlLk6GJQsqaUBKTNV-1" vertex="1">
          <mxGeometry x="-1175" y="2550" width="305" height="120" as="geometry" />
        </mxCell>
        <mxCell id="sTVolGUjrKoJvCUlZHto-218" style="edgeStyle=orthogonalEdgeStyle;rounded=0;orthogonalLoop=1;jettySize=auto;html=1;fontFamily=Helvetica;fontSize=12;fontColor=default;" parent="WIyWlLk6GJQsqaUBKTNV-1" source="sTVolGUjrKoJvCUlZHto-214" target="sTVolGUjrKoJvCUlZHto-217" edge="1">
          <mxGeometry relative="1" as="geometry" />
        </mxCell>
        <mxCell id="sTVolGUjrKoJvCUlZHto-214" value="&lt;div&gt;// save parameters;&lt;span style=&quot;background-color: initial;&quot;&gt;&amp;nbsp; &amp;nbsp; saveStepParamters();&lt;/span&gt;&lt;/div&gt;" style="rounded=1;whiteSpace=wrap;html=1;fontSize=14;glass=0;strokeWidth=1;shadow=0;fillColor=#0050ef;strokeColor=#001DBC;fontColor=#ffffff;" parent="WIyWlLk6GJQsqaUBKTNV-1" vertex="1">
          <mxGeometry x="-1397.5" y="2590" width="150" height="40" as="geometry" />
        </mxCell>
        <mxCell id="sTVolGUjrKoJvCUlZHto-217" value="m_topoModelBase-&amp;gt;apply();" style="rounded=1;whiteSpace=wrap;html=1;fontSize=14;glass=0;strokeWidth=1;shadow=0;fillColor=#0050ef;strokeColor=#001DBC;fontColor=#ffffff;" parent="WIyWlLk6GJQsqaUBKTNV-1" vertex="1">
          <mxGeometry x="-1397.5" y="2670" width="150" height="40" as="geometry" />
        </mxCell>
        <mxCell id="sTVolGUjrKoJvCUlZHto-219" value="class&amp;nbsp;QxStepTemplateBase的各实现子类在构造函数构造了各自的m_topoModelBase实体&lt;br&gt;eg: substrate&lt;br&gt;m_topoModelBase = new PIEngine::QxTopoModelSubstrate();" style="shape=callout;whiteSpace=wrap;html=1;perimeter=calloutPerimeter;rounded=0;strokeColor=default;align=center;verticalAlign=middle;fontFamily=Helvetica;fontSize=14;fontColor=default;fillColor=default;position2=0.63;base=10;" parent="WIyWlLk6GJQsqaUBKTNV-1" vertex="1">
          <mxGeometry x="-1180" y="2400" width="230" height="150" as="geometry" />
        </mxCell>
        <mxCell id="sTVolGUjrKoJvCUlZHto-220" value="&lt;p style=&quot;margin-top: 0pt; margin-bottom: 0pt; margin-left: 0in; direction: ltr; unicode-bidi: embed; font-size: 14px;&quot;&gt;class QxIntegrationPage&lt;/p&gt;" style="rounded=0;whiteSpace=wrap;html=1;align=left;verticalAlign=top;fillColor=#fff2cc;strokeColor=#d6b656;fontSize=14;" parent="WIyWlLk6GJQsqaUBKTNV-1" vertex="1">
          <mxGeometry x="1220" y="605" width="890" height="255" as="geometry" />
        </mxCell>
        <mxCell id="sTVolGUjrKoJvCUlZHto-221" value="&lt;p style=&quot;margin-top: 0pt; margin-bottom: 0pt; margin-left: 0in; direction: ltr; unicode-bidi: embed; font-size: 14px;&quot;&gt;class&amp;nbsp;QxNavigationPage&lt;/p&gt;" style="rounded=0;whiteSpace=wrap;html=1;verticalAlign=top;align=left;fillColor=#dae8fc;strokeColor=#6c8ebf;fontSize=14;" parent="WIyWlLk6GJQsqaUBKTNV-1" vertex="1">
          <mxGeometry x="1220" y="315" width="660" height="80" as="geometry" />
        </mxCell>
        <mxCell id="sTVolGUjrKoJvCUlZHto-222" value="&lt;p style=&quot;margin-top: 0pt; margin-bottom: 0pt; margin-left: 0in; direction: ltr; unicode-bidi: embed; font-size: 14px;&quot;&gt;class MainPageWindow&lt;/p&gt;" style="rounded=0;whiteSpace=wrap;html=1;align=left;verticalAlign=top;labelBackgroundColor=none;fillColor=#d5e8d4;strokeColor=#82b366;fontSize=14;" parent="WIyWlLk6GJQsqaUBKTNV-1" vertex="1">
          <mxGeometry x="1220" y="395" width="660" height="210" as="geometry" />
        </mxCell>
        <mxCell id="sTVolGUjrKoJvCUlZHto-223" style="edgeStyle=orthogonalEdgeStyle;rounded=0;orthogonalLoop=1;jettySize=auto;html=1;exitX=0.5;exitY=1;exitDx=0;exitDy=0;fontFamily=Helvetica;fontSize=14;fontColor=default;" parent="WIyWlLk6GJQsqaUBKTNV-1" source="sTVolGUjrKoJvCUlZHto-224" target="sTVolGUjrKoJvCUlZHto-231" edge="1">
          <mxGeometry relative="1" as="geometry" />
        </mxCell>
        <mxCell id="sTVolGUjrKoJvCUlZHto-224" value="itemDoubleClickedSignal" style="rounded=1;whiteSpace=wrap;html=1;fontSize=14;glass=0;strokeWidth=1;shadow=0;fillColor=#60a917;strokeColor=#2D7600;fontColor=#ffffff;" parent="WIyWlLk6GJQsqaUBKTNV-1" vertex="1">
          <mxGeometry x="1375" y="345" width="160" height="40" as="geometry" />
        </mxCell>
        <mxCell id="sTVolGUjrKoJvCUlZHto-226" style="edgeStyle=orthogonalEdgeStyle;rounded=0;orthogonalLoop=1;jettySize=auto;html=1;exitX=0.5;exitY=1;exitDx=0;exitDy=0;fontFamily=Helvetica;fontSize=14;fontColor=default;" parent="WIyWlLk6GJQsqaUBKTNV-1" source="sTVolGUjrKoJvCUlZHto-227" target="sTVolGUjrKoJvCUlZHto-229" edge="1">
          <mxGeometry relative="1" as="geometry" />
        </mxCell>
        <mxCell id="sTVolGUjrKoJvCUlZHto-227" value="openBtnClickedSignal" style="rounded=1;whiteSpace=wrap;html=1;fontSize=14;glass=0;strokeWidth=1;shadow=0;fillColor=#60a917;strokeColor=#2D7600;fontColor=#ffffff;" parent="WIyWlLk6GJQsqaUBKTNV-1" vertex="1">
          <mxGeometry x="1705" y="345" width="160" height="40" as="geometry" />
        </mxCell>
        <mxCell id="sTVolGUjrKoJvCUlZHto-228" style="edgeStyle=orthogonalEdgeStyle;rounded=0;orthogonalLoop=1;jettySize=auto;html=1;exitX=0.5;exitY=1;exitDx=0;exitDy=0;fontFamily=Helvetica;fontSize=14;fontColor=default;" parent="WIyWlLk6GJQsqaUBKTNV-1" source="sTVolGUjrKoJvCUlZHto-229" target="sTVolGUjrKoJvCUlZHto-257" edge="1">
          <mxGeometry relative="1" as="geometry" />
        </mxCell>
        <mxCell id="sTVolGUjrKoJvCUlZHto-229" value="openBtnClicked" style="rounded=1;whiteSpace=wrap;html=1;fontSize=14;glass=0;strokeWidth=1;shadow=0;fillColor=#60a917;strokeColor=#2D7600;fontColor=#ffffff;" parent="WIyWlLk6GJQsqaUBKTNV-1" vertex="1">
          <mxGeometry x="1705" y="415" width="160" height="40" as="geometry" />
        </mxCell>
        <mxCell id="sTVolGUjrKoJvCUlZHto-230" style="edgeStyle=orthogonalEdgeStyle;rounded=0;orthogonalLoop=1;jettySize=auto;html=1;fontFamily=Helvetica;fontSize=14;fontColor=default;" parent="WIyWlLk6GJQsqaUBKTNV-1" source="sTVolGUjrKoJvCUlZHto-231" target="sTVolGUjrKoJvCUlZHto-270" edge="1">
          <mxGeometry relative="1" as="geometry" />
        </mxCell>
        <mxCell id="sTVolGUjrKoJvCUlZHto-231" value="navigationClicked" style="rounded=1;whiteSpace=wrap;html=1;fontSize=14;glass=0;strokeWidth=1;shadow=0;fillColor=#60a917;strokeColor=#2D7600;fontColor=#ffffff;" parent="WIyWlLk6GJQsqaUBKTNV-1" vertex="1">
          <mxGeometry x="1375" y="415" width="160" height="40" as="geometry" />
        </mxCell>
        <mxCell id="sTVolGUjrKoJvCUlZHto-253" style="edgeStyle=orthogonalEdgeStyle;rounded=0;orthogonalLoop=1;jettySize=auto;html=1;exitX=1;exitY=0.5;exitDx=0;exitDy=0;fontFamily=Helvetica;fontSize=14;fontColor=default;" parent="WIyWlLk6GJQsqaUBKTNV-1" source="sTVolGUjrKoJvCUlZHto-257" edge="1">
          <mxGeometry relative="1" as="geometry">
            <mxPoint x="2410" y="710" as="targetPoint" />
            <Array as="points">
              <mxPoint x="2400" y="505" />
              <mxPoint x="2400" y="655" />
            </Array>
          </mxGeometry>
        </mxCell>
        <mxCell id="sTVolGUjrKoJvCUlZHto-254" value="layout" style="edgeLabel;html=1;align=center;verticalAlign=middle;resizable=0;points=[];fontSize=14;fontFamily=Helvetica;fontColor=default;" parent="sTVolGUjrKoJvCUlZHto-253" vertex="1" connectable="0">
          <mxGeometry x="-0.2531" y="-4" relative="1" as="geometry">
            <mxPoint as="offset" />
          </mxGeometry>
        </mxCell>
        <mxCell id="sTVolGUjrKoJvCUlZHto-255" style="edgeStyle=orthogonalEdgeStyle;rounded=0;orthogonalLoop=1;jettySize=auto;html=1;exitX=0.5;exitY=1;exitDx=0;exitDy=0;fontFamily=Helvetica;fontSize=14;fontColor=default;" parent="WIyWlLk6GJQsqaUBKTNV-1" source="sTVolGUjrKoJvCUlZHto-257" target="sTVolGUjrKoJvCUlZHto-259" edge="1">
          <mxGeometry relative="1" as="geometry" />
        </mxCell>
        <mxCell id="sTVolGUjrKoJvCUlZHto-256" value="flow/construction" style="edgeLabel;html=1;align=center;verticalAlign=middle;resizable=0;points=[];fontSize=14;fontFamily=Helvetica;fontColor=default;" parent="sTVolGUjrKoJvCUlZHto-255" vertex="1" connectable="0">
          <mxGeometry x="0.3182" y="3" relative="1" as="geometry">
            <mxPoint y="-1" as="offset" />
          </mxGeometry>
        </mxCell>
        <mxCell id="sTVolGUjrKoJvCUlZHto-257" value="switch type" style="rhombus;whiteSpace=wrap;html=1;rounded=0;strokeColor=#2D7600;align=center;verticalAlign=middle;fontFamily=Helvetica;fontSize=14;fillColor=#60a917;fontColor=#ffffff;" parent="WIyWlLk6GJQsqaUBKTNV-1" vertex="1">
          <mxGeometry x="1745" y="480" width="80" height="50" as="geometry" />
        </mxCell>
        <mxCell id="sTVolGUjrKoJvCUlZHto-258" style="edgeStyle=orthogonalEdgeStyle;rounded=0;orthogonalLoop=1;jettySize=auto;html=1;exitX=0.5;exitY=1;exitDx=0;exitDy=0;fontFamily=Helvetica;fontSize=14;fontColor=default;" parent="WIyWlLk6GJQsqaUBKTNV-1" source="sTVolGUjrKoJvCUlZHto-259" target="sTVolGUjrKoJvCUlZHto-265" edge="1">
          <mxGeometry relative="1" as="geometry" />
        </mxCell>
        <mxCell id="sTVolGUjrKoJvCUlZHto-259" value="openLibrary" style="rounded=1;whiteSpace=wrap;html=1;fontSize=14;glass=0;strokeWidth=1;shadow=0;fillColor=#60a917;strokeColor=#2D7600;fontColor=#ffffff;" parent="WIyWlLk6GJQsqaUBKTNV-1" vertex="1">
          <mxGeometry x="1705" y="630" width="160" height="40" as="geometry" />
        </mxCell>
        <mxCell id="sTVolGUjrKoJvCUlZHto-261" style="edgeStyle=orthogonalEdgeStyle;rounded=0;orthogonalLoop=1;jettySize=auto;html=1;exitX=0.5;exitY=1;exitDx=0;exitDy=0;fontFamily=Helvetica;fontSize=14;fontColor=default;" parent="WIyWlLk6GJQsqaUBKTNV-1" source="sTVolGUjrKoJvCUlZHto-265" target="sTVolGUjrKoJvCUlZHto-266" edge="1">
          <mxGeometry relative="1" as="geometry" />
        </mxCell>
        <mxCell id="sTVolGUjrKoJvCUlZHto-262" value="LibraryType_Flow" style="edgeLabel;html=1;align=center;verticalAlign=middle;resizable=0;points=[];fontSize=14;fontFamily=Helvetica;fontColor=default;" parent="sTVolGUjrKoJvCUlZHto-261" vertex="1" connectable="0">
          <mxGeometry x="-0.1668" y="-3" relative="1" as="geometry">
            <mxPoint as="offset" />
          </mxGeometry>
        </mxCell>
        <mxCell id="sTVolGUjrKoJvCUlZHto-263" style="edgeStyle=orthogonalEdgeStyle;rounded=0;orthogonalLoop=1;jettySize=auto;html=1;exitX=1;exitY=0.5;exitDx=0;exitDy=0;fontFamily=Helvetica;fontSize=14;fontColor=default;" parent="WIyWlLk6GJQsqaUBKTNV-1" source="sTVolGUjrKoJvCUlZHto-265" target="sTVolGUjrKoJvCUlZHto-267" edge="1">
          <mxGeometry relative="1" as="geometry" />
        </mxCell>
        <mxCell id="sTVolGUjrKoJvCUlZHto-264" value="LibraryType_Construction" style="edgeLabel;html=1;align=center;verticalAlign=middle;resizable=0;points=[];fontSize=14;fontFamily=Helvetica;fontColor=default;" parent="sTVolGUjrKoJvCUlZHto-263" vertex="1" connectable="0">
          <mxGeometry x="-0.3792" y="1" relative="1" as="geometry">
            <mxPoint as="offset" />
          </mxGeometry>
        </mxCell>
        <mxCell id="sTVolGUjrKoJvCUlZHto-265" value="switch library_type" style="rhombus;whiteSpace=wrap;html=1;rounded=0;strokeColor=#2D7600;align=center;verticalAlign=middle;fontFamily=Helvetica;fontSize=14;fillColor=#60a917;fontColor=#ffffff;" parent="WIyWlLk6GJQsqaUBKTNV-1" vertex="1">
          <mxGeometry x="1735" y="700" width="100" height="70" as="geometry" />
        </mxCell>
        <mxCell id="4WCQqq4v4iScheRFZ_jF-21" style="edgeStyle=orthogonalEdgeStyle;rounded=0;orthogonalLoop=1;jettySize=auto;html=1;exitX=0.5;exitY=1;exitDx=0;exitDy=0;entryX=0.5;entryY=0;entryDx=0;entryDy=0;" parent="WIyWlLk6GJQsqaUBKTNV-1" source="sTVolGUjrKoJvCUlZHto-266" target="4WCQqq4v4iScheRFZ_jF-15" edge="1">
          <mxGeometry relative="1" as="geometry" />
        </mxCell>
        <mxCell id="sTVolGUjrKoJvCUlZHto-266" value="m_flowLibrary-&amp;gt;importTclItemSlot();" style="rounded=1;whiteSpace=wrap;html=1;fontSize=14;glass=0;strokeWidth=1;shadow=0;fillColor=#60a917;strokeColor=#2D7600;fontColor=#ffffff;" parent="WIyWlLk6GJQsqaUBKTNV-1" vertex="1">
          <mxGeometry x="1705" y="810" width="160" height="40" as="geometry" />
        </mxCell>
        <mxCell id="sTVolGUjrKoJvCUlZHto-267" value="m_constructionLibrary-&amp;gt;importTBItemSlot();" style="rounded=1;whiteSpace=wrap;html=1;fontSize=14;glass=0;strokeWidth=1;shadow=0;fillColor=#60a917;strokeColor=#2D7600;fontColor=#ffffff;" parent="WIyWlLk6GJQsqaUBKTNV-1" vertex="1">
          <mxGeometry x="1930" y="810" width="160" height="40" as="geometry" />
        </mxCell>
        <mxCell id="sTVolGUjrKoJvCUlZHto-268" value="&lt;span style=&quot;font-size: 22px;&quot;&gt;外部读取layout/flow/...&lt;/span&gt;" style="text;html=1;strokeColor=none;fillColor=none;align=center;verticalAlign=middle;whiteSpace=wrap;rounded=0;fontSize=22;fontFamily=Helvetica;fontColor=default;" parent="WIyWlLk6GJQsqaUBKTNV-1" vertex="1">
          <mxGeometry x="1650" y="265" width="285" height="70" as="geometry" />
        </mxCell>
        <mxCell id="sTVolGUjrKoJvCUlZHto-269" style="edgeStyle=orthogonalEdgeStyle;rounded=0;orthogonalLoop=1;jettySize=auto;html=1;exitX=0.5;exitY=1;exitDx=0;exitDy=0;entryX=0.5;entryY=0;entryDx=0;entryDy=0;fontFamily=Helvetica;fontSize=14;fontColor=default;" parent="WIyWlLk6GJQsqaUBKTNV-1" source="sTVolGUjrKoJvCUlZHto-270" target="sTVolGUjrKoJvCUlZHto-275" edge="1">
          <mxGeometry relative="1" as="geometry" />
        </mxCell>
        <mxCell id="sTVolGUjrKoJvCUlZHto-270" value="navigator-&amp;gt;close();" style="rounded=1;whiteSpace=wrap;html=1;fontSize=14;glass=0;strokeWidth=1;shadow=0;fillColor=#60a917;strokeColor=#2D7600;fontColor=#ffffff;" parent="WIyWlLk6GJQsqaUBKTNV-1" vertex="1">
          <mxGeometry x="1375" y="485" width="160" height="40" as="geometry" />
        </mxCell>
        <mxCell id="sTVolGUjrKoJvCUlZHto-271" style="edgeStyle=orthogonalEdgeStyle;rounded=0;orthogonalLoop=1;jettySize=auto;html=1;exitX=1;exitY=0.5;exitDx=0;exitDy=0;fontFamily=Helvetica;fontSize=14;fontColor=default;" parent="WIyWlLk6GJQsqaUBKTNV-1" source="sTVolGUjrKoJvCUlZHto-275" edge="1">
          <mxGeometry relative="1" as="geometry">
            <mxPoint x="2390" y="690" as="targetPoint" />
            <Array as="points">
              <mxPoint x="2310" y="570" />
              <mxPoint x="2310" y="655" />
            </Array>
          </mxGeometry>
        </mxCell>
        <mxCell id="sTVolGUjrKoJvCUlZHto-272" value="layout" style="edgeLabel;html=1;align=center;verticalAlign=middle;resizable=0;points=[];fontSize=14;fontFamily=Helvetica;fontColor=default;" parent="sTVolGUjrKoJvCUlZHto-271" vertex="1" connectable="0">
          <mxGeometry x="-0.4166" y="1" relative="1" as="geometry">
            <mxPoint as="offset" />
          </mxGeometry>
        </mxCell>
        <mxCell id="sTVolGUjrKoJvCUlZHto-273" style="edgeStyle=orthogonalEdgeStyle;rounded=0;orthogonalLoop=1;jettySize=auto;html=1;exitX=0.5;exitY=1;exitDx=0;exitDy=0;entryX=0.5;entryY=0;entryDx=0;entryDy=0;fontFamily=Helvetica;fontSize=14;fontColor=default;" parent="WIyWlLk6GJQsqaUBKTNV-1" source="sTVolGUjrKoJvCUlZHto-275" target="sTVolGUjrKoJvCUlZHto-278" edge="1">
          <mxGeometry relative="1" as="geometry" />
        </mxCell>
        <mxCell id="sTVolGUjrKoJvCUlZHto-274" value="flow/construction" style="edgeLabel;html=1;align=center;verticalAlign=middle;resizable=0;points=[];fontSize=14;fontFamily=Helvetica;fontColor=default;" parent="sTVolGUjrKoJvCUlZHto-273" vertex="1" connectable="0">
          <mxGeometry x="0.1593" relative="1" as="geometry">
            <mxPoint as="offset" />
          </mxGeometry>
        </mxCell>
        <mxCell id="sTVolGUjrKoJvCUlZHto-275" value="switch type" style="rhombus;whiteSpace=wrap;html=1;rounded=0;strokeColor=#2D7600;align=center;verticalAlign=middle;fontFamily=Helvetica;fontSize=14;fillColor=#60a917;fontColor=#ffffff;" parent="WIyWlLk6GJQsqaUBKTNV-1" vertex="1">
          <mxGeometry x="1415" y="545" width="80" height="50" as="geometry" />
        </mxCell>
        <mxCell id="sTVolGUjrKoJvCUlZHto-276" value="&lt;span style=&quot;font-size: 22px;&quot;&gt;加载layout/flow/...&lt;/span&gt;" style="text;html=1;strokeColor=none;fillColor=none;align=center;verticalAlign=middle;whiteSpace=wrap;rounded=0;fontSize=22;fontFamily=Helvetica;fontColor=default;" parent="WIyWlLk6GJQsqaUBKTNV-1" vertex="1">
          <mxGeometry x="1365" y="265" width="190" height="70" as="geometry" />
        </mxCell>
        <mxCell id="sTVolGUjrKoJvCUlZHto-277" value="关闭导航页，进入主菜单" style="shape=callout;whiteSpace=wrap;html=1;perimeter=calloutPerimeter;rounded=0;strokeColor=default;align=center;verticalAlign=middle;fontFamily=Helvetica;fontSize=14;fontColor=default;fillColor=default;position2=0;" parent="WIyWlLk6GJQsqaUBKTNV-1" vertex="1">
          <mxGeometry x="1540" y="445" width="90" height="70" as="geometry" />
        </mxCell>
        <mxCell id="sTVolGUjrKoJvCUlZHto-278" value="clickedLibrary" style="rounded=1;whiteSpace=wrap;html=1;fontSize=14;glass=0;strokeWidth=1;shadow=0;fillColor=#60a917;strokeColor=#2D7600;fontColor=#ffffff;" parent="WIyWlLk6GJQsqaUBKTNV-1" vertex="1">
          <mxGeometry x="1375" y="675" width="160" height="40" as="geometry" />
        </mxCell>
        <mxCell id="sTVolGUjrKoJvCUlZHto-283" value="交互类" style="shape=callout;whiteSpace=wrap;html=1;perimeter=calloutPerimeter;rounded=0;strokeColor=default;align=center;verticalAlign=middle;fontFamily=Helvetica;fontSize=14;fontColor=default;fillColor=default;position2=1;" parent="WIyWlLk6GJQsqaUBKTNV-1" vertex="1">
          <mxGeometry x="1150" y="580" width="70" height="70" as="geometry" />
        </mxCell>
        <mxCell id="sTVolGUjrKoJvCUlZHto-295" value="加载已有flow到widget" style="shape=callout;whiteSpace=wrap;html=1;perimeter=calloutPerimeter;rounded=0;strokeColor=default;align=center;verticalAlign=middle;fontFamily=Helvetica;fontSize=14;fontColor=default;fillColor=default;position2=0.4;direction=west;" parent="WIyWlLk6GJQsqaUBKTNV-1" vertex="1">
          <mxGeometry x="1365" y="715" width="150" height="90" as="geometry" />
        </mxCell>
        <mxCell id="sTVolGUjrKoJvCUlZHto-296" value="&lt;p style=&quot;margin-top: 0pt; margin-bottom: 0pt; margin-left: 0in; direction: ltr; unicode-bidi: embed; font-size: 14px;&quot;&gt;class&amp;nbsp;QxLibraryManager&lt;/p&gt;" style="rounded=0;whiteSpace=wrap;html=1;verticalAlign=top;align=left;fillColor=#d0cee2;strokeColor=#56517e;fontSize=14;" parent="WIyWlLk6GJQsqaUBKTNV-1" vertex="1">
          <mxGeometry x="1555" y="1785" width="380" height="360" as="geometry" />
        </mxCell>
        <mxCell id="sTVolGUjrKoJvCUlZHto-297" value="&lt;p style=&quot;margin-top: 0pt; margin-bottom: 0pt; margin-left: 0in; direction: ltr; unicode-bidi: embed; font-size: 14px;&quot;&gt;class&amp;nbsp;QxFlowPage&lt;/p&gt;" style="rounded=0;whiteSpace=wrap;html=1;verticalAlign=top;align=left;fillColor=#dae8fc;strokeColor=#6c8ebf;fontSize=14;" parent="WIyWlLk6GJQsqaUBKTNV-1" vertex="1">
          <mxGeometry x="1555" y="1575" width="220" height="160" as="geometry" />
        </mxCell>
        <mxCell id="sTVolGUjrKoJvCUlZHto-299" style="edgeStyle=orthogonalEdgeStyle;rounded=0;orthogonalLoop=1;jettySize=auto;html=1;exitX=0.5;exitY=1;exitDx=0;exitDy=0;fontFamily=Helvetica;fontSize=14;fontColor=default;" parent="WIyWlLk6GJQsqaUBKTNV-1" edge="1">
          <mxGeometry relative="1" as="geometry">
            <mxPoint x="2095" y="1635" as="sourcePoint" />
          </mxGeometry>
        </mxCell>
        <mxCell id="sTVolGUjrKoJvCUlZHto-301" style="edgeStyle=orthogonalEdgeStyle;rounded=0;orthogonalLoop=1;jettySize=auto;html=1;exitX=0.5;exitY=1;exitDx=0;exitDy=0;fontFamily=Helvetica;fontSize=14;fontColor=default;" parent="WIyWlLk6GJQsqaUBKTNV-1" edge="1">
          <mxGeometry relative="1" as="geometry">
            <mxPoint x="2095" y="1775" as="sourcePoint" />
          </mxGeometry>
        </mxCell>
        <mxCell id="sTVolGUjrKoJvCUlZHto-302" value="LibraryType_Flow" style="edgeLabel;html=1;align=center;verticalAlign=middle;resizable=0;points=[];fontSize=14;fontFamily=Helvetica;fontColor=default;" parent="sTVolGUjrKoJvCUlZHto-301" vertex="1" connectable="0">
          <mxGeometry x="-0.1668" y="-3" relative="1" as="geometry">
            <mxPoint as="offset" />
          </mxGeometry>
        </mxCell>
        <mxCell id="sTVolGUjrKoJvCUlZHto-309" style="edgeStyle=orthogonalEdgeStyle;rounded=0;orthogonalLoop=1;jettySize=auto;html=1;exitX=0.5;exitY=1;exitDx=0;exitDy=0;fontFamily=Helvetica;fontSize=12;fontColor=default;" parent="WIyWlLk6GJQsqaUBKTNV-1" source="sTVolGUjrKoJvCUlZHto-310" edge="1">
          <mxGeometry relative="1" as="geometry">
            <mxPoint x="1345" y="1742.5" as="targetPoint" />
          </mxGeometry>
        </mxCell>
        <mxCell id="sTVolGUjrKoJvCUlZHto-310" value="&lt;div&gt;QxLibraryList&lt;br&gt;&lt;/div&gt;&lt;div&gt;m_flowLibrary;&lt;/div&gt;&lt;div&gt;&amp;nbsp; &amp;nbsp; m_constructionLibrary;&lt;/div&gt;&lt;div&gt;&amp;nbsp; &amp;nbsp; m_processStepLibrary;&lt;/div&gt;&lt;div&gt;&amp;nbsp; &amp;nbsp; m_userStepLibrary;&lt;/div&gt;&lt;div&gt;&amp;nbsp; &amp;nbsp; m_moduleLibrary;&amp;nbsp;&amp;nbsp;&lt;/div&gt;" style="rounded=1;whiteSpace=wrap;html=1;fontSize=14;glass=0;strokeWidth=1;shadow=0;fillColor=#60a917;strokeColor=#2D7600;fontColor=#ffffff;" parent="WIyWlLk6GJQsqaUBKTNV-1" vertex="1">
          <mxGeometry x="1260" y="1600" width="170" height="110" as="geometry" />
        </mxCell>
        <mxCell id="sTVolGUjrKoJvCUlZHto-311" style="edgeStyle=orthogonalEdgeStyle;rounded=0;orthogonalLoop=1;jettySize=auto;html=1;entryX=0.5;entryY=0;entryDx=0;entryDy=0;fontFamily=Helvetica;fontSize=12;fontColor=default;" parent="WIyWlLk6GJQsqaUBKTNV-1" source="sTVolGUjrKoJvCUlZHto-323" target="sTVolGUjrKoJvCUlZHto-322" edge="1">
          <mxGeometry relative="1" as="geometry">
            <mxPoint x="1345" y="1782.5" as="sourcePoint" />
          </mxGeometry>
        </mxCell>
        <mxCell id="sTVolGUjrKoJvCUlZHto-312" value="各QxLibraryList: public QWidget 类统一增删改查的接口，控制m_flowPage或者m_constructionFlowWidget" style="shape=callout;whiteSpace=wrap;html=1;perimeter=calloutPerimeter;rounded=0;strokeColor=default;align=center;verticalAlign=middle;fontFamily=Helvetica;fontSize=14;fontColor=default;fillColor=default;position2=1;" parent="WIyWlLk6GJQsqaUBKTNV-1" vertex="1">
          <mxGeometry x="1070" y="1755" width="190" height="105" as="geometry" />
        </mxCell>
        <mxCell id="sTVolGUjrKoJvCUlZHto-313" value="交互类" style="shape=callout;whiteSpace=wrap;html=1;perimeter=calloutPerimeter;rounded=0;strokeColor=default;align=center;verticalAlign=middle;fontFamily=Helvetica;fontSize=14;fontColor=default;fillColor=default;position2=1;" parent="WIyWlLk6GJQsqaUBKTNV-1" vertex="1">
          <mxGeometry x="1030" y="1520" width="70" height="70" as="geometry" />
        </mxCell>
        <mxCell id="sTVolGUjrKoJvCUlZHto-314" value="&lt;span style=&quot;font-size: 22px;&quot;&gt;增删改查flow/construction/...&lt;/span&gt;" style="text;html=1;strokeColor=none;fillColor=none;align=center;verticalAlign=middle;whiteSpace=wrap;rounded=0;fontSize=22;fontFamily=Helvetica;fontColor=default;" parent="WIyWlLk6GJQsqaUBKTNV-1" vertex="1">
          <mxGeometry x="1250" y="1510" width="190" height="70" as="geometry" />
        </mxCell>
        <mxCell id="sTVolGUjrKoJvCUlZHto-315" style="edgeStyle=orthogonalEdgeStyle;rounded=0;orthogonalLoop=1;jettySize=auto;html=1;fontFamily=Helvetica;fontSize=12;fontColor=default;" parent="WIyWlLk6GJQsqaUBKTNV-1" source="sTVolGUjrKoJvCUlZHto-316" target="sTVolGUjrKoJvCUlZHto-341" edge="1">
          <mxGeometry relative="1" as="geometry" />
        </mxCell>
        <mxCell id="sTVolGUjrKoJvCUlZHto-316" value="m_constructionFlowWidget-&amp;gt;addNewItem" style="rounded=1;whiteSpace=wrap;html=1;fontSize=14;glass=0;strokeWidth=1;shadow=0;fillColor=#60a917;strokeColor=#2D7600;fontColor=#ffffff;" parent="WIyWlLk6GJQsqaUBKTNV-1" vertex="1">
          <mxGeometry x="1070" y="2065" width="205" height="45" as="geometry" />
        </mxCell>
        <mxCell id="sTVolGUjrKoJvCUlZHto-372" style="edgeStyle=orthogonalEdgeStyle;rounded=0;orthogonalLoop=1;jettySize=auto;html=1;fontFamily=Helvetica;fontSize=12;fontColor=default;entryX=0.5;entryY=0;entryDx=0;entryDy=0;" parent="WIyWlLk6GJQsqaUBKTNV-1" source="sTVolGUjrKoJvCUlZHto-318" target="sTVolGUjrKoJvCUlZHto-320" edge="1">
          <mxGeometry relative="1" as="geometry">
            <mxPoint x="1540" y="1610" as="targetPoint" />
            <Array as="points">
              <mxPoint x="1530" y="2085" />
              <mxPoint x="1530" y="1530" />
              <mxPoint x="1685" y="1530" />
            </Array>
          </mxGeometry>
        </mxCell>
        <mxCell id="sTVolGUjrKoJvCUlZHto-318" value="m_flowPage-&amp;gt;addNewItem" style="rounded=1;whiteSpace=wrap;html=1;fontSize=14;glass=0;strokeWidth=1;shadow=0;fillColor=#60a917;strokeColor=#2D7600;fontColor=#ffffff;" parent="WIyWlLk6GJQsqaUBKTNV-1" vertex="1">
          <mxGeometry x="1320" y="2065" width="160" height="40" as="geometry" />
        </mxCell>
        <mxCell id="sTVolGUjrKoJvCUlZHto-319" value="" style="edgeStyle=orthogonalEdgeStyle;rounded=0;orthogonalLoop=1;jettySize=auto;html=1;fontFamily=Helvetica;fontSize=12;fontColor=default;" parent="WIyWlLk6GJQsqaUBKTNV-1" source="sTVolGUjrKoJvCUlZHto-320" target="sTVolGUjrKoJvCUlZHto-328" edge="1">
          <mxGeometry relative="1" as="geometry" />
        </mxCell>
        <mxCell id="sTVolGUjrKoJvCUlZHto-320" value="addNewItem" style="rounded=1;whiteSpace=wrap;html=1;fontSize=14;glass=0;strokeWidth=1;shadow=0;fillColor=#60a917;strokeColor=#2D7600;fontColor=#ffffff;" parent="WIyWlLk6GJQsqaUBKTNV-1" vertex="1">
          <mxGeometry x="1620" y="1595" width="130" height="40" as="geometry" />
        </mxCell>
        <mxCell id="sTVolGUjrKoJvCUlZHto-321" style="edgeStyle=orthogonalEdgeStyle;rounded=0;orthogonalLoop=1;jettySize=auto;html=1;entryX=0.5;entryY=0;entryDx=0;entryDy=0;fontFamily=Helvetica;fontSize=12;fontColor=default;" parent="WIyWlLk6GJQsqaUBKTNV-1" source="sTVolGUjrKoJvCUlZHto-322" target="sTVolGUjrKoJvCUlZHto-326" edge="1">
          <mxGeometry relative="1" as="geometry" />
        </mxCell>
        <mxCell id="sTVolGUjrKoJvCUlZHto-322" value="addNewItemSlot;&lt;div&gt;updateDragItemInfoSlot;&lt;/div&gt;deleteLibraryItemSlot;&lt;br&gt;addDragItemSlot;" style="rounded=1;whiteSpace=wrap;html=1;fontSize=14;glass=0;strokeWidth=1;shadow=0;fillColor=#60a917;strokeColor=#2D7600;fontColor=#ffffff;" parent="WIyWlLk6GJQsqaUBKTNV-1" vertex="1">
          <mxGeometry x="1260" y="1805" width="170" height="90" as="geometry" />
        </mxCell>
        <mxCell id="sTVolGUjrKoJvCUlZHto-323" value="connect" style="rounded=0;whiteSpace=wrap;html=1;strokeColor=default;align=center;verticalAlign=middle;fontFamily=Helvetica;fontSize=12;fontColor=default;fillColor=default;" parent="WIyWlLk6GJQsqaUBKTNV-1" vertex="1">
          <mxGeometry x="1285" y="1742.5" width="120" height="40" as="geometry" />
        </mxCell>
        <mxCell id="sTVolGUjrKoJvCUlZHto-324" style="edgeStyle=orthogonalEdgeStyle;rounded=0;orthogonalLoop=1;jettySize=auto;html=1;exitX=0.5;exitY=1;exitDx=0;exitDy=0;fontFamily=Helvetica;fontSize=12;fontColor=default;" parent="WIyWlLk6GJQsqaUBKTNV-1" source="sTVolGUjrKoJvCUlZHto-326" target="sTVolGUjrKoJvCUlZHto-318" edge="1">
          <mxGeometry relative="1" as="geometry" />
        </mxCell>
        <mxCell id="sTVolGUjrKoJvCUlZHto-325" style="edgeStyle=orthogonalEdgeStyle;rounded=0;orthogonalLoop=1;jettySize=auto;html=1;exitX=0.5;exitY=1;exitDx=0;exitDy=0;fontFamily=Helvetica;fontSize=12;fontColor=default;" parent="WIyWlLk6GJQsqaUBKTNV-1" source="sTVolGUjrKoJvCUlZHto-326" target="sTVolGUjrKoJvCUlZHto-316" edge="1">
          <mxGeometry relative="1" as="geometry" />
        </mxCell>
        <mxCell id="sTVolGUjrKoJvCUlZHto-326" value="ui-&amp;gt;mainTabWidget-&amp;gt;currentIndex()" style="rhombus;whiteSpace=wrap;html=1;rounded=0;strokeColor=#2D7600;align=center;verticalAlign=middle;fontFamily=Helvetica;fontSize=14;fillColor=#60a917;fontColor=#ffffff;" parent="WIyWlLk6GJQsqaUBKTNV-1" vertex="1">
          <mxGeometry x="1257.5" y="1940" width="175" height="80" as="geometry" />
        </mxCell>
        <mxCell id="sTVolGUjrKoJvCUlZHto-327" style="edgeStyle=orthogonalEdgeStyle;rounded=0;orthogonalLoop=1;jettySize=auto;html=1;exitX=0.5;exitY=1;exitDx=0;exitDy=0;fontFamily=Helvetica;fontSize=12;fontColor=default;" parent="WIyWlLk6GJQsqaUBKTNV-1" source="sTVolGUjrKoJvCUlZHto-328" target="sTVolGUjrKoJvCUlZHto-330" edge="1">
          <mxGeometry relative="1" as="geometry" />
        </mxCell>
        <mxCell id="sTVolGUjrKoJvCUlZHto-328" value="updateCurrentFlow" style="rounded=1;whiteSpace=wrap;html=1;fontSize=14;glass=0;strokeWidth=1;shadow=0;fillColor=#60a917;strokeColor=#2D7600;fontColor=#ffffff;" parent="WIyWlLk6GJQsqaUBKTNV-1" vertex="1">
          <mxGeometry x="1615" y="1670" width="140" height="40" as="geometry" />
        </mxCell>
        <mxCell id="sTVolGUjrKoJvCUlZHto-329" style="edgeStyle=orthogonalEdgeStyle;rounded=0;orthogonalLoop=1;jettySize=auto;html=1;exitX=0.5;exitY=1;exitDx=0;exitDy=0;fontFamily=Helvetica;fontSize=12;fontColor=default;" parent="WIyWlLk6GJQsqaUBKTNV-1" source="sTVolGUjrKoJvCUlZHto-330" target="sTVolGUjrKoJvCUlZHto-333" edge="1">
          <mxGeometry relative="1" as="geometry" />
        </mxCell>
        <mxCell id="sTVolGUjrKoJvCUlZHto-330" value="QxLibraryManager::getInstance()-&amp;gt;addNewFlow" style="rounded=1;whiteSpace=wrap;html=1;fontSize=14;glass=0;strokeWidth=1;shadow=0;fillColor=#60a917;strokeColor=#2D7600;fontColor=#ffffff;" parent="WIyWlLk6GJQsqaUBKTNV-1" vertex="1">
          <mxGeometry x="1572.5" y="1815" width="225" height="40" as="geometry" />
        </mxCell>
        <mxCell id="sTVolGUjrKoJvCUlZHto-331" value="单例，控制Flow/construction/...数据结构与文件io" style="shape=callout;whiteSpace=wrap;html=1;perimeter=calloutPerimeter;rounded=0;strokeColor=default;align=center;verticalAlign=middle;fontFamily=Helvetica;fontSize=14;fontColor=default;fillColor=default;position2=0;" parent="WIyWlLk6GJQsqaUBKTNV-1" vertex="1">
          <mxGeometry x="1935" y="1767.5" width="150" height="90" as="geometry" />
        </mxCell>
        <mxCell id="sTVolGUjrKoJvCUlZHto-332" style="edgeStyle=orthogonalEdgeStyle;rounded=0;orthogonalLoop=1;jettySize=auto;html=1;exitX=0.5;exitY=1;exitDx=0;exitDy=0;fontFamily=Helvetica;fontSize=12;fontColor=default;" parent="WIyWlLk6GJQsqaUBKTNV-1" source="sTVolGUjrKoJvCUlZHto-333" target="sTVolGUjrKoJvCUlZHto-334" edge="1">
          <mxGeometry relative="1" as="geometry" />
        </mxCell>
        <mxCell id="sTVolGUjrKoJvCUlZHto-333" value="&lt;div&gt;&lt;span style=&quot;background-color: initial;&quot;&gt;QList&amp;lt;QxFlow*&amp;gt; m_flowList;&lt;/span&gt;&lt;br&gt;&lt;/div&gt;&lt;div&gt;QList&amp;lt;QString&amp;gt; m_flowNameList;&lt;/div&gt;&lt;div&gt;QList&amp;lt;QString&amp;gt; m_constructionList;&lt;/div&gt;&lt;div&gt;QList&amp;lt;QxStepTemplateBase*&amp;gt; m_processStepList;&lt;/div&gt;&lt;div&gt;QList&amp;lt;QxStepTemplateBase*&amp;gt; m_userStepList;&lt;/div&gt;&lt;div&gt;QList&amp;lt;QxModule*&amp;gt;&amp;nbsp; m_moduleList;&lt;/div&gt;" style="rounded=1;whiteSpace=wrap;html=1;fontSize=14;glass=0;strokeWidth=1;shadow=0;fillColor=#60a917;strokeColor=#2D7600;fontColor=#ffffff;" parent="WIyWlLk6GJQsqaUBKTNV-1" vertex="1">
          <mxGeometry x="1572.5" y="1895" width="335" height="120" as="geometry" />
        </mxCell>
        <mxCell id="sTVolGUjrKoJvCUlZHto-334" value="saveNewFlow" style="rounded=1;whiteSpace=wrap;html=1;fontSize=14;glass=0;strokeWidth=1;shadow=0;fillColor=#60a917;strokeColor=#2D7600;fontColor=#ffffff;" parent="WIyWlLk6GJQsqaUBKTNV-1" vertex="1">
          <mxGeometry x="1621.25" y="2095" width="127.5" height="40" as="geometry" />
        </mxCell>
        <mxCell id="sTVolGUjrKoJvCUlZHto-335" value="写数据结构" style="shape=callout;whiteSpace=wrap;html=1;perimeter=calloutPerimeter;rounded=0;strokeColor=default;align=center;verticalAlign=middle;fontFamily=Helvetica;fontSize=14;fontColor=default;fillColor=default;position2=0;" parent="WIyWlLk6GJQsqaUBKTNV-1" vertex="1">
          <mxGeometry x="1907.5" y="1905" width="105" height="70" as="geometry" />
        </mxCell>
        <mxCell id="sTVolGUjrKoJvCUlZHto-336" value="写文件&lt;br&gt;&quot;/meda_home/tcad0668/.process/flowlibrary&quot;" style="shape=callout;whiteSpace=wrap;html=1;perimeter=calloutPerimeter;rounded=0;strokeColor=default;align=center;verticalAlign=middle;fontFamily=Helvetica;fontSize=14;fontColor=default;fillColor=default;position2=1;" parent="WIyWlLk6GJQsqaUBKTNV-1" vertex="1">
          <mxGeometry x="2300" y="2200" width="290" height="70" as="geometry" />
        </mxCell>
        <mxCell id="sTVolGUjrKoJvCUlZHto-337" value="与pe区别：pi每次修改都会自动与文件同步，而pe则是以用户可知的save/load方式控制文件io" style="shape=callout;whiteSpace=wrap;html=1;perimeter=calloutPerimeter;rounded=0;strokeColor=default;align=center;verticalAlign=middle;fontFamily=Helvetica;fontSize=14;fontColor=default;fillColor=default;position2=1;" parent="WIyWlLk6GJQsqaUBKTNV-1" vertex="1">
          <mxGeometry x="2082.5" y="2360" width="190" height="100" as="geometry" />
        </mxCell>
        <mxCell id="sTVolGUjrKoJvCUlZHto-340" style="edgeStyle=orthogonalEdgeStyle;rounded=0;orthogonalLoop=1;jettySize=auto;html=1;exitX=0.5;exitY=1;exitDx=0;exitDy=0;entryX=0.5;entryY=0;entryDx=0;entryDy=0;fontFamily=Helvetica;fontSize=12;fontColor=default;" parent="WIyWlLk6GJQsqaUBKTNV-1" source="sTVolGUjrKoJvCUlZHto-341" target="sTVolGUjrKoJvCUlZHto-342" edge="1">
          <mxGeometry relative="1" as="geometry" />
        </mxCell>
        <mxCell id="sTVolGUjrKoJvCUlZHto-341" value="addNewItem" style="rounded=1;whiteSpace=wrap;html=1;fontSize=14;glass=0;strokeWidth=1;shadow=0;fillColor=#60a917;strokeColor=#2D7600;fontColor=#ffffff;" parent="WIyWlLk6GJQsqaUBKTNV-1" vertex="1">
          <mxGeometry x="1005" y="2200" width="130" height="40" as="geometry" />
        </mxCell>
        <mxCell id="sTVolGUjrKoJvCUlZHto-342" value="dragNewFlow" style="rounded=1;whiteSpace=wrap;html=1;fontSize=14;glass=0;strokeWidth=1;shadow=0;fillColor=#60a917;strokeColor=#2D7600;fontColor=#ffffff;" parent="WIyWlLk6GJQsqaUBKTNV-1" vertex="1">
          <mxGeometry x="1005" y="2265" width="130" height="40" as="geometry" />
        </mxCell>
        <mxCell id="4WCQqq4v4iScheRFZ_jF-7" style="edgeStyle=orthogonalEdgeStyle;rounded=0;orthogonalLoop=1;jettySize=auto;html=1;entryX=0.5;entryY=0;entryDx=0;entryDy=0;" parent="WIyWlLk6GJQsqaUBKTNV-1" source="4WCQqq4v4iScheRFZ_jF-2" target="4WCQqq4v4iScheRFZ_jF-4" edge="1">
          <mxGeometry relative="1" as="geometry" />
        </mxCell>
        <mxCell id="4WCQqq4v4iScheRFZ_jF-2" value="readTcl" style="rounded=1;whiteSpace=wrap;html=1;fontSize=14;glass=0;strokeWidth=1;shadow=0;" parent="WIyWlLk6GJQsqaUBKTNV-1" vertex="1">
          <mxGeometry x="-2045" y="1625" width="160" height="40" as="geometry" />
        </mxCell>
        <mxCell id="4WCQqq4v4iScheRFZ_jF-13" style="edgeStyle=orthogonalEdgeStyle;rounded=0;orthogonalLoop=1;jettySize=auto;html=1;exitX=0.5;exitY=1;exitDx=0;exitDy=0;" parent="WIyWlLk6GJQsqaUBKTNV-1" source="4WCQqq4v4iScheRFZ_jF-4" target="4WCQqq4v4iScheRFZ_jF-11" edge="1">
          <mxGeometry relative="1" as="geometry" />
        </mxCell>
        <mxCell id="4WCQqq4v4iScheRFZ_jF-4" value="eval_file" style="rounded=1;whiteSpace=wrap;html=1;fontSize=14;glass=0;strokeWidth=1;shadow=0;" parent="WIyWlLk6GJQsqaUBKTNV-1" vertex="1">
          <mxGeometry x="-2045" y="1727.5" width="160" height="40" as="geometry" />
        </mxCell>
        <mxCell id="4WCQqq4v4iScheRFZ_jF-9" value="" style="strokeWidth=2;html=1;shape=mxgraph.flowchart.annotation_2;align=left;labelPosition=right;pointerEvents=1;direction=west;" parent="WIyWlLk6GJQsqaUBKTNV-1" vertex="1">
          <mxGeometry x="-1873.75" y="1642.5" width="35" height="207.5" as="geometry" />
        </mxCell>
        <mxCell id="4WCQqq4v4iScheRFZ_jF-10" value="TCL执行" style="shape=callout;whiteSpace=wrap;html=1;perimeter=calloutPerimeter;rounded=0;strokeColor=default;align=center;verticalAlign=middle;fontFamily=Helvetica;fontSize=14;fontColor=default;fillColor=default;position2=0;base=105;" parent="WIyWlLk6GJQsqaUBKTNV-1" vertex="1">
          <mxGeometry x="-1830" y="1672.5" width="105" height="70" as="geometry" />
        </mxCell>
        <mxCell id="4WCQqq4v4iScheRFZ_jF-14" style="edgeStyle=orthogonalEdgeStyle;rounded=0;orthogonalLoop=1;jettySize=auto;html=1;exitX=0.5;exitY=1;exitDx=0;exitDy=0;entryX=0.5;entryY=0;entryDx=0;entryDy=0;" parent="WIyWlLk6GJQsqaUBKTNV-1" source="4WCQqq4v4iScheRFZ_jF-11" target="sTVolGUjrKoJvCUlZHto-119" edge="1">
          <mxGeometry relative="1" as="geometry" />
        </mxCell>
        <mxCell id="4WCQqq4v4iScheRFZ_jF-11" value="addFLow" style="rounded=1;whiteSpace=wrap;html=1;fontSize=14;glass=0;strokeWidth=1;shadow=0;" parent="WIyWlLk6GJQsqaUBKTNV-1" vertex="1">
          <mxGeometry x="-2045" y="1825" width="160" height="40" as="geometry" />
        </mxCell>
        <mxCell id="4WCQqq4v4iScheRFZ_jF-23" style="edgeStyle=orthogonalEdgeStyle;rounded=0;orthogonalLoop=1;jettySize=auto;html=1;exitX=0.5;exitY=1;exitDx=0;exitDy=0;" parent="WIyWlLk6GJQsqaUBKTNV-1" source="4WCQqq4v4iScheRFZ_jF-15" target="4WCQqq4v4iScheRFZ_jF-20" edge="1">
          <mxGeometry relative="1" as="geometry" />
        </mxCell>
        <mxCell id="4WCQqq4v4iScheRFZ_jF-15" value="tcl调用" style="rounded=1;whiteSpace=wrap;html=1;fontSize=14;glass=0;strokeWidth=1;shadow=0;" parent="WIyWlLk6GJQsqaUBKTNV-1" vertex="1">
          <mxGeometry x="1705" y="880" width="160" height="40" as="geometry" />
        </mxCell>
        <mxCell id="4WCQqq4v4iScheRFZ_jF-20" value="QxLibraryManager::getInstance()-&amp;gt;addNewFlow" style="rounded=1;whiteSpace=wrap;html=1;fontSize=14;glass=0;strokeWidth=1;shadow=0;fillColor=#60a917;strokeColor=#2D7600;fontColor=#ffffff;" parent="WIyWlLk6GJQsqaUBKTNV-1" vertex="1">
          <mxGeometry x="1672.5" y="955" width="225" height="40" as="geometry" />
        </mxCell>
      </root>
    </mxGraphModel>
  </diagram>
</mxfile>
